<?xml version="1.0" encoding="UTF-8" standalone="no"?>
<svg
   xmlns:dc="http://purl.org/dc/elements/1.1/"
   xmlns:cc="http://creativecommons.org/ns#"
   xmlns:rdf="http://www.w3.org/1999/02/22-rdf-syntax-ns#"
   xmlns:svg="http://www.w3.org/2000/svg"
   xmlns="http://www.w3.org/2000/svg"
   viewBox="0 0 666.66669 666.66669"
   height="666.66669"
   width="666.66669"
   xml:space="preserve"
   id="svg2"
   version="1.1"><metadata
     id="metadata8"><rdf:RDF><cc:Work
         rdf:about=""><dc:format>image/svg+xml</dc:format><dc:type
           rdf:resource="http://purl.org/dc/dcmitype/StillImage" /></cc:Work></rdf:RDF></metadata><defs
     id="defs6" /><g
     transform="matrix(1.3333333,0,0,-1.3333333,0,666.66667)"
     id="g10"><g
       transform="scale(0.1)"
       id="g12"><path
         id="path14"
         style="fill:#ffffff;fill-opacity:1;fill-rule:nonzero;stroke:none"
         d="M 5000,0 H 0 V 5000 H 5000 V 0" /><path
         id="path16"
         style="fill:#b7e7e4;fill-opacity:1;fill-rule:nonzero;stroke:none"
         d="M 4170.9,2649.02 C 4170.9,1726.2 3422.81,978.121 2500,978.121 c -922.81,0 -1670.902,748.079 -1670.902,1670.899 0,922.81 748.092,1670.9 1670.902,1670.9 922.81,0 1670.9,-748.09 1670.9,-1670.9" /><path
         id="path18"
         style="fill:#a1dec6;fill-opacity:1;fill-rule:nonzero;stroke:none"
         d="m 2500,978.121 c 798.54,0 1466.13,560.209 1631.48,1309.039 -407.53,204.49 -965.66,330.63 -1581.44,330.63 -661.85,0 -1257.2,-145.67 -1670.435,-377.77 C 1062.06,1514.94 1718.3,978.121 2500,978.121" /><path
         id="path20"
         style="fill:#44a680;fill-opacity:1;fill-rule:nonzero;stroke:none"
         d="m 1435.3,1622.06 c -0.31,1.04 72.52,73.79 186.14,78.05 54.72,2.42 109.68,-9.48 153.4,-21.22 -78.91,42.45 -152.97,92.05 -221.47,147.85 -21.64,-18.53 -80.47,-63.19 -166.31,-52.41 -111.26,13.02 -210.76,122.5 -209.23,122.68 -0.08,0.96 81.79,51.94 185.36,31.81 48.57,-9.11 94.15,-30.7 130.21,-50.33 -61.08,55.77 -117.04,116.76 -167.27,182.2 -22.74,-11.46 -78.69,-34.88 -145.2,-11.34 -88.49,30.53 -151.02,136.14 -149.96,136.08 0.07,0.7 76.74,29.8 159.01,-4.8 35.68,-14.77 67.28,-38.26 92.47,-59.79 -35.5,51.69 -67.59,105.81 -95.98,162.02 -21.79,-5.99 -70.58,-15.16 -120.76,13.33 -68.741,38.38 -105.987,134.09 -105.257,133.95 0.137,0.5 68.247,14.8 132.147,-25.92 25.44,-16.01 46.81,-37.85 63.94,-58.23 -16.85,37.94 -32.06,76.73 -45.55,116.27 -0.44,1.3 -0.5,2.58 -0.68,3.88 -21.51,20.14 -56.67,61.64 -69.99,118.16 -20.27,85.27 18.7,161.54 18.65,160.82 0.19,-0.58 53.95,-61.71 72.54,-139.22 12.31,-52.28 6.53,-102.9 1.75,-132 0.63,-1.12 1.37,-2.14 1.8,-3.43 13.25,-38.82 28.19,-76.91 44.73,-114.16 -3.51,25.94 -3.32,55.88 5.74,83.19 23.26,68.95 90.11,93.72 89.72,93.99 -0.26,-0.54 20.98,-75.04 1.9,-141.97 -14.48,-49.78 -49.86,-83.31 -67.97,-97.19 27.88,-55.2 59.38,-108.33 94.24,-159.1 -10.84,30.71 -18.14,68.62 -12.31,104.87 14.02,83.92 87.67,125 87.07,125.29 -0.22,-0.74 37.07,-80.36 28.28,-160.88 -7.12,-61.8 -42.67,-109.35 -60.15,-128.33 49.32,-64.25 104.27,-124.14 164.24,-178.91 -22.45,33.49 -43.28,78.45 -45.38,124.98 -3.81,99.7 72.33,164.03 71.43,164.28 -0.08,-1.01 59.26,-81.09 69.31,-175.04 7.46,-74.2 -21.94,-139.95 -36.47,-165.03 67.24,-54.79 139.98,-103.49 217.45,-145.17 -33.33,29.37 -68.44,72.09 -82.84,121.43 -29.21,102.99 34.72,188.45 33.61,188.51 0.17,-1.1 80.73,-69.29 115.93,-164.35 27.51,-75.97 14.33,-152.73 5.96,-181.96 31.02,-14.39 62.72,-27.71 95.05,-39.88 8.51,-3.2 13.53,-11.07 11.15,-17.68 -2.39,-6.61 -11.41,-9.4 -20.12,-6.12 -32.92,12.39 -65.2,25.95 -96.8,40.62 -17.16,-24.36 -66.93,-87.13 -161.28,-97.37 -121.09,-14.16 -253.99,76.98 -252.25,77.57" /><path
         id="path22"
         style="fill:#44a680;fill-opacity:1;fill-rule:nonzero;stroke:none"
         d="m 1596.13,2125.75 c -0.04,0.54 43.81,28.25 100.14,17.78 27.17,-4.87 52.88,-16.8 73.07,-27.41 -34.1,29.6 -65.02,62.18 -92.52,97.19 -12.69,-6.72 -46.56,-22.16 -87.56,-7.36 -53.26,18.71 -90.06,83.53 -89.29,83.45 0.06,0.48 45.95,16.49 94.64,-4.87 22.88,-9.85 42.89,-25.51 58.45,-39.15 -23.86,34.18 -44.62,70.36 -62.07,108.09 -12.45,-3.13 -42.55,-8.45 -72.65,10.48 -40.12,24.8 -59.18,83.64 -58.66,83.49 0.11,0.34 41.02,6.16 77.63,-19.95 15.92,-11.21 28.85,-26.25 38.85,-39.63 -11.73,29.35 -21.52,59.5 -29.26,90.27 -11.37,-0.53 -36.37,0.36 -57.89,19.92 -29.55,26.47 -37.27,77.65 -36.93,77.5 0.13,0.23 35.19,-0.28 62.1,-27.37 10.74,-10.68 18.83,-23.78 24.99,-35.7 -4.08,20.52 -7.27,41.27 -9.53,62.2 -0.07,0.69 0.04,1.33 0.1,1.99 -8.35,12.28 -21.04,36.57 -21.34,65.83 -0.53,44.16 27.07,77.35 26.96,77 0.03,-0.31 19.7,-36.31 20.27,-76.47 0.26,-27.06 -8.18,-51.31 -13.75,-65.09 0.19,-0.62 0.43,-1.2 0.51,-1.89 2.21,-20.55 5.34,-40.92 9.35,-61.06 1.15,13.14 4.55,27.83 12.03,40.26 19.06,31.32 54.67,36.1 54.51,36.28 -0.19,-0.24 2.01,-39.22 -14.78,-70.01 -12.62,-22.87 -33.72,-35.44 -44.16,-40.26 7.59,-30.21 17.2,-59.82 28.73,-88.63 -1.94,16.29 -1.33,35.73 5.54,52.91 16.18,39.7 56.93,51.76 56.67,51.97 -0.19,-0.35 9.33,-43.61 -3.89,-82.23 -10.35,-29.59 -33.07,-49.04 -43.77,-56.43 17.14,-37.04 37.52,-72.57 60.95,-106.13 -7.33,18.95 -12.6,43.35 -8.49,66.46 9.16,49.44 53.71,72.64 53.29,72.86 -0.14,-0.49 20.17,-46.41 14.72,-93.71 -4.55,-37.31 -26.27,-66.38 -36.2,-77.1 27.01,-34.37 57.37,-66.37 90.85,-95.43 -13.14,18.14 -25.67,43.02 -27.29,68.87 -2.97,53.87 37.91,88.8 37.38,88.95 -0.04,-0.56 32.02,-42.99 38.81,-93.62 5.12,-40.39 -9.85,-76.67 -17.2,-90.12 13.66,-10.51 27.76,-20.55 42.31,-30.11 3.83,-2.52 5.43,-6.95 3.53,-9.94 -1.91,-2.97 -6.65,-3.35 -10.57,-0.78 -14.81,9.74 -29.18,19.97 -43.09,30.68 -11.14,-10.07 -42.55,-35.42 -90.07,-30.02 -61.09,6.43 -116.34,65.94 -115.42,66.04" /><path
         id="path24"
         style="fill:#44a680;fill-opacity:1;fill-rule:nonzero;stroke:none"
         d="m 3504.95,2141.7 c -0.05,0.71 -62.39,28.51 -133.77,4.22 -34.46,-11.48 -65.68,-31.87 -89.98,-49.5 38.81,44.99 72.93,93.26 102.12,144.05 17.79,-6.34 64.81,-20.06 115.42,6.96 65.82,34.45 101.48,125.82 100.5,125.58 -0.18,0.6 -62.96,12.76 -122.34,-24.25 -27.92,-17.15 -51.02,-41.33 -68.71,-62.03 24.61,49.02 44.82,100.06 60.41,152.49 16.8,-1.71 57.01,-2.95 92.61,27.38 47.57,39.89 61.27,120.11 60.63,119.83 -0.22,0.42 -54.59,0.26 -97.34,-40.67 -18.6,-17.6 -32.61,-39.63 -43.1,-58.94 9.73,40.43 16.77,81.55 21.03,123.09 14.92,1.45 47.32,7.34 71.63,36.88 33.48,40.06 33.86,108.16 33.44,107.9 -0.21,0.28 -45.77,-7.01 -75.69,-47.37 -11.97,-15.95 -20.02,-34.54 -25.79,-51.22 1.43,27.49 1.66,55.12 0.65,82.8 -0.04,0.91 -0.31,1.73 -0.51,2.56 8.55,17.58 20.49,51.61 15.34,89.77 -7.65,57.61 -49.87,95.62 -49.66,95.18 0.02,-0.41 -18.78,-51 -11.93,-103.41 4.77,-35.3 20.34,-65.28 30.21,-82.16 -0.14,-0.85 -0.34,-1.66 -0.32,-2.56 1,-27.18 0.79,-54.31 -0.63,-81.3 -3.97,16.89 -11.19,35.39 -23.27,50.16 -30.75,37.19 -78.03,36.68 -77.85,36.94 0.29,-0.27 4.8,-51.44 32.48,-88.37 20.76,-27.39 50.61,-39.77 65.12,-44.08 -4.18,-40.79 -11.09,-81.17 -20.65,-120.86 -0.57,21.58 -5.03,46.79 -17.23,67.85 -28.57,48.66 -83.92,56.64 -83.62,56.97 0.31,-0.41 -3.92,-58.56 20.62,-106.34 19.06,-36.58 52.34,-57.61 67.66,-65.22 -15.31,-51.48 -35.15,-101.6 -59.31,-149.73 5.97,26.06 8.22,58.84 -1.51,88.16 -21.28,62.65 -83.68,84.43 -83.18,84.81 0.29,-0.61 -17.47,-64.27 -1.44,-124.83 12.97,-47.73 46.76,-81.47 61.71,-93.56 -28.66,-49.88 -62.17,-97.27 -100.27,-141.45 13.69,26.1 25.3,60.87 22.53,94.85 -6.32,70.7 -66.17,108.47 -65.5,108.77 0.16,-0.72 -33.58,-62.05 -32.84,-129.25 0.97,-53.58 27.32,-97.99 39.43,-114.1 -15.79,-16.27 -32.27,-32.04 -49.4,-47.23 -4.52,-4.01 -5.77,-10.07 -2.72,-13.6 3.04,-3.53 9.3,-3.11 13.91,0.98 17.45,15.48 34.23,31.52 50.32,48.1 16.41,-11.02 62.1,-38.1 122.96,-22.07 78.34,19.93 139.05,107.87 137.83,107.82" /><path
         id="path26"
         style="fill:#337860;fill-opacity:1;fill-rule:nonzero;stroke:none"
         d="m 3788.7,1486.49 c 0.24,1.07 -77.08,69.03 -190.73,66.04 -54.77,-1.07 -108.87,-16.44 -151.75,-30.94 76.05,47.38 146.81,101.6 211.6,161.65 22.79,-17.11 84.34,-57.93 169.32,-41.71 110.2,20.09 202.53,135.68 200.99,135.76 0.02,0.96 -84.94,46.62 -187.02,19.94 -47.89,-12.18 -91.99,-36.64 -126.73,-58.53 57.41,59.56 109.37,124 155.33,192.5 23.41,-10 80.75,-29.8 145.62,-2.08 86.37,36.11 142.05,145.49 140.99,145.36 -0.12,0.7 -78.48,24.86 -158.38,-14.93 -34.67,-17 -64.71,-42.45 -88.48,-65.55 32.14,53.85 60.72,109.91 85.46,167.81 22.14,-4.6 71.42,-10.64 119.68,20.99 66.15,42.68 97.23,140.57 96.5,140.38 -0.16,0.5 -69.04,10.42 -130.22,-34.27 -24.37,-17.6 -44.31,-40.77 -60.1,-62.2 14.4,38.93 27.1,78.61 38.05,118.93 0.36,1.34 0.33,2.62 0.43,3.93 20.18,21.47 52.62,65.12 62.32,122.37 14.8,86.4 -28.95,160.03 -28.86,159.32 -0.14,-0.61 -49.91,-65.03 -63.52,-143.56 -8.95,-52.96 0.04,-103.12 6.67,-131.85 -0.57,-1.15 -1.23,-2.23 -1.58,-3.54 -10.76,-39.59 -23.24,-78.55 -37.37,-116.78 1.85,26.11 -0.25,55.98 -11.02,82.66 -27.61,67.33 -95.91,87.79 -95.54,88.09 0.3,-0.53 -16.15,-76.24 7.16,-141.81 17.62,-48.76 55.06,-79.96 74.01,-92.66 -24.3,-56.86 -52.35,-111.9 -83.91,-164.78 8.86,31.34 13.73,69.64 5.61,105.43 -19.34,82.87 -95.46,119.17 -94.88,119.5 0.26,-0.73 -31.88,-82.56 -17.97,-162.35 11.05,-61.22 49.54,-106.42 68.2,-124.24 -45.12,-67.26 -96.15,-130.54 -152.51,-189.01 20.27,34.85 38.2,81.04 37.33,127.61 -2.56,99.75 -82.64,159.1 -81.75,159.4 0.14,-1.01 -53.97,-84.71 -58.03,-179.09 -2.71,-74.54 30.81,-138.27 46.92,-162.39 -63.63,-58.95 -133.11,-112.18 -207.78,-158.72 31.41,31.45 63.72,76.31 74.95,126.47 22.59,104.65 -46.66,185.86 -45.55,185.98 -0.1,-1.11 -76.15,-74.28 -105.23,-171.39 -22.6,-77.58 -4.57,-153.34 5.65,-181.97 -30.04,-16.35 -60.83,-31.65 -92.32,-45.86 -8.29,-3.74 -12.8,-11.91 -10,-18.35 2.8,-6.46 12,-8.66 20.46,-4.84 32.07,14.47 63.43,30.05 94.03,46.7 18.68,-23.2 72.34,-82.68 167.15,-86.89 121.74,-6.42 248.57,93.01 246.8,93.47" /><path
         id="path28"
         style="fill:#44a680;fill-opacity:1;fill-rule:nonzero;stroke:none"
         d="m 1616.04,924.73 c -134.52,19.219 -265.19,99.93 -299.79,199.85 61.5,-46.11 172.96,-80.7 172.96,-80.7 0,0 -88.39,169.1 -334.38,242.13 211.39,-11.54 365.13,-172.95 365.13,-172.95 0,0 -119.14,122.98 -130.68,245.97 30.75,-69.18 130.68,-184.48 130.68,-184.48 0,0 15.37,42.28 -26.9,88.4 15.37,30.74 80.71,-65.34 80.71,-65.34 0,0 -34.6,242.14 -219.08,365.12 96.09,-23.05 272.89,-311.31 272.89,-311.31 0,0 -46.12,122.98 -3.85,226.76 26.9,-169.11 146.05,-238.3 146.05,-238.3 0,0 115.3,-219.07 -153.74,-315.15" /><path
         id="path30"
         style="fill:#44a680;fill-opacity:1;fill-rule:nonzero;stroke:none"
         d="m 3221.72,1131.48 c 65.54,196.64 218.47,428.21 318.96,485 -117.98,-209.72 -135.45,-323.33 -135.45,-323.33 0,0 205.37,187.89 310.23,493.74 -52.43,-332.07 -270.91,-537.43 -270.91,-537.43 0,0 227.22,135.45 353.93,100.5 -244.69,-83.02 -292.76,-266.53 -292.76,-266.53 0,0 104.88,4.36 174.78,117.97 13.11,-56.8 -83.02,-144.19 -83.02,-144.19 0,0 170.41,39.32 249.06,249.05 -17.48,-205.36 -218.47,-336.44 -218.47,-336.44 0,0 -353.92,-117.968 -406.35,161.66" /><path
         id="path32"
         style="fill:#c9c5bd;fill-opacity:1;fill-rule:nonzero;stroke:none"
         d="M 3342.24,1086.51 H 1725.65 v 1560.2 h 1616.59 v -1560.2" /><path
         id="path34"
         style="fill:#c9c5bd;fill-opacity:1;fill-rule:nonzero;stroke:none"
         d="m 3251.75,2507.74 c 0,-394.04 -319.44,-713.47 -713.47,-713.47 -394.03,0 -713.46,319.43 -713.46,713.47 0,394.03 319.43,713.46 713.46,713.46 394.03,0 713.47,-319.43 713.47,-713.46" /><path
         id="path36"
         style="fill:#ababa5;fill-opacity:1;fill-rule:nonzero;stroke:none"
         d="m 3203.93,2507.74 c 0,-367.63 -298.02,-665.65 -665.65,-665.65 -367.62,0 -665.64,298.02 -665.64,665.65 0,367.62 298.02,665.64 665.64,665.64 367.63,0 665.65,-298.02 665.65,-665.64" /><path
         id="path38"
         style="fill:#ababa5;fill-opacity:1;fill-rule:nonzero;stroke:none"
         d="M 3296.45,1086.51 H 1771.44 V 2599.76 H 3296.45 V 1086.51" /><path
         id="path40"
         style="fill:#8f918d;fill-opacity:1;fill-rule:nonzero;stroke:none"
         d="M 3073.2,1976.36 H 1995.83 v 34.24 H 3073.2 v -34.24" /><path
         id="path42"
         style="fill:#8f918d;fill-opacity:1;fill-rule:nonzero;stroke:none"
         d="M 3073.2,1832.56 H 1995.83 v 34.24 H 3073.2 v -34.24" /><path
         id="path44"
         style="fill:#8f918d;fill-opacity:1;fill-rule:nonzero;stroke:none"
         d="M 3073.2,1688.75 H 1995.83 v 34.24 H 3073.2 v -34.24" /><path
         id="path46"
         style="fill:#8f918d;fill-opacity:1;fill-rule:nonzero;stroke:none"
         d="M 3073.2,1544.95 H 1995.83 v 34.24 H 3073.2 v -34.24" /><path
         id="path48"
         style="fill:none;stroke:#747674;stroke-width:21.22340012;stroke-linecap:butt;stroke-linejoin:miter;stroke-miterlimit:10;stroke-dasharray:none;stroke-opacity:1"
         d="m 3167.59,2551.93 c -22.72,327.86 -295.69,586.82 -629.31,586.82 -333.62,0 -606.59,-258.96 -629.3,-586.82 h -89.35 v -1417.6 h 1428.62 v 1417.6 z" /><path
         id="path50"
         style="fill:#666968;fill-opacity:1;fill-rule:nonzero;stroke:none"
         d="m 3442.13,894.629 h -1810.9 c -17.87,0 -32.36,14.48 -32.36,32.351 v 249.6 c 0,17.87 14.49,32.36 32.36,32.36 h 1810.9 c 17.87,0 32.35,-14.49 32.35,-32.36 v -249.6 c 0,-17.871 -14.48,-32.351 -32.35,-32.351" /><path
         id="path52"
         style="fill:#939594;fill-opacity:1;fill-rule:nonzero;stroke:none"
         d="m 3442.13,1208.94 h -1810.9 c -17.87,0 -32.36,-14.49 -32.36,-32.36 v -23.54 c 0,17.86 14.49,32.35 32.36,32.35 h 1810.9 c 17.87,0 32.35,-14.49 32.35,-32.35 v 23.54 c 0,17.87 -14.48,32.36 -32.35,32.36" /><path
         id="path54"
         style="fill:#494b4c;fill-opacity:1;fill-rule:nonzero;stroke:none"
         d="M 3565.35,847.73 H 1512.44 c -17.87,0 -32.35,14.5 -32.35,32.36 v 93.601 c 0,17.868 14.48,32.349 32.35,32.349 h 2052.91 c 17.87,0 32.36,-14.481 32.36,-32.349 V 880.09 c 0,-17.86 -14.49,-32.36 -32.36,-32.36" /><path
         id="path56"
         style="fill:#939594;fill-opacity:1;fill-rule:nonzero;stroke:none"
         d="M 3565.35,1006.04 H 1512.44 c -17.87,0 -32.36,-14.481 -32.36,-32.349 v -16.632 c 0,17.871 14.49,32.351 32.36,32.351 h 2052.91 c 17.87,0 32.36,-14.48 32.36,-32.351 v 16.632 c 0,17.868 -14.49,32.349 -32.36,32.349" /><path
         id="path58"
         style="fill:#fffdd2;fill-opacity:1;fill-rule:nonzero;stroke:none"
         d="m 2445.37,1503.15 c 0,-55.28 -69.38,-100.1 -154.97,-100.1 -85.59,0 -154.97,44.82 -154.97,100.1 0,55.3 69.38,153.6 154.97,153.6 85.59,0 154.97,-98.3 154.97,-153.6" /><path
         id="path60"
         style="fill:#feebb3;fill-opacity:1;fill-rule:nonzero;stroke:none"
         d="m 2184.24,1604.38 c -30.03,-32.13 -48.81,-72.48 -48.81,-101.22 0,-55.29 69.38,-100.11 154.97,-100.11 85.58,0 154.97,44.82 154.97,100.11 0,13.8 -4.33,30.29 -12.15,47.25 -107.26,-28.46 -221.52,-10.28 -248.98,53.97" /><path
         id="path62"
         style="fill:#fffdd2;fill-opacity:1;fill-rule:nonzero;stroke:none"
         d="m 2320.57,1371.5 c 0,-55.28 -69.38,-100.1 -154.96,-100.1 -85.59,0 -154.97,44.82 -154.97,100.1 0,55.3 69.38,153.6 154.97,153.6 85.58,0 154.96,-98.3 154.96,-153.6" /><path
         id="path64"
         style="fill:#feebb3;fill-opacity:1;fill-rule:nonzero;stroke:none"
         d="m 2059.45,1472.73 c -30.03,-32.13 -48.81,-72.49 -48.81,-101.23 0,-55.28 69.38,-100.1 154.97,-100.1 85.58,0 154.96,44.82 154.96,100.1 0,13.81 -4.32,30.29 -12.15,47.25 -107.26,-28.46 -221.52,-10.28 -248.97,53.98" /><path
         id="path66"
         style="fill:#fffdd2;fill-opacity:1;fill-rule:nonzero;stroke:none"
         d="m 2608.55,1385.22 c 0,-55.29 -69.37,-100.11 -154.96,-100.11 -85.58,0 -154.96,44.82 -154.96,100.11 0,55.29 69.38,153.6 154.96,153.6 85.59,0 154.96,-98.31 154.96,-153.6" /><path
         id="path68"
         style="fill:#feebb3;fill-opacity:1;fill-rule:nonzero;stroke:none"
         d="m 2347.44,1486.45 c -30.03,-32.14 -48.81,-72.49 -48.81,-101.23 0,-55.29 69.38,-100.11 154.96,-100.11 85.59,0 154.96,44.82 154.96,100.11 0,13.8 -4.32,30.29 -12.13,47.25 -107.27,-28.46 -221.53,-10.28 -248.98,53.98" /><path
         id="path70"
         style="fill:#409a93;fill-opacity:1;fill-rule:nonzero;stroke:none"
         d="m 2598.02,1338.59 c -57.53,0 -519.1,0 -609.15,0 0,-43.16 48.32,-81.46 122.91,-105.4 h 363.33 c 74.59,23.94 122.91,62.24 122.91,105.4" /><path
         id="path72"
         style="fill:#247879;fill-opacity:1;fill-rule:nonzero;stroke:none"
         d="m 2498.5,1241 h -410.11 c -9.04,0 -16.37,-7.34 -16.37,-16.38 0,-9.04 7.33,-16.38 16.37,-16.38 h 410.11 c 9.04,0 16.37,7.34 16.37,16.38 0,9.04 -7.33,16.38 -16.37,16.38" /><path
         id="path74"
         style="fill:#247879;fill-opacity:1;fill-rule:nonzero;stroke:none"
         d="m 2618.57,1365.26 h -648.69 c -9.05,0 -16.37,-7.33 -16.37,-16.37 0,-9.05 7.32,-16.37 16.37,-16.37 h 648.69 c 9.05,0 16.38,7.32 16.38,16.37 0,9.04 -7.33,16.37 -16.38,16.37" /><path
         id="path76"
         style="fill:#ffffff;fill-opacity:1;fill-rule:nonzero;stroke:none"
         d="m 1993.85,3306.02 h -413.49 c -14,0 -27.19,7.22 -34.15,19.37 -4.08,7.12 -7.04,16.26 -7.04,27.78 0,4.39 0.43,8.42 1.19,12.11 3.77,18.29 20.18,31.21 38.86,31.21 h 151.13 c 17.98,0 33.67,13.57 34.84,31.51 1.27,19.66 -14.3,36 -33.69,36 H 730.395 c -17.977,0 -33.676,-13.56 -34.832,-31.5 -1.278,-19.66 14.292,-36.01 33.679,-36.01 h 321.688 c 24.04,0 44.14,-19.1 44.38,-43.14 0,-0.24 0.01,-0.49 0.01,-0.74 0,-2.71 -0.15,-5.28 -0.42,-7.71 -2.47,-22.25 -21.67,-38.88 -44.06,-38.88 h -56.945 c -17.977,0 -33.676,-13.56 -34.832,-31.5 -1.274,-19.67 14.292,-36.01 33.679,-36.01 H 1995 c 19.39,0 34.96,16.34 33.69,36.01 -1.16,17.94 -16.86,31.5 -34.84,31.5" /><path
         id="path78"
         style="fill:#b7e7e4;fill-opacity:1;fill-rule:nonzero;stroke:none"
         d="m 4618.91,3110.87 h -363.82 c -12.32,0 -23.93,6.35 -30.05,17.04 -3.59,6.27 -6.19,14.31 -6.19,24.44 0,3.87 0.38,7.42 1.04,10.66 3.31,16.09 17.76,27.46 34.19,27.46 h 132.98 c 15.82,0 29.63,11.94 30.65,27.73 1.13,17.29 -12.57,31.67 -29.63,31.67 h -880.85 c -15.82,0 -29.64,-11.93 -30.66,-27.72 -1.12,-17.3 12.58,-31.68 29.64,-31.68 h 283.05 c 21.14,0 38.84,-16.81 39.04,-37.96 0.01,-0.21 0.01,-0.43 0.01,-0.65 0,-2.38 -0.13,-4.64 -0.37,-6.78 -2.18,-19.58 -19.06,-34.21 -38.76,-34.21 h -50.11 c -15.82,0 -29.63,-11.94 -30.65,-27.73 -1.13,-17.29 12.58,-31.67 29.64,-31.67 h 881.86 c 17.06,0 30.76,14.38 29.64,31.67 -1.02,15.79 -14.83,27.73 -30.65,27.73" /><path
         id="path80"
         style="fill:#ffffff;fill-opacity:1;fill-rule:nonzero;stroke:none"
         d="m 3973.77,3610.47 h -437.22 c -17.24,0 -31.78,13.57 -32.17,30.82 -0.01,0.35 -0.01,0.7 -0.01,1.06 0,1.39 0.06,2.74 0.18,4.04 1.42,16.26 15.64,28.43 31.96,28.43 h 20.45 c 23.26,0 43.57,17.55 45.07,40.76 1.65,25.43 -18.49,46.57 -43.56,46.57 h -89.71 c -7.72,0 -15.23,2.68 -21,7.78 -10.92,9.66 -23.25,26.47 -23.25,53.21 0,21.06 7.63,35.59 16.21,45.28 6.1,6.88 14.87,10.77 24.06,10.77 h 248.57 c 23.25,0 43.56,17.55 45.07,40.76 1.65,25.43 -18.5,46.57 -43.58,46.57 H 2929.7 c -23.26,0 -43.57,-17.55 -45.07,-40.76 -1.65,-25.43 18.49,-46.57 43.57,-46.57 h 68.43 c 9.32,0 18.26,-3.94 24.3,-11.04 8.2,-9.64 15.3,-24.2 15.3,-45.74 0,-27.49 -11.57,-43.73 -22.24,-52.87 -5.68,-4.88 -13.02,-7.39 -20.52,-7.39 h -220.16 c -23.25,0 -43.56,-17.55 -45.07,-40.76 -1.64,-25.43 18.5,-46.57 43.58,-46.57 h 448.45 c 16.43,0 30.66,-12.32 32,-28.7 0.11,-1.35 0.17,-2.75 0.17,-4.21 0,-0.16 0,-0.32 -0.01,-0.48 -0.15,-17.3 -14.85,-30.96 -32.16,-30.96 h -30.16 c -23.25,0 -43.57,-17.55 -45.06,-40.76 -1.65,-25.43 18.48,-46.58 43.56,-46.58 h 786.65 c 25.08,0 45.22,21.15 43.58,46.58 -1.51,23.21 -21.82,40.76 -45.07,40.76" /><path
         id="path82"
         style="fill:#b7e7e4;fill-opacity:1;fill-rule:nonzero;stroke:none"
         d="m 973.785,3959.36 h 405.405 c 12.05,0 22.21,9.48 22.47,21.53 0.01,0.24 0.01,0.49 0.01,0.74 0,0.97 -0.04,1.91 -0.12,2.82 -1,11.36 -10.92,19.86 -22.33,19.86 h -114.3 c -16.24,0 -30.43,12.26 -31.48,28.47 -1.15,17.77 12.92,32.53 30.44,32.53 h 162.66 c 5.39,0 10.63,1.87 14.67,5.44 7.63,6.74 16.24,18.48 16.24,37.16 0,14.72 -5.33,24.86 -11.32,31.63 -4.26,4.81 -10.39,7.53 -16.81,7.53 h -273.63 c -16.25,0 -30.43,12.26 -31.48,28.47 -1.15,17.76 12.91,32.53 30.43,32.53 h 748.46 c 16.24,0 30.43,-12.26 31.48,-28.48 1.14,-17.76 -12.92,-32.52 -30.44,-32.52 h -47.8 c -6.51,0 -12.76,-2.75 -16.97,-7.71 -5.73,-6.74 -10.69,-16.91 -10.69,-31.95 0,-19.21 8.08,-30.55 15.53,-36.94 3.97,-3.4 9.1,-5.16 14.33,-5.16 h 153.79 c 16.24,0 30.43,-12.26 31.48,-28.47 1.15,-17.76 -12.92,-32.53 -30.44,-32.53 h -313.25 c -11.47,0 -21.41,-8.61 -22.35,-20.05 -0.07,-0.94 -0.11,-1.92 -0.11,-2.94 0,-0.11 0,-0.22 0,-0.33 0.1,-12.09 10.37,-21.63 22.46,-21.63 h 21.07 c 16.25,0 30.43,-12.26 31.48,-28.47 1.15,-17.76 -12.92,-32.54 -30.43,-32.54 H 972.738 c -17.519,0 -31.586,14.78 -30.437,32.54 1.051,16.21 15.234,28.47 31.484,28.47" /><path
         id="path84"
         style="fill:#ffffff;fill-opacity:1;fill-rule:nonzero;stroke:none"
         d="m 2271.35,3674.82 c -25.08,0 -45.22,21.14 -43.57,46.57 1.5,23.21 21.81,40.76 45.07,40.76 h 177.45 c 25.08,0 45.22,-21.14 43.58,-46.57 -1.51,-23.21 -21.81,-40.76 -45.07,-40.76 h -177.46" /><g
         transform="scale(10)"
         id="g86"><text
           id="text90"
           style="font-variant:normal;font-weight:900;font-size:26.66489983px;font-family:Poppins;-inkscape-font-specification:Poppins-Black;writing-mode:lr-tb;fill:#409a93;fill-opacity:1;fill-rule:nonzero;stroke:none"
           transform="matrix(1,0,0,-1,169.369,56.191)"><tspan
             id="tspan88"
             y="0"
             x="0 20.078108 40.210106 48.796204 69.568161 89.620171 94.153198 119.51152 128.09761 148.86957">CHING MING</tspan></text>
</g><path
         id="path92"
         style="fill:#1d6162;fill-opacity:1;fill-rule:nonzero;stroke:none"
         d="M 3145.34,350.172 H 1970.57 V 524.93 H 3145.34 V 350.172" /><g
         transform="scale(10)"
         id="g94"><text
           id="text98"
           style="font-variant:normal;font-weight:900;font-size:15.89780045px;font-family:Poppins;-inkscape-font-specification:Poppins-Black;writing-mode:lr-tb;fill:#ffffff;fill-opacity:1;fill-rule:nonzero;stroke:none"
           transform="matrix(1,0,0,-1,207.915,38.2422)"><tspan
             id="tspan96"
             y="0"
             x="0 12.320286 24.339787 37.454994 50.427696 58.726521 74.036102 89.503914">FESTIVAL</tspan></text>
</g><path
         id="path100"
         style="fill:#f47227;fill-opacity:1;fill-rule:nonzero;stroke:none"
         d="m 2904.43,1669.36 h -4.67 v 34.29 h 4.67 v -34.29" /><path
         id="path102"
         style="fill:#fbbf3c;fill-opacity:1;fill-rule:nonzero;stroke:none"
         d="m 2923.78,1291.78 h -43.25 V 1677 h 43.25 v -385.22" /><path
         id="path104"
         style="fill:#fbf673;fill-opacity:1;fill-rule:nonzero;stroke:none"
         d="m 2914.6,1841.74 c -42.03,-31.82 -51.33,-97.44 -43.74,-118.64 4.67,-13.05 14.42,-19.83 25.88,-21.63 9.65,-1.51 20.4,0.29 29.28,7.89 19.86,17.01 7.1,46.62 -10.6,76.56 -9.71,16.4 -9.78,43.33 -0.82,55.82" /><path
         id="path106"
         style="fill:#fbbf3c;fill-opacity:1;fill-rule:nonzero;stroke:none"
         d="m 2898.91,1798.29 c -19,-27.1 -25.58,-72.73 -11.87,-90.45 10.38,-13.43 33.9,-6.03 36.17,11.69 1.69,13.11 -4.01,25.35 -11.14,36.21 -15.44,23.56 -13.16,42.55 -13.16,42.55" /><path
         id="path108"
         style="fill:#f47227;fill-opacity:1;fill-rule:nonzero;stroke:none"
         d="m 2895.77,1754.55 c -15.28,-27.43 -7.75,-53.8 6.7,-53.54 14.76,0.26 12.2,17.65 5.58,25.97 -7.05,8.89 -11.62,13.46 -12.28,27.57" /><path
         id="path110"
         style="fill:#f47227;fill-opacity:1;fill-rule:nonzero;stroke:none"
         d="m 3061.2,1243.73 h -318.09 c -13.5,0 -24.44,-10.94 -24.44,-24.43 v -10.36 h 366.96 v 10.36 c 0,13.49 -10.93,24.43 -24.43,24.43" /><path
         id="path112"
         style="fill:#f47227;fill-opacity:1;fill-rule:nonzero;stroke:none"
         d="m 2936.46,1239.16 h -68.62 v 68.62 h 68.62 v -68.62" /><path
         id="path114"
         style="fill:#747674;fill-opacity:1;fill-rule:nonzero;stroke:none"
         d="m 2905.53,2458.72 c 0,-193.41 -156.78,-350.19 -350.19,-350.19 -193.4,0 -350.19,156.78 -350.19,350.19 0,193.4 156.79,350.19 350.19,350.19 193.41,0 350.19,-156.79 350.19,-350.19" /><path
         id="path116"
         style="fill:#c9c5bd;fill-opacity:1;fill-rule:nonzero;stroke:none"
         d="m 2871.47,2458.72 c 0,-174.6 -141.54,-316.13 -316.13,-316.13 -174.59,0 -316.13,141.53 -316.13,316.13 0,174.59 141.54,316.12 316.13,316.12 174.59,0 316.13,-141.53 316.13,-316.12" /><path
         id="path118"
         style="fill:#ababa5;fill-opacity:1;fill-rule:nonzero;stroke:none"
         d="m 2677.79,2484.4 c 0,-67.62 -54.82,-122.45 -122.45,-122.45 -67.63,0 -122.44,54.83 -122.44,122.45 0,67.63 54.81,122.45 122.44,122.45 67.63,0 122.45,-54.82 122.45,-122.45" /><path
         id="path120"
         style="fill:#ababa5;fill-opacity:1;fill-rule:nonzero;stroke:none"
         d="m 2555.34,2393.96 c -91.5,0 -168.82,-60.55 -194.19,-143.74 53.6,-41.81 120.96,-66.78 194.19,-66.78 73.23,0 140.6,24.97 194.19,66.78 -25.37,83.19 -102.68,143.74 -194.19,143.74" /><path
         id="path122"
         style="fill:#fbc409;fill-opacity:1;fill-rule:nonzero;stroke:none"
         d="m 4252.2,1608.52 c 0,-20.87 -29.35,-187.24 -29.35,-187.24 0,0 -29.33,166.37 -29.33,187.24 0,20.86 13.13,37.78 29.33,37.78 16.2,0 29.35,-16.92 29.35,-37.78" /><path
         id="path124"
         style="fill:#fbc409;fill-opacity:1;fill-rule:nonzero;stroke:none"
         d="m 4252.2,1164.74 c 0,20.87 -29.35,187.22 -29.35,187.22 0,0 -29.33,-166.35 -29.33,-187.22 0,-20.87 13.13,-37.8 29.33,-37.8 16.2,0 29.35,16.93 29.35,37.8" /><path
         id="path126"
         style="fill:#fbc409;fill-opacity:1;fill-rule:nonzero;stroke:none"
         d="m 4444.74,1357.29 c -20.87,0 -187.23,29.33 -187.23,29.33 0,0 166.36,29.35 187.23,29.35 20.87,0 37.79,-13.14 37.79,-29.35 0,-16.2 -16.92,-29.33 -37.79,-29.33" /><path
         id="path128"
         style="fill:#fbc409;fill-opacity:1;fill-rule:nonzero;stroke:none"
         d="m 4000.97,1357.29 c 20.87,0 187.22,29.33 187.22,29.33 0,0 -166.35,29.35 -187.22,29.35 -20.87,0 -37.8,-13.14 -37.8,-29.35 0,-16.2 16.93,-29.33 37.8,-29.33" /><path
         id="path130"
         style="fill:#fbc409;fill-opacity:1;fill-rule:nonzero;stroke:none"
         d="m 4439.21,1443.93 c -19.3,-7.95 -184.31,-44.12 -184.31,-44.12 0,0 142.69,90.43 161.98,98.38 19.3,7.94 39.95,2.23 46.12,-12.76 6.16,-14.98 -4.48,-33.56 -23.79,-41.5" /><path
         id="path132"
         style="fill:#fbc409;fill-opacity:1;fill-rule:nonzero;stroke:none"
         d="m 4028.82,1275.06 c 19.3,7.94 161.98,98.38 161.98,98.38 0,0 -165.01,-36.17 -184.31,-44.11 -19.3,-7.94 -29.95,-26.54 -23.78,-41.52 6.17,-14.98 26.81,-20.69 46.11,-12.75" /><path
         id="path134"
         style="fill:#fbc409;fill-opacity:1;fill-rule:nonzero;stroke:none"
         d="m 4280.16,1170.26 c -7.95,19.3 -44.12,184.31 -44.12,184.31 0,0 90.43,-142.68 98.38,-161.97 7.94,-19.31 2.23,-39.95 -12.76,-46.12 -14.98,-6.17 -33.56,4.48 -41.5,23.78" /><path
         id="path136"
         style="fill:#fbc409;fill-opacity:1;fill-rule:nonzero;stroke:none"
         d="m 4111.29,1580.65 c 7.94,-19.29 98.38,-161.97 98.38,-161.97 0,0 -36.17,165 -44.11,184.31 -7.94,19.3 -26.54,29.94 -41.52,23.78 -14.99,-6.16 -20.69,-26.81 -12.75,-46.12" /><path
         id="path138"
         style="fill:#fbc409;fill-opacity:1;fill-rule:nonzero;stroke:none"
         d="m 4088.55,1565.67 c 14.6,-14.91 110.05,-154.28 110.05,-154.28 0,0 -137.37,98.32 -151.97,113.22 -14.6,14.91 -17.06,36.19 -5.48,47.53 11.57,11.34 32.8,8.45 47.4,-6.47" /><path
         id="path140"
         style="fill:#fbc409;fill-opacity:1;fill-rule:nonzero;stroke:none"
         d="m 4399.07,1248.63 c -14.6,14.91 -151.96,113.24 -151.96,113.24 0,0 95.44,-139.39 110.04,-154.3 14.61,-14.9 35.83,-17.8 47.4,-6.47 11.58,11.34 9.13,32.62 -5.48,47.53" /><path
         id="path142"
         style="fill:#fbc409;fill-opacity:1;fill-rule:nonzero;stroke:none"
         d="m 4401.9,1520.92 c -14.91,-14.6 -154.28,-110.04 -154.28,-110.04 0,0 98.31,137.36 113.22,151.96 14.91,14.61 36.19,17.06 47.53,5.48 11.34,-11.57 8.45,-32.79 -6.47,-47.4" /><path
         id="path144"
         style="fill:#fbc409;fill-opacity:1;fill-rule:nonzero;stroke:none"
         d="m 4084.86,1210.4 c 14.92,14.61 113.24,151.97 113.24,151.97 0,0 -139.39,-95.44 -154.3,-110.05 -14.9,-14.6 -17.8,-35.82 -6.47,-47.4 11.34,-11.58 32.62,-9.12 47.53,5.48" /><path
         id="path146"
         style="fill:#fbc409;fill-opacity:1;fill-rule:nonzero;stroke:none"
         d="m 4337.33,1578.95 c -8.23,-19.17 -100.81,-160.47 -100.81,-160.47 0,0 38.66,164.44 46.89,183.62 8.23,19.17 26.97,29.54 41.86,23.15 14.9,-6.39 20.3,-27.13 12.06,-46.3" /><path
         id="path148"
         style="fill:#fbc409;fill-opacity:1;fill-rule:nonzero;stroke:none"
         d="m 4162.29,1171.15 c 8.24,19.18 46.89,183.63 46.89,183.63 0,0 -92.58,-141.3 -100.81,-160.48 -8.22,-19.18 -2.83,-39.92 12.06,-46.3 14.89,-6.39 33.63,3.97 41.86,23.15" /><path
         id="path150"
         style="fill:#fbc409;fill-opacity:1;fill-rule:nonzero;stroke:none"
         d="m 4415.18,1272.15 c -19.17,8.23 -160.48,100.8 -160.48,100.8 0,0 164.45,-38.65 183.63,-46.89 19.17,-8.23 29.54,-26.97 23.14,-41.86 -6.38,-14.89 -27.11,-20.28 -46.29,-12.05" /><path
         id="path152"
         style="fill:#fbc409;fill-opacity:1;fill-rule:nonzero;stroke:none"
         d="m 4007.38,1447.18 c 19.18,-8.23 183.63,-46.89 183.63,-46.89 0,0 -141.3,92.58 -160.48,100.81 -19.18,8.24 -39.92,2.84 -46.3,-12.06 -6.4,-14.89 3.97,-33.63 23.15,-41.86" /><path
         id="path154"
         style="fill:#c75b1d;fill-opacity:1;fill-rule:nonzero;stroke:none"
         d="m 4222.85,1413.34 c -14.83,0 -26.9,-12.07 -26.9,-26.9 0,-14.84 12.07,-26.91 26.9,-26.91 14.84,0 26.91,12.07 26.91,26.91 0,14.83 -12.07,26.9 -26.91,26.9 z m 0,-57.52 c -16.87,0 -30.61,13.74 -30.61,30.62 0,16.88 13.74,30.61 30.61,30.61 16.89,0 30.62,-13.73 30.62,-30.61 0,-16.88 -13.73,-30.62 -30.62,-30.62" /><path
         id="path156"
         style="fill:#c75b1d;fill-opacity:1;fill-rule:nonzero;stroke:none"
         d="m 4239.23,1386.44 c 0,-9.05 -7.34,-16.37 -16.38,-16.37 -9.04,0 -16.37,7.32 -16.37,16.37 0,9.04 7.33,16.37 16.37,16.37 9.04,0 16.38,-7.33 16.38,-16.37" /><path
         id="path158"
         style="fill:#fbc409;fill-opacity:1;fill-rule:nonzero;stroke:none"
         d="m 914.199,1530.31 c 0,-9.68 -13.597,-86.76 -13.597,-86.76 0,0 -13.594,77.08 -13.594,86.76 0,9.67 6.082,17.51 13.594,17.51 7.507,0 13.597,-7.84 13.597,-17.51" /><path
         id="path160"
         style="fill:#fbc409;fill-opacity:1;fill-rule:nonzero;stroke:none"
         d="m 914.199,1324.68 c 0,9.68 -13.597,86.76 -13.597,86.76 0,0 -13.594,-77.08 -13.594,-86.76 0,-9.67 6.082,-17.51 13.594,-17.51 7.507,0 13.597,7.84 13.597,17.51" /><path
         id="path162"
         style="fill:#fbc409;fill-opacity:1;fill-rule:nonzero;stroke:none"
         d="m 1003.41,1413.9 c -9.664,0 -86.75,13.6 -86.75,13.6 0,0 77.086,13.59 86.75,13.59 9.68,0 17.52,-6.09 17.52,-13.59 0,-7.51 -7.84,-13.6 -17.52,-13.6" /><path
         id="path164"
         style="fill:#fbc409;fill-opacity:1;fill-rule:nonzero;stroke:none"
         d="m 797.789,1413.9 c 9.668,0 86.754,13.6 86.754,13.6 0,0 -77.086,13.59 -86.754,13.59 -9.676,0 -17.512,-6.09 -17.512,-13.59 0,-7.51 7.836,-13.6 17.512,-13.6" /><path
         id="path166"
         style="fill:#fbc409;fill-opacity:1;fill-rule:nonzero;stroke:none"
         d="m 1000.85,1454.04 c -8.936,-3.68 -85.397,-20.44 -85.397,-20.44 0,0 66.113,41.91 75.055,45.59 8.945,3.68 18.512,1.03 21.372,-5.91 2.85,-6.94 -2.08,-15.56 -11.03,-19.24" /><path
         id="path168"
         style="fill:#fbc409;fill-opacity:1;fill-rule:nonzero;stroke:none"
         d="m 810.691,1375.8 c 8.95,3.68 75.063,45.59 75.063,45.59 0,0 -76.461,-16.76 -85.406,-20.44 -8.942,-3.68 -13.879,-12.3 -11.016,-19.24 2.856,-6.94 12.422,-9.59 21.359,-5.91" /><path
         id="path170"
         style="fill:#fbc409;fill-opacity:1;fill-rule:nonzero;stroke:none"
         d="m 927.152,1327.25 c -3.679,8.93 -20.437,85.4 -20.437,85.4 0,0 41.902,-66.12 45.582,-75.06 3.68,-8.95 1.031,-18.51 -5.91,-21.37 -6.946,-2.85 -15.559,2.08 -19.235,11.03" /><path
         id="path172"
         style="fill:#fbc409;fill-opacity:1;fill-rule:nonzero;stroke:none"
         d="m 848.906,1517.4 c 3.684,-8.94 45.586,-75.06 45.586,-75.06 0,0 -16.762,76.47 -20.437,85.4 -3.684,8.95 -12.297,13.88 -19.242,11.03 -6.942,-2.86 -9.586,-12.42 -5.907,-21.37" /><path
         id="path174"
         style="fill:#fbc409;fill-opacity:1;fill-rule:nonzero;stroke:none"
         d="m 838.375,1510.46 c 6.766,-6.91 50.988,-71.5 50.988,-71.5 0,0 -63.648,45.56 -70.414,52.48 -6.765,6.9 -7.902,16.76 -2.543,22.02 5.367,5.25 15.199,3.91 21.969,-3" /><path
         id="path176"
         style="fill:#fbc409;fill-opacity:1;fill-rule:nonzero;stroke:none"
         d="m 982.258,1363.55 c -6.77,6.92 -70.418,52.48 -70.418,52.48 0,0 44.223,-64.59 50.992,-71.5 6.762,-6.91 16.598,-8.25 21.965,-3 5.359,5.26 4.226,15.12 -2.539,22.02" /><path
         id="path178"
         style="fill:#fbc409;fill-opacity:1;fill-rule:nonzero;stroke:none"
         d="m 983.563,1489.73 c -6.903,-6.77 -71.489,-51 -71.489,-51 0,0 45.559,63.65 52.469,70.42 6.906,6.77 16.766,7.9 22.02,2.54 5.253,-5.36 3.91,-15.2 -3,-21.96" /><path
         id="path180"
         style="fill:#fbc409;fill-opacity:1;fill-rule:nonzero;stroke:none"
         d="m 836.66,1345.84 c 6.91,6.77 52.473,70.42 52.473,70.42 0,0 -64.586,-44.23 -71.496,-51 -6.91,-6.76 -8.25,-16.6 -2.996,-21.96 5.254,-5.36 15.117,-4.23 22.019,2.54" /><path
         id="path182"
         style="fill:#fbc409;fill-opacity:1;fill-rule:nonzero;stroke:none"
         d="m 953.648,1516.61 c -3.812,-8.89 -46.714,-74.35 -46.714,-74.35 0,0 17.914,76.19 21.722,85.07 3.821,8.89 12.504,13.7 19.407,10.74 6.898,-2.96 9.398,-12.57 5.585,-21.46" /><path
         id="path184"
         style="fill:#fbc409;fill-opacity:1;fill-rule:nonzero;stroke:none"
         d="m 872.543,1327.66 c 3.812,8.88 21.727,85.07 21.727,85.07 0,0 -42.899,-65.46 -46.715,-74.35 -3.809,-8.89 -1.309,-18.5 5.59,-21.46 6.898,-2.96 15.585,1.85 19.398,10.74" /><path
         id="path186"
         style="fill:#fbc409;fill-opacity:1;fill-rule:nonzero;stroke:none"
         d="m 989.719,1374.45 c -8.891,3.81 -74.36,46.71 -74.36,46.71 0,0 76.2,-17.91 85.081,-21.73 8.89,-3.81 13.69,-12.5 10.73,-19.39 -2.96,-6.91 -12.565,-9.41 -21.451,-5.59" /><path
         id="path188"
         style="fill:#fbc409;fill-opacity:1;fill-rule:nonzero;stroke:none"
         d="m 800.762,1455.56 c 8.886,-3.82 85.082,-21.73 85.082,-21.73 0,0 -65.473,42.9 -74.36,46.71 -8.886,3.82 -18.492,1.32 -21.457,-5.59 -2.957,-6.89 1.848,-15.58 10.735,-19.39" /><path
         id="path190"
         style="fill:#c75b1d;fill-opacity:1;fill-rule:nonzero;stroke:none"
         d="m 900.602,1439.87 c -6.875,0 -12.465,-5.58 -12.465,-12.46 0,-6.87 5.59,-12.47 12.465,-12.47 6.875,0 12.464,5.6 12.464,12.47 0,6.88 -5.589,12.46 -12.464,12.46 z m 0,-26.65 c -7.825,0 -14.184,6.37 -14.184,14.19 0,7.82 6.359,14.18 14.184,14.18 7.82,0 14.183,-6.36 14.183,-14.18 0,-7.82 -6.363,-14.19 -14.183,-14.19" /><path
         id="path192"
         style="fill:#c75b1d;fill-opacity:1;fill-rule:nonzero;stroke:none"
         d="m 908.188,1427.41 c 0,-4.19 -3.399,-7.59 -7.586,-7.59 -4.192,0 -7.582,3.4 -7.582,7.59 0,4.19 3.39,7.58 7.582,7.58 4.187,0 7.586,-3.39 7.586,-7.58" /><path
         id="path194"
         style="fill:#fbc409;fill-opacity:1;fill-rule:nonzero;stroke:none"
         d="m 3986.87,821.52 c 0,-9.661 -13.59,-86.739 -13.59,-86.739 0,0 -13.59,77.078 -13.59,86.739 0,9.679 6.08,17.511 13.59,17.511 7.51,0 13.59,-7.832 13.59,-17.511" /><path
         id="path196"
         style="fill:#fbc409;fill-opacity:1;fill-rule:nonzero;stroke:none"
         d="m 3986.87,615.898 c 0,9.672 -13.59,86.762 -13.59,86.762 0,0 -13.59,-77.09 -13.59,-86.762 0,-9.668 6.08,-17.507 13.59,-17.507 7.51,0 13.59,7.839 13.59,17.507" /><path
         id="path198"
         style="fill:#fbc409;fill-opacity:1;fill-rule:nonzero;stroke:none"
         d="m 4076.09,705.121 c -9.66,0 -86.74,13.59 -86.74,13.59 0,0 77.08,13.59 86.74,13.59 9.67,0 17.51,-6.082 17.51,-13.59 0,-7.512 -7.84,-13.59 -17.51,-13.59" /><path
         id="path200"
         style="fill:#fbc409;fill-opacity:1;fill-rule:nonzero;stroke:none"
         d="m 3870.47,705.121 c 9.67,0 86.76,13.59 86.76,13.59 0,0 -77.09,13.59 -86.76,13.59 -9.67,0 -17.51,-6.082 -17.51,-13.59 0,-7.512 7.84,-13.59 17.51,-13.59" /><path
         id="path202"
         style="fill:#fbc409;fill-opacity:1;fill-rule:nonzero;stroke:none"
         d="m 4073.53,745.262 c -8.94,-3.68 -85.4,-20.442 -85.4,-20.442 0,0 66.12,41.91 75.05,45.59 8.95,3.68 18.52,1.039 21.37,-5.918 2.86,-6.941 -2.07,-15.543 -11.02,-19.23" /><path
         id="path204"
         style="fill:#fbc409;fill-opacity:1;fill-rule:nonzero;stroke:none"
         d="m 3883.38,667.02 c 8.93,3.671 75.05,45.582 75.05,45.582 0,0 -76.46,-16.762 -85.4,-20.442 -8.95,-3.668 -13.88,-12.289 -11.02,-19.23 2.85,-6.938 12.42,-9.59 21.37,-5.91" /><path
         id="path206"
         style="fill:#fbc409;fill-opacity:1;fill-rule:nonzero;stroke:none"
         d="m 3999.83,618.461 c -3.68,8.937 -20.44,85.398 -20.44,85.398 0,0 41.91,-66.121 45.59,-75.05 3.67,-8.95 1.04,-18.52 -5.91,-21.368 -6.95,-2.859 -15.55,2.071 -19.24,11.02" /><path
         id="path208"
         style="fill:#fbc409;fill-opacity:1;fill-rule:nonzero;stroke:none"
         d="m 3921.58,808.621 c 3.68,-8.941 45.59,-75.062 45.59,-75.062 0,0 -16.76,76.461 -20.44,85.402 -3.67,8.949 -12.29,13.879 -19.23,11.019 -6.94,-2.851 -9.59,-12.421 -5.92,-21.359" /><path
         id="path210"
         style="fill:#fbc409;fill-opacity:1;fill-rule:nonzero;stroke:none"
         d="m 3911.05,801.68 c 6.77,-6.91 50.99,-71.489 50.99,-71.489 0,0 -63.64,45.551 -70.41,52.461 -6.77,6.907 -7.91,16.77 -2.54,22.028 5.36,5.25 15.2,3.902 21.96,-3" /><path
         id="path212"
         style="fill:#fbc409;fill-opacity:1;fill-rule:nonzero;stroke:none"
         d="m 4054.93,654.781 c -6.76,6.899 -70.41,52.461 -70.41,52.461 0,0 44.22,-64.582 50.99,-71.5 6.77,-6.902 16.6,-8.242 21.96,-2.992 5.37,5.262 4.23,15.109 -2.54,22.031" /><path
         id="path214"
         style="fill:#fbc409;fill-opacity:1;fill-rule:nonzero;stroke:none"
         d="m 4056.25,780.941 c -6.91,-6.769 -71.49,-50.992 -71.49,-50.992 0,0 45.55,63.653 52.46,70.41 6.91,6.77 16.77,7.911 22.03,2.539 5.24,-5.359 3.9,-15.187 -3,-21.957" /><path
         id="path216"
         style="fill:#fbc409;fill-opacity:1;fill-rule:nonzero;stroke:none"
         d="m 3909.35,637.059 c 6.9,6.773 52.46,70.41 52.46,70.41 0,0 -64.58,-44.219 -71.5,-50.989 -6.9,-6.761 -8.24,-16.601 -2.99,-21.96 5.26,-5.372 15.11,-4.231 22.03,2.539" /><path
         id="path218"
         style="fill:#fbc409;fill-opacity:1;fill-rule:nonzero;stroke:none"
         d="m 4026.33,807.832 c -3.82,-8.883 -46.71,-74.363 -46.71,-74.363 0,0 17.91,76.203 21.72,85.082 3.82,8.89 12.5,13.699 19.4,10.738 6.9,-2.969 9.4,-12.57 5.59,-21.457" /><path
         id="path220"
         style="fill:#fbc409;fill-opacity:1;fill-rule:nonzero;stroke:none"
         d="m 3945.22,618.871 c 3.81,8.879 21.72,85.09 21.72,85.09 0,0 -42.89,-65.469 -46.71,-74.359 -3.8,-8.891 -1.3,-18.5 5.59,-21.461 6.9,-2.95 15.59,1.839 19.4,10.73" /><path
         id="path222"
         style="fill:#fbc409;fill-opacity:1;fill-rule:nonzero;stroke:none"
         d="m 4062.4,665.66 c -8.88,3.82 -74.36,46.711 -74.36,46.711 0,0 76.2,-17.91 85.08,-21.723 8.89,-3.808 13.7,-12.5 10.73,-19.398 -2.96,-6.891 -12.56,-9.391 -21.45,-5.59" /><path
         id="path224"
         style="fill:#fbc409;fill-opacity:1;fill-rule:nonzero;stroke:none"
         d="m 3873.44,746.77 c 8.88,-3.809 85.09,-21.719 85.09,-21.719 0,0 -65.48,42.89 -74.37,46.711 -8.89,3.808 -18.49,1.308 -21.45,-5.59 -2.96,-6.902 1.84,-15.582 10.73,-19.402" /><path
         id="path226"
         style="fill:#c75b1d;fill-opacity:1;fill-rule:nonzero;stroke:none"
         d="m 3973.28,731.09 c -6.87,0 -12.46,-5.59 -12.46,-12.469 0,-6.871 5.59,-12.461 12.46,-12.461 6.88,0 12.47,5.59 12.47,12.461 0,6.879 -5.59,12.469 -12.47,12.469 z m 0,-26.649 c -7.82,0 -14.18,6.36 -14.18,14.18 0,7.828 6.36,14.188 14.18,14.188 7.82,0 14.19,-6.36 14.19,-14.188 0,-7.82 -6.37,-14.18 -14.19,-14.18" /><path
         id="path228"
         style="fill:#c75b1d;fill-opacity:1;fill-rule:nonzero;stroke:none"
         d="m 3980.87,718.621 c 0,-4.191 -3.4,-7.582 -7.59,-7.582 -4.19,0 -7.59,3.391 -7.59,7.582 0,4.188 3.4,7.59 7.59,7.59 4.19,0 7.59,-3.402 7.59,-7.59" /><path
         id="path230"
         style="fill:#fbc409;fill-opacity:1;fill-rule:nonzero;stroke:none"
         d="m 962.426,1028.7 c 0,-19.05 -26.789,-170.95 -26.789,-170.95 0,0 -26.789,151.9 -26.789,170.95 0,19.05 11.992,34.5 26.789,34.5 14.793,0 26.789,-15.45 26.789,-34.5" /><path
         id="path232"
         style="fill:#fbc409;fill-opacity:1;fill-rule:nonzero;stroke:none"
         d="m 962.426,623.512 c 0,19.058 -26.789,170.937 -26.789,170.937 0,0 -26.789,-151.879 -26.789,-170.937 0,-19.063 11.992,-34.512 26.789,-34.512 14.793,0 26.789,15.449 26.789,34.512" /><path
         id="path234"
         style="fill:#fbc409;fill-opacity:1;fill-rule:nonzero;stroke:none"
         d="m 1138.23,799.32 c -19.06,0 -170.949,26.782 -170.949,26.782 0,0 151.889,26.789 170.949,26.789 19.06,0 34.5,-11.993 34.5,-26.789 0,-14.793 -15.44,-26.782 -34.5,-26.782" /><path
         id="path236"
         style="fill:#fbc409;fill-opacity:1;fill-rule:nonzero;stroke:none"
         d="m 733.035,799.32 c 19.059,0 170.953,26.782 170.953,26.782 0,0 -151.894,26.789 -170.953,26.789 -19.051,0 -34.5,-11.993 -34.5,-26.789 0,-14.793 15.449,-26.782 34.5,-26.782" /><path
         id="path238"
         style="fill:#fbc409;fill-opacity:1;fill-rule:nonzero;stroke:none"
         d="m 1133.18,878.422 c -17.62,-7.25 -168.282,-40.281 -168.282,-40.281 0,0 130.282,82.578 147.902,89.828 17.62,7.25 36.47,2.043 42.1,-11.649 5.63,-13.679 -4.09,-30.648 -21.72,-37.898" /><path
         id="path240"
         style="fill:#fbc409;fill-opacity:1;fill-rule:nonzero;stroke:none"
         d="m 758.473,724.242 c 17.621,7.246 147.894,89.817 147.894,89.817 0,0 -150.66,-33.02 -168.281,-40.27 -17.621,-7.258 -27.344,-24.23 -21.715,-37.91 5.633,-13.68 24.481,-18.899 42.102,-11.637" /><path
         id="path242"
         style="fill:#fbc409;fill-opacity:1;fill-rule:nonzero;stroke:none"
         d="m 987.949,628.551 c -7.25,17.621 -40.273,168.289 -40.273,168.289 0,0 82.574,-130.281 89.824,-147.891 7.25,-17.629 2.04,-36.48 -11.65,-42.109 -13.68,-5.629 -30.651,4.09 -37.901,21.711" /><path
         id="path244"
         style="fill:#fbc409;fill-opacity:1;fill-rule:nonzero;stroke:none"
         d="m 833.77,1003.26 c 7.25,-17.619 89.824,-147.889 89.824,-147.889 0,0 -33.028,150.669 -40.278,168.279 -7.253,17.63 -24.218,27.35 -37.902,21.72 -13.684,-5.63 -18.894,-24.48 -11.644,-42.11" /><path
         id="path246"
         style="fill:#fbc409;fill-opacity:1;fill-rule:nonzero;stroke:none"
         d="m 813.012,989.59 c 13.336,-13.61 100.48,-140.879 100.48,-140.879 0,0 -125.426,89.777 -138.758,103.391 -13.332,13.609 -15.574,33.039 -5.004,43.39 10.575,10.348 29.95,7.708 43.282,-5.902" /><path
         id="path248"
         style="fill:#fbc409;fill-opacity:1;fill-rule:nonzero;stroke:none"
         d="M 1096.53,700.109 C 1083.2,713.719 957.777,803.5 957.777,803.5 c 0,0 87.143,-127.27 100.483,-140.879 13.33,-13.621 32.71,-16.262 43.28,-5.902 10.56,10.351 8.33,29.769 -5.01,43.39" /><path
         id="path250"
         style="fill:#fbc409;fill-opacity:1;fill-rule:nonzero;stroke:none"
         d="M 1099.12,948.719 C 1085.5,935.391 958.242,848.242 958.242,848.242 c 0,0 89.768,125.43 103.388,138.758 13.61,13.34 33.04,15.58 43.39,5 10.36,-10.559 7.71,-29.941 -5.9,-43.281" /><path
         id="path252"
         style="fill:#fbc409;fill-opacity:1;fill-rule:nonzero;stroke:none"
         d="m 809.641,665.211 c 13.617,13.328 103.386,138.75 103.386,138.75 0,0 -127.261,-87.141 -140.879,-100.469 -13.609,-13.34 -16.253,-32.722 -5.902,-43.293 10.352,-10.57 29.785,-8.328 43.395,5.012" /><path
         id="path254"
         style="fill:#fbc409;fill-opacity:1;fill-rule:nonzero;stroke:none"
         d="m 1040.16,1001.71 c -7.51,-17.511 -92.047,-146.519 -92.047,-146.519 0,0 35.293,150.139 42.809,167.649 7.516,17.51 24.638,26.97 38.228,21.14 13.6,-5.84 18.53,-24.76 11.01,-42.27" /><path
         id="path256"
         style="fill:#fbc409;fill-opacity:1;fill-rule:nonzero;stroke:none"
         d="m 880.348,629.371 c 7.511,17.5 42.804,167.649 42.804,167.649 0,0 -84.531,-129.008 -92.043,-146.52 -7.515,-17.508 -2.589,-36.441 11.004,-42.281 13.602,-5.828 30.715,3.64 38.235,21.152" /><path
         id="path258"
         style="fill:#fbc409;fill-opacity:1;fill-rule:nonzero;stroke:none"
         d="m 1111.24,721.582 c -17.51,7.508 -146.529,92.039 -146.529,92.039 0,0 150.149,-35.289 167.659,-42.812 17.51,-7.508 26.98,-24.629 21.14,-38.219 -5.83,-13.602 -24.76,-18.531 -42.27,-11.008" /><path
         id="path260"
         style="fill:#fbc409;fill-opacity:1;fill-rule:nonzero;stroke:none"
         d="m 738.895,881.402 c 17.511,-7.523 167.66,-42.82 167.66,-42.82 0,0 -129.016,84.539 -146.528,92.039 -17.511,7.52 -36.433,2.59 -42.273,-11 -5.836,-13.59 3.633,-30.711 21.141,-38.219" /><path
         id="path262"
         style="fill:#c75b1d;fill-opacity:1;fill-rule:nonzero;stroke:none"
         d="m 935.637,850.5 c -13.547,0 -24.567,-11.02 -24.567,-24.559 0,-13.55 11.02,-24.57 24.567,-24.57 13.543,0 24.562,11.02 24.562,24.57 0,13.539 -11.019,24.559 -24.562,24.559 z m 0,-52.52 c -15.41,0 -27.957,12.551 -27.957,27.961 0,15.411 12.547,27.95 27.957,27.95 15.41,0 27.949,-12.539 27.949,-27.95 0,-15.41 -12.539,-27.961 -27.949,-27.961" /><path
         id="path264"
         style="fill:#c75b1d;fill-opacity:1;fill-rule:nonzero;stroke:none"
         d="m 950.582,825.93 c 0,-8.25 -6.691,-14.938 -14.945,-14.938 -8.258,0 -14.953,6.688 -14.953,14.938 0,8.261 6.695,14.949 14.953,14.949 8.254,0 14.945,-6.688 14.945,-14.949" /><path
         id="path266"
         style="fill:#fbc409;fill-opacity:1;fill-rule:nonzero;stroke:none"
         d="m 4035.42,4675.34 c 0,-26.26 -36.92,-235.61 -36.92,-235.61 0,0 -36.93,209.35 -36.93,235.61 0,26.27 16.54,47.55 36.93,47.55 20.39,0 36.92,-21.28 36.92,-47.55" /><path
         id="path268"
         style="fill:#fbc409;fill-opacity:1;fill-rule:nonzero;stroke:none"
         d="m 4035.42,4116.88 c 0,26.26 -36.92,235.61 -36.92,235.61 0,0 -36.93,-209.35 -36.93,-235.61 0,-26.27 16.54,-47.56 36.93,-47.56 20.39,0 36.92,21.29 36.92,47.56" /><path
         id="path270"
         style="fill:#fbc409;fill-opacity:1;fill-rule:nonzero;stroke:none"
         d="m 4277.72,4359.18 c -26.26,0 -235.61,36.93 -235.61,36.93 0,0 209.35,36.92 235.61,36.92 26.27,0 47.56,-16.53 47.56,-36.92 0,-20.39 -21.29,-36.93 -47.56,-36.93" /><path
         id="path272"
         style="fill:#fbc409;fill-opacity:1;fill-rule:nonzero;stroke:none"
         d="m 3719.27,4359.18 c 26.26,0 235.61,36.93 235.61,36.93 0,0 -209.35,36.92 -235.61,36.92 -26.27,0 -47.56,-16.53 -47.56,-36.92 0,-20.39 21.29,-36.93 47.56,-36.93" /><path
         id="path274"
         style="fill:#fbc409;fill-opacity:1;fill-rule:nonzero;stroke:none"
         d="m 4270.77,4468.21 c -24.29,-9.99 -231.94,-55.5 -231.94,-55.5 0,0 179.56,113.81 203.85,123.8 24.28,9.99 50.26,2.81 58.02,-16.06 7.76,-18.85 -5.64,-42.24 -29.93,-52.24" /><path
         id="path276"
         style="fill:#fbc409;fill-opacity:1;fill-rule:nonzero;stroke:none"
         d="m 3754.32,4255.71 c 24.29,10 203.84,123.8 203.84,123.8 0,0 -207.65,-45.51 -231.94,-55.51 -24.29,-9.99 -37.69,-33.38 -29.92,-52.24 7.75,-18.85 33.73,-26.04 58.02,-16.05" /><path
         id="path278"
         style="fill:#fbc409;fill-opacity:1;fill-rule:nonzero;stroke:none"
         d="m 4070.61,4123.84 c -10,24.29 -55.51,231.94 -55.51,231.94 0,0 113.8,-179.56 123.8,-203.85 9.99,-24.29 2.8,-50.27 -16.06,-58.02 -18.86,-7.76 -42.24,5.64 -52.23,29.93" /><path
         id="path280"
         style="fill:#fbc409;fill-opacity:1;fill-rule:nonzero;stroke:none"
         d="m 3858.1,4640.29 c 10,-24.29 123.8,-203.84 123.8,-203.84 0,0 -45.51,207.65 -55.51,231.93 -9.99,24.3 -33.38,37.69 -52.24,29.93 -18.86,-7.75 -26.04,-33.74 -16.05,-58.02" /><path
         id="path282"
         style="fill:#fbc409;fill-opacity:1;fill-rule:nonzero;stroke:none"
         d="m 3829.49,4621.43 c 18.38,-18.76 138.49,-194.16 138.49,-194.16 0,0 -172.87,123.73 -191.24,142.49 -18.38,18.76 -21.47,45.54 -6.91,59.81 14.57,14.27 41.28,10.63 59.66,-8.14" /><path
         id="path284"
         style="fill:#fbc409;fill-opacity:1;fill-rule:nonzero;stroke:none"
         d="m 4220.25,4222.46 c -18.37,18.76 -191.24,142.49 -191.24,142.49 0,0 120.11,-175.4 138.49,-194.16 18.38,-18.77 45.09,-22.41 59.66,-8.14 14.56,14.27 11.47,41.05 -6.91,59.81" /><path
         id="path286"
         style="fill:#fbc409;fill-opacity:1;fill-rule:nonzero;stroke:none"
         d="m 4223.82,4565.11 c -18.76,-18.38 -194.16,-138.48 -194.16,-138.48 0,0 123.73,172.86 142.49,191.24 18.76,18.38 45.54,21.47 59.81,6.9 14.27,-14.57 10.63,-41.28 -8.14,-59.66" /><path
         id="path288"
         style="fill:#fbc409;fill-opacity:1;fill-rule:nonzero;stroke:none"
         d="m 3824.84,4174.35 c 18.77,18.38 142.49,191.24 142.49,191.24 0,0 -175.4,-120.11 -194.16,-138.48 -18.76,-18.38 -22.4,-45.09 -8.13,-59.66 14.27,-14.57 41.04,-11.48 59.8,6.9" /><path
         id="path290"
         style="fill:#fbc409;fill-opacity:1;fill-rule:nonzero;stroke:none"
         d="m 4142.56,4638.14 c -10.35,-24.13 -126.86,-201.95 -126.86,-201.95 0,0 48.65,206.95 59,231.08 10.36,24.13 33.95,37.18 52.69,29.14 18.73,-8.05 25.53,-34.14 15.17,-58.27" /><path
         id="path292"
         style="fill:#fbc409;fill-opacity:1;fill-rule:nonzero;stroke:none"
         d="m 3922.29,4124.95 c 10.37,24.14 59.01,231.08 59.01,231.08 0,0 -116.51,-177.82 -126.87,-201.95 -10.36,-24.13 -3.56,-50.22 15.18,-58.26 18.73,-8.05 42.32,5 52.68,29.13" /><path
         id="path294"
         style="fill:#fbc409;fill-opacity:1;fill-rule:nonzero;stroke:none"
         d="m 4240.53,4252.05 c -24.13,10.36 -201.96,126.86 -201.96,126.86 0,0 206.95,-48.64 231.09,-59 24.13,-10.36 37.18,-33.95 29.13,-52.69 -8.05,-18.74 -34.12,-25.54 -58.26,-15.17" /><path
         id="path296"
         style="fill:#fbc409;fill-opacity:1;fill-rule:nonzero;stroke:none"
         d="m 3727.33,4472.31 c 24.14,-10.36 231.09,-58.99 231.09,-58.99 0,0 -177.82,116.49 -201.96,126.85 -24.13,10.36 -50.21,3.57 -58.26,-15.17 -8.04,-18.74 5,-42.33 29.13,-52.69" /><path
         id="path298"
         style="fill:#c75b1d;fill-opacity:1;fill-rule:nonzero;stroke:none"
         d="m 3998.5,4429.73 c -18.68,0 -33.86,-15.18 -33.86,-33.85 0,-18.67 15.18,-33.86 33.86,-33.86 18.67,0 33.85,15.19 33.85,33.86 0,18.67 -15.18,33.85 -33.85,33.85 z m 0,-72.38 c -21.24,0 -38.53,17.28 -38.53,38.53 0,21.24 17.29,38.52 38.53,38.52 21.24,0 38.52,-17.28 38.52,-38.52 0,-21.25 -17.28,-38.53 -38.52,-38.53" /><path
         id="path300"
         style="fill:#c75b1d;fill-opacity:1;fill-rule:nonzero;stroke:none"
         d="m 4019.1,4395.88 c 0,-11.38 -9.23,-20.61 -20.6,-20.61 -11.38,0 -20.61,9.23 -20.61,20.61 0,11.38 9.23,20.6 20.61,20.6 11.37,0 20.6,-9.22 20.6,-20.6" /><path
         id="path302"
         style="fill:#fbc409;fill-opacity:1;fill-rule:nonzero;stroke:none"
         d="m 4597.09,4229.73 c 0,-10.46 -14.72,-93.89 -14.72,-93.89 0,0 -14.71,83.43 -14.71,93.89 0,10.47 6.59,18.96 14.71,18.96 8.13,0 14.72,-8.49 14.72,-18.96" /><path
         id="path304"
         style="fill:#fbc409;fill-opacity:1;fill-rule:nonzero;stroke:none"
         d="m 4597.09,4007.19 c 0,10.47 -14.72,93.9 -14.72,93.9 0,0 -14.71,-83.43 -14.71,-93.9 0,-10.47 6.59,-18.95 14.71,-18.95 8.13,0 14.72,8.48 14.72,18.95" /><path
         id="path306"
         style="fill:#fbc409;fill-opacity:1;fill-rule:nonzero;stroke:none"
         d="m 4693.64,4103.75 c -10.46,0 -93.88,14.71 -93.88,14.71 0,0 83.42,14.72 93.88,14.72 10.47,0 18.96,-6.59 18.96,-14.72 0,-8.12 -8.49,-14.71 -18.96,-14.71" /><path
         id="path308"
         style="fill:#fbc409;fill-opacity:1;fill-rule:nonzero;stroke:none"
         d="m 4471.1,4103.75 c 10.47,0 93.89,14.71 93.89,14.71 0,0 -83.42,14.72 -93.89,14.72 -10.47,0 -18.95,-6.59 -18.95,-14.72 0,-8.12 8.48,-14.71 18.95,-14.71" /><path
         id="path310"
         style="fill:#fbc409;fill-opacity:1;fill-rule:nonzero;stroke:none"
         d="m 4690.87,4147.2 c -9.68,-3.99 -92.42,-22.12 -92.42,-22.12 0,0 71.55,45.35 81.23,49.33 9.68,3.98 20.03,1.12 23.12,-6.4 3.09,-7.51 -2.24,-16.83 -11.93,-20.81" /><path
         id="path312"
         style="fill:#fbc409;fill-opacity:1;fill-rule:nonzero;stroke:none"
         d="m 4485.07,4062.52 c 9.68,3.98 81.23,49.33 81.23,49.33 0,0 -82.75,-18.14 -92.42,-22.12 -9.68,-3.98 -15.02,-13.3 -11.93,-20.82 3.09,-7.51 13.44,-10.37 23.12,-6.39" /><path
         id="path314"
         style="fill:#fbc409;fill-opacity:1;fill-rule:nonzero;stroke:none"
         d="m 4611.1,4009.96 c -3.97,9.68 -22.12,92.43 -22.12,92.43 0,0 45.36,-71.55 49.34,-81.23 3.98,-9.68 1.12,-20.03 -6.4,-23.12 -7.51,-3.09 -16.83,2.24 -20.82,11.92" /><path
         id="path316"
         style="fill:#fbc409;fill-opacity:1;fill-rule:nonzero;stroke:none"
         d="m 4526.43,4215.77 c 3.98,-9.68 49.33,-81.23 49.33,-81.23 0,0 -18.13,82.75 -22.12,92.42 -3.98,9.68 -13.31,15.02 -20.82,11.93 -7.52,-3.09 -10.38,-13.44 -6.39,-23.12" /><path
         id="path318"
         style="fill:#fbc409;fill-opacity:1;fill-rule:nonzero;stroke:none"
         d="m 4515.03,4208.25 c 7.32,-7.47 55.18,-77.37 55.18,-77.37 0,0 -68.88,49.31 -76.21,56.78 -7.32,7.48 -8.55,18.15 -2.75,23.84 5.81,5.68 16.45,4.23 23.78,-3.25" /><path
         id="path320"
         style="fill:#fbc409;fill-opacity:1;fill-rule:nonzero;stroke:none"
         d="m 4670.74,4049.26 c -7.32,7.48 -76.21,56.79 -76.21,56.79 0,0 47.87,-69.9 55.19,-77.38 7.32,-7.47 17.97,-8.92 23.78,-3.24 5.8,5.69 4.57,16.36 -2.76,23.83" /><path
         id="path322"
         style="fill:#fbc409;fill-opacity:1;fill-rule:nonzero;stroke:none"
         d="m 4672.17,4185.81 c -7.48,-7.33 -77.38,-55.18 -77.38,-55.18 0,0 49.3,68.88 56.78,76.21 7.48,7.32 18.15,8.55 23.84,2.74 5.68,-5.8 4.23,-16.44 -3.24,-23.77" /><path
         id="path324"
         style="fill:#fbc409;fill-opacity:1;fill-rule:nonzero;stroke:none"
         d="m 4513.17,4030.09 c 7.48,7.33 56.79,76.21 56.79,76.21 0,0 -69.9,-47.86 -77.37,-55.18 -7.48,-7.33 -8.94,-17.97 -3.24,-23.78 5.68,-5.8 16.35,-4.57 23.82,2.75" /><path
         id="path326"
         style="fill:#fbc409;fill-opacity:1;fill-rule:nonzero;stroke:none"
         d="m 4639.78,4214.91 c -4.13,-9.62 -50.55,-80.48 -50.55,-80.48 0,0 19.38,82.47 23.51,92.09 4.12,9.61 13.53,14.81 21,11.61 7.46,-3.21 10.17,-13.6 6.04,-23.22" /><path
         id="path328"
         style="fill:#fbc409;fill-opacity:1;fill-rule:nonzero;stroke:none"
         d="m 4552.01,4010.41 c 4.12,9.62 23.51,92.08 23.51,92.08 0,0 -46.43,-70.85 -50.56,-80.47 -4.12,-9.62 -1.42,-20.02 6.06,-23.22 7.46,-3.2 16.86,1.99 20.99,11.61" /><path
         id="path330"
         style="fill:#fbc409;fill-opacity:1;fill-rule:nonzero;stroke:none"
         d="m 4678.82,4061.05 c -9.62,4.13 -80.47,50.56 -80.47,50.56 0,0 82.46,-19.38 92.08,-23.51 9.62,-4.13 14.81,-13.53 11.61,-21 -3.2,-7.47 -13.6,-10.17 -23.22,-6.05" /><path
         id="path332"
         style="fill:#fbc409;fill-opacity:1;fill-rule:nonzero;stroke:none"
         d="m 4474.32,4148.83 c 9.62,-4.13 92.09,-23.51 92.09,-23.51 0,0 -70.86,46.42 -80.48,50.55 -9.62,4.13 -20.01,1.43 -23.23,-6.05 -3.2,-7.46 2.01,-16.86 11.62,-20.99" /><path
         id="path334"
         style="fill:#c75b1d;fill-opacity:1;fill-rule:nonzero;stroke:none"
         d="m 4582.37,4131.86 c -7.44,0 -13.48,-6.05 -13.48,-13.49 0,-7.44 6.04,-13.49 13.48,-13.49 7.44,0 13.5,6.05 13.5,13.49 0,7.44 -6.06,13.49 -13.5,13.49 z m 0,-28.84 c -8.46,0 -15.35,6.89 -15.35,15.35 0,8.47 6.89,15.35 15.35,15.35 8.47,0 15.35,-6.88 15.35,-15.35 0,-8.46 -6.88,-15.35 -15.35,-15.35" /><path
         id="path336"
         style="fill:#c75b1d;fill-opacity:1;fill-rule:nonzero;stroke:none"
         d="m 4590.59,4118.37 c 0,-4.53 -3.69,-8.21 -8.22,-8.21 -4.53,0 -8.21,3.68 -8.21,8.21 0,4.54 3.68,8.21 8.21,8.21 4.53,0 8.22,-3.67 8.22,-8.21" /><path
         id="path338"
         style="fill:#fbc409;fill-opacity:1;fill-rule:nonzero;stroke:none"
         d="m 4409.7,3804.23 c 0,-9.86 -13.87,-88.46 -13.87,-88.46 0,0 -13.86,78.6 -13.86,88.46 0,9.86 6.2,17.85 13.86,17.85 7.66,0 13.87,-7.99 13.87,-17.85" /><path
         id="path340"
         style="fill:#fbc409;fill-opacity:1;fill-rule:nonzero;stroke:none"
         d="m 4409.7,3594.56 c 0,9.86 -13.87,88.46 -13.87,88.46 0,0 -13.86,-78.6 -13.86,-88.46 0,-9.87 6.2,-17.86 13.86,-17.86 7.66,0 13.87,7.99 13.87,17.86" /><path
         id="path342"
         style="fill:#fbc409;fill-opacity:1;fill-rule:nonzero;stroke:none"
         d="m 4500.66,3685.53 c -9.85,0 -88.45,13.86 -88.45,13.86 0,0 78.6,13.86 88.45,13.86 9.87,0 17.87,-6.2 17.87,-13.86 0,-7.65 -8,-13.86 -17.87,-13.86" /><path
         id="path344"
         style="fill:#fbc409;fill-opacity:1;fill-rule:nonzero;stroke:none"
         d="m 4291,3685.53 c 9.86,0 88.45,13.86 88.45,13.86 0,0 -78.59,13.86 -88.45,13.86 -9.87,0 -17.86,-6.2 -17.86,-13.86 0,-7.65 7.99,-13.86 17.86,-13.86" /><path
         id="path346"
         style="fill:#fbc409;fill-opacity:1;fill-rule:nonzero;stroke:none"
         d="m 4498.06,3726.46 c -9.12,-3.75 -87.08,-20.83 -87.08,-20.83 0,0 67.41,42.72 76.53,46.47 9.11,3.75 18.87,1.06 21.79,-6.02 2.91,-7.08 -2.12,-15.87 -11.24,-19.62" /><path
         id="path348"
         style="fill:#fbc409;fill-opacity:1;fill-rule:nonzero;stroke:none"
         d="m 4304.16,3646.68 c 9.11,3.75 76.52,46.48 76.52,46.48 0,0 -77.96,-17.09 -87.08,-20.84 -9.11,-3.75 -14.15,-12.53 -11.23,-19.61 2.91,-7.08 12.67,-9.79 21.79,-6.03" /><path
         id="path350"
         style="fill:#fbc409;fill-opacity:1;fill-rule:nonzero;stroke:none"
         d="m 4422.9,3597.17 c -3.75,9.11 -20.84,87.08 -20.84,87.08 0,0 42.73,-67.41 46.48,-76.53 3.75,-9.12 1.06,-18.88 -6.02,-21.79 -7.08,-2.91 -15.87,2.12 -19.62,11.24" /><path
         id="path352"
         style="fill:#fbc409;fill-opacity:1;fill-rule:nonzero;stroke:none"
         d="m 4343.11,3791.06 c 3.76,-9.11 46.49,-76.52 46.49,-76.52 0,0 -17.09,77.96 -20.84,87.08 -3.75,9.12 -12.54,14.15 -19.62,11.23 -7.08,-2.91 -9.78,-12.66 -6.03,-21.79" /><path
         id="path354"
         style="fill:#fbc409;fill-opacity:1;fill-rule:nonzero;stroke:none"
         d="m 4332.38,3783.99 c 6.9,-7.05 51.99,-72.9 51.99,-72.9 0,0 -64.9,46.45 -71.8,53.5 -6.9,7.04 -8.06,17.09 -2.59,22.46 5.47,5.35 15.5,3.98 22.4,-3.06" /><path
         id="path356"
         style="fill:#fbc409;fill-opacity:1;fill-rule:nonzero;stroke:none"
         d="m 4479.09,3634.19 c -6.9,7.05 -71.81,53.5 -71.81,53.5 0,0 45.1,-65.85 52.01,-72.89 6.89,-7.05 16.92,-8.42 22.39,-3.06 5.47,5.35 4.31,15.41 -2.59,22.45" /><path
         id="path358"
         style="fill:#fbc409;fill-opacity:1;fill-rule:nonzero;stroke:none"
         d="m 4480.43,3762.84 c -7.05,-6.9 -72.9,-51.99 -72.9,-51.99 0,0 46.45,64.9 53.5,71.8 7.05,6.9 17.09,8.06 22.46,2.59 5.35,-5.47 3.98,-15.5 -3.06,-22.4" /><path
         id="path360"
         style="fill:#fbc409;fill-opacity:1;fill-rule:nonzero;stroke:none"
         d="m 4330.63,3616.13 c 7.05,6.9 53.5,71.8 53.5,71.8 0,0 -65.85,-45.09 -72.9,-51.99 -7.04,-6.9 -8.41,-16.93 -3.05,-22.39 5.35,-5.48 15.41,-4.32 22.45,2.58" /><path
         id="path362"
         style="fill:#fbc409;fill-opacity:1;fill-rule:nonzero;stroke:none"
         d="m 4449.92,3790.26 c -3.89,-9.06 -47.64,-75.82 -47.64,-75.82 0,0 18.28,77.69 22.16,86.76 3.89,9.06 12.75,13.96 19.78,10.93 7.04,-3.01 9.59,-12.81 5.7,-21.87" /><path
         id="path364"
         style="fill:#fbc409;fill-opacity:1;fill-rule:nonzero;stroke:none"
         d="m 4367.22,3597.59 c 3.89,9.06 22.15,86.76 22.15,86.76 0,0 -43.74,-66.77 -47.63,-75.83 -3.89,-9.06 -1.34,-18.85 5.7,-21.87 7.03,-3.02 15.89,1.88 19.78,10.94" /><path
         id="path366"
         style="fill:#fbc409;fill-opacity:1;fill-rule:nonzero;stroke:none"
         d="m 4486.7,3645.3 c -9.06,3.89 -75.82,47.63 -75.82,47.63 0,0 77.69,-18.26 86.76,-22.15 9.06,-3.89 13.95,-12.74 10.93,-19.78 -3.01,-7.04 -12.81,-9.58 -21.87,-5.7" /><path
         id="path368"
         style="fill:#fbc409;fill-opacity:1;fill-rule:nonzero;stroke:none"
         d="m 4294.02,3728 c 9.07,-3.89 86.76,-22.15 86.76,-22.15 0,0 -66.76,43.74 -75.82,47.63 -9.06,3.89 -18.86,1.34 -21.87,-5.7 -3.02,-7.03 1.88,-15.89 10.93,-19.78" /><path
         id="path370"
         style="fill:#c75b1d;fill-opacity:1;fill-rule:nonzero;stroke:none"
         d="m 4395.83,3712.02 c -7.01,0 -12.71,-5.71 -12.71,-12.71 0,-7.01 5.7,-12.72 12.71,-12.72 7.01,0 12.71,5.71 12.71,12.72 0,7 -5.7,12.71 -12.71,12.71 z m 0,-27.18 c -7.98,0 -14.46,6.49 -14.46,14.47 0,7.97 6.48,14.46 14.46,14.46 7.98,0 14.46,-6.49 14.46,-14.46 0,-7.98 -6.48,-14.47 -14.46,-14.47" /><path
         id="path372"
         style="fill:#c75b1d;fill-opacity:1;fill-rule:nonzero;stroke:none"
         d="m 4403.56,3699.3 c 0,-4.27 -3.45,-7.73 -7.73,-7.73 -4.27,0 -7.73,3.46 -7.73,7.73 0,4.27 3.46,7.74 7.73,7.74 4.28,0 7.73,-3.47 7.73,-7.74" /><path
         id="path374"
         style="fill:#fbc409;fill-opacity:1;fill-rule:nonzero;stroke:none"
         d="m 500.531,4472.7 c 0,-9.86 -13.859,-88.46 -13.859,-88.46 0,0 -13.863,78.6 -13.863,88.46 0,9.86 6.207,17.86 13.863,17.86 7.652,0 13.859,-8 13.859,-17.86" /><path
         id="path376"
         style="fill:#fbc409;fill-opacity:1;fill-rule:nonzero;stroke:none"
         d="m 500.531,4263.03 c 0,9.86 -13.859,88.46 -13.859,88.46 0,0 -13.863,-78.6 -13.863,-88.46 0,-9.86 6.207,-17.85 13.863,-17.85 7.652,0 13.859,7.99 13.859,17.85" /><path
         id="path378"
         style="fill:#fbc409;fill-opacity:1;fill-rule:nonzero;stroke:none"
         d="m 591.508,4354 c -9.863,0 -88.461,13.87 -88.461,13.87 0,0 78.598,13.86 88.461,13.86 9.859,0 17.851,-6.21 17.851,-13.86 0,-7.66 -7.992,-13.87 -17.851,-13.87" /><path
         id="path380"
         style="fill:#fbc409;fill-opacity:1;fill-rule:nonzero;stroke:none"
         d="m 381.836,4354 c 9.859,0 88.461,13.87 88.461,13.87 0,0 -78.602,13.86 -88.461,13.86 -9.863,0 -17.856,-6.21 -17.856,-13.86 0,-7.66 7.993,-13.87 17.856,-13.87" /><path
         id="path382"
         style="fill:#fbc409;fill-opacity:1;fill-rule:nonzero;stroke:none"
         d="m 588.895,4394.94 c -9.122,-3.75 -87.079,-20.84 -87.079,-20.84 0,0 67.414,42.73 76.528,46.48 9.121,3.75 18.875,1.05 21.789,-6.03 2.914,-7.08 -2.121,-15.86 -11.238,-19.61" /><path
         id="path384"
         style="fill:#fbc409;fill-opacity:1;fill-rule:nonzero;stroke:none"
         d="m 394.996,4315.15 c 9.121,3.76 76.531,46.49 76.531,46.49 0,0 -77.964,-17.09 -87.078,-20.85 -9.121,-3.75 -14.152,-12.53 -11.234,-19.61 2.906,-7.08 12.664,-9.78 21.781,-6.03" /><path
         id="path386"
         style="fill:#fbc409;fill-opacity:1;fill-rule:nonzero;stroke:none"
         d="m 513.746,4265.64 c -3.758,9.12 -20.848,87.08 -20.848,87.08 0,0 42.731,-67.41 46.489,-76.53 3.75,-9.12 1.047,-18.87 -6.032,-21.79 -7.078,-2.91 -15.859,2.12 -19.609,11.24" /><path
         id="path388"
         style="fill:#fbc409;fill-opacity:1;fill-rule:nonzero;stroke:none"
         d="m 433.961,4459.54 c 3.75,-9.12 46.477,-76.53 46.477,-76.53 0,0 -17.086,77.96 -20.836,87.08 -3.758,9.12 -12.536,14.15 -19.618,11.23 -7.078,-2.91 -9.781,-12.66 -6.023,-21.78" /><path
         id="path390"
         style="fill:#fbc409;fill-opacity:1;fill-rule:nonzero;stroke:none"
         d="m 423.219,4452.46 c 6.898,-7.05 51.996,-72.89 51.996,-72.89 0,0 -64.902,46.45 -71.801,53.49 -6.898,7.05 -8.062,17.1 -2.594,22.46 5.473,5.36 15.496,3.99 22.399,-3.06" /><path
         id="path392"
         style="fill:#fbc409;fill-opacity:1;fill-rule:nonzero;stroke:none"
         d="m 569.934,4302.67 c -6.903,7.04 -71.805,53.5 -71.805,53.5 0,0 45.094,-65.86 51.992,-72.9 6.899,-7.04 16.93,-8.41 22.399,-3.06 5.468,5.36 4.312,15.42 -2.586,22.46" /><path
         id="path394"
         style="fill:#fbc409;fill-opacity:1;fill-rule:nonzero;stroke:none"
         d="m 571.27,4431.32 c -7.047,-6.9 -72.903,-52 -72.903,-52 0,0 46.457,64.9 53.504,71.81 7.039,6.89 17.094,8.05 22.449,2.58 5.36,-5.46 3.993,-15.49 -3.05,-22.39" /><path
         id="path396"
         style="fill:#fbc409;fill-opacity:1;fill-rule:nonzero;stroke:none"
         d="m 421.477,4284.61 c 7.043,6.89 53.496,71.8 53.496,71.8 0,0 -65.852,-45.1 -72.899,-52 -7.047,-6.89 -8.414,-16.93 -3.054,-22.39 5.355,-5.47 15.41,-4.31 22.457,2.59" /><path
         id="path398"
         style="fill:#fbc409;fill-opacity:1;fill-rule:nonzero;stroke:none"
         d="m 540.762,4458.73 c -3.891,-9.06 -47.633,-75.82 -47.633,-75.82 0,0 18.262,77.7 22.148,86.76 3.895,9.06 12.75,13.96 19.786,10.94 7.039,-3.02 9.585,-12.82 5.699,-21.88" /><path
         id="path400"
         style="fill:#fbc409;fill-opacity:1;fill-rule:nonzero;stroke:none"
         d="m 458.063,4266.06 c 3.886,9.06 22.152,86.76 22.152,86.76 0,0 -43.746,-66.76 -47.633,-75.82 -3.887,-9.07 -1.336,-18.86 5.699,-21.88 7.032,-3.02 15.891,1.88 19.782,10.94" /><path
         id="path402"
         style="fill:#fbc409;fill-opacity:1;fill-rule:nonzero;stroke:none"
         d="m 577.539,4313.78 c -9.062,3.89 -75.82,47.63 -75.82,47.63 0,0 77.695,-18.27 86.758,-22.16 9.062,-3.88 13.961,-12.74 10.937,-19.78 -3.019,-7.03 -12.812,-9.58 -21.875,-5.69" /><path
         id="path404"
         style="fill:#fbc409;fill-opacity:1;fill-rule:nonzero;stroke:none"
         d="m 384.867,4396.48 c 9.059,-3.89 86.754,-22.15 86.754,-22.15 0,0 -66.758,43.73 -75.82,47.62 -9.063,3.89 -18.852,1.34 -21.875,-5.7 -3.02,-7.03 1.879,-15.88 10.941,-19.77" /><path
         id="path406"
         style="fill:#c75b1d;fill-opacity:1;fill-rule:nonzero;stroke:none"
         d="m 486.672,4380.49 c -7.008,0 -12.711,-5.7 -12.711,-12.71 0,-7.01 5.703,-12.71 12.711,-12.71 7.012,0 12.707,5.7 12.707,12.71 0,7.01 -5.695,12.71 -12.707,12.71 z m 0,-27.18 c -7.977,0 -14.465,6.49 -14.465,14.47 0,7.97 6.488,14.46 14.465,14.46 7.973,0 14.461,-6.49 14.461,-14.46 0,-7.98 -6.488,-14.47 -14.461,-14.47" /><path
         id="path408"
         style="fill:#c75b1d;fill-opacity:1;fill-rule:nonzero;stroke:none"
         d="m 494.402,4367.78 c 0,-4.27 -3.461,-7.74 -7.73,-7.74 -4.274,0 -7.734,3.47 -7.734,7.74 0,4.27 3.46,7.73 7.734,7.73 4.269,0 7.73,-3.46 7.73,-7.73" /><path
         id="path410"
         style="fill:#fbc409;fill-opacity:1;fill-rule:nonzero;stroke:none"
         d="m 952.645,4428.75 c 0,-5.79 -8.125,-51.86 -8.125,-51.86 0,0 -8.125,46.07 -8.125,51.86 0,5.77 3.64,10.46 8.125,10.46 4.488,0 8.125,-4.69 8.125,-10.46" /><path
         id="path412"
         style="fill:#fbc409;fill-opacity:1;fill-rule:nonzero;stroke:none"
         d="m 952.645,4305.83 c 0,5.78 -8.125,51.86 -8.125,51.86 0,0 -8.125,-46.08 -8.125,-51.86 0,-5.78 3.64,-10.47 8.125,-10.47 4.488,0 8.125,4.69 8.125,10.47" /><path
         id="path414"
         style="fill:#fbc409;fill-opacity:1;fill-rule:nonzero;stroke:none"
         d="m 1005.98,4359.16 c -5.78,0 -51.859,8.13 -51.859,8.13 0,0 46.079,8.12 51.859,8.12 5.78,0 10.47,-3.64 10.47,-8.12 0,-4.49 -4.69,-8.13 -10.47,-8.13" /><path
         id="path416"
         style="fill:#fbc409;fill-opacity:1;fill-rule:nonzero;stroke:none"
         d="m 883.066,4359.16 c 5.778,0 51.856,8.13 51.856,8.13 0,0 -46.078,8.12 -51.856,8.12 -5.781,0 -10.468,-3.64 -10.468,-8.12 0,-4.49 4.687,-8.13 10.468,-8.13" /><path
         id="path418"
         style="fill:#fbc409;fill-opacity:1;fill-rule:nonzero;stroke:none"
         d="m 1004.45,4383.15 c -5.348,-2.19 -51.052,-12.21 -51.052,-12.21 0,0 39.524,25.04 44.864,27.25 5.348,2.2 11.068,0.61 12.778,-3.54 1.7,-4.15 -1.25,-9.29 -6.59,-11.5" /><path
         id="path420"
         style="fill:#fbc409;fill-opacity:1;fill-rule:nonzero;stroke:none"
         d="m 890.781,4336.39 c 5.34,2.2 44.864,27.24 44.864,27.24 0,0 -45.704,-10.02 -51.051,-12.21 -5.348,-2.21 -8.293,-7.35 -6.586,-11.5 1.711,-4.15 7.426,-5.74 12.773,-3.53" /><path
         id="path422"
         style="fill:#fbc409;fill-opacity:1;fill-rule:nonzero;stroke:none"
         d="m 960.391,4307.36 c -2.2,5.35 -12.215,51.05 -12.215,51.05 0,0 25.047,-39.52 27.25,-44.86 2.195,-5.35 0.613,-11.07 -3.535,-12.78 -4.153,-1.7 -9.297,1.24 -11.5,6.59" /><path
         id="path424"
         style="fill:#fbc409;fill-opacity:1;fill-rule:nonzero;stroke:none"
         d="m 913.617,4421.03 c 2.203,-5.35 27.25,-44.87 27.25,-44.87 0,0 -10.015,45.71 -12.215,51.05 -2.203,5.35 -7.347,8.3 -11.5,6.59 -4.148,-1.71 -5.73,-7.43 -3.535,-12.77" /><path
         id="path426"
         style="fill:#fbc409;fill-opacity:1;fill-rule:nonzero;stroke:none"
         d="m 907.324,4416.88 c 4.043,-4.13 30.481,-42.74 30.481,-42.74 0,0 -38.047,27.24 -42.09,31.37 -4.043,4.12 -4.731,10.02 -1.52,13.16 3.207,3.14 9.086,2.34 13.129,-1.79" /><path
         id="path428"
         style="fill:#fbc409;fill-opacity:1;fill-rule:nonzero;stroke:none"
         d="m 993.328,4329.07 c -4.043,4.13 -42.09,31.36 -42.09,31.36 0,0 26.438,-38.61 30.481,-42.73 4.043,-4.14 9.922,-4.93 13.129,-1.8 3.211,3.14 2.523,9.04 -1.52,13.17" /><path
         id="path430"
         style="fill:#fbc409;fill-opacity:1;fill-rule:nonzero;stroke:none"
         d="m 994.117,4404.48 c -4.133,-4.04 -42.734,-30.48 -42.734,-30.48 0,0 27.23,38.05 31.355,42.09 4.133,4.05 10.028,4.73 13.164,1.52 3.141,-3.21 2.34,-9.08 -1.785,-13.13" /><path
         id="path432"
         style="fill:#fbc409;fill-opacity:1;fill-rule:nonzero;stroke:none"
         d="m 906.305,4318.48 c 4.125,4.04 31.363,42.09 31.363,42.09 0,0 -38.609,-26.43 -42.742,-30.48 -4.125,-4.04 -4.93,-9.92 -1.785,-13.13 3.136,-3.21 9.031,-2.53 13.164,1.52" /><path
         id="path434"
         style="fill:#fbc409;fill-opacity:1;fill-rule:nonzero;stroke:none"
         d="m 976.23,4420.56 c -2.281,-5.31 -27.925,-44.45 -27.925,-44.45 0,0 10.711,45.55 12.988,50.86 2.281,5.31 7.473,8.18 11.598,6.41 4.125,-1.77 5.621,-7.51 3.339,-12.82" /><path
         id="path436"
         style="fill:#fbc409;fill-opacity:1;fill-rule:nonzero;stroke:none"
         d="m 927.75,4307.61 c 2.277,5.31 12.988,50.86 12.988,50.86 0,0 -25.644,-39.14 -27.925,-44.45 -2.282,-5.31 -0.782,-11.06 3.339,-12.83 4.125,-1.76 9.317,1.11 11.598,6.42" /><path
         id="path438"
         style="fill:#fbc409;fill-opacity:1;fill-rule:nonzero;stroke:none"
         d="m 997.793,4335.58 c -5.313,2.28 -44.449,27.92 -44.449,27.92 0,0 45.547,-10.71 50.856,-12.99 5.31,-2.28 8.18,-7.47 6.42,-11.59 -1.78,-4.12 -7.51,-5.62 -12.827,-3.34" /><path
         id="path440"
         style="fill:#fbc409;fill-opacity:1;fill-rule:nonzero;stroke:none"
         d="m 884.84,4384.06 c 5.312,-2.28 50.859,-12.99 50.859,-12.99 0,0 -39.136,25.64 -44.449,27.93 -5.312,2.27 -11.051,0.78 -12.82,-3.35 -1.77,-4.12 1.101,-9.31 6.41,-11.59" /><path
         id="path442"
         style="fill:#c75b1d;fill-opacity:1;fill-rule:nonzero;stroke:none"
         d="m 944.52,4374.69 c -4.106,0 -7.45,-3.35 -7.45,-7.46 0,-4.1 3.344,-7.44 7.45,-7.44 4.113,0 7.453,3.34 7.453,7.44 0,4.11 -3.34,7.46 -7.453,7.46 z m 0,-15.94 c -4.672,0 -8.481,3.81 -8.481,8.48 0,4.68 3.809,8.48 8.481,8.48 4.675,0 8.476,-3.8 8.476,-8.48 0,-4.67 -3.801,-8.48 -8.476,-8.48" /><path
         id="path444"
         style="fill:#c75b1d;fill-opacity:1;fill-rule:nonzero;stroke:none"
         d="m 949.059,4367.23 c 0,-2.5 -2.032,-4.53 -4.539,-4.53 -2.504,0 -4.536,2.03 -4.536,4.53 0,2.5 2.032,4.54 4.536,4.54 2.507,0 4.539,-2.04 4.539,-4.54" /><path
         id="path446"
         style="fill:#fbc409;fill-opacity:1;fill-rule:nonzero;stroke:none"
         d="m 607.98,3838.8 c 0,-18.94 -26.632,-169.92 -26.632,-169.92 0,0 -26.625,150.98 -26.625,169.92 0,18.94 11.918,34.3 26.625,34.3 14.707,0 26.632,-15.36 26.632,-34.3" /><path
         id="path448"
         style="fill:#fbc409;fill-opacity:1;fill-rule:nonzero;stroke:none"
         d="m 607.98,3436.04 c 0,18.95 -26.632,169.93 -26.632,169.93 0,0 -26.625,-150.98 -26.625,-169.93 0,-18.94 11.918,-34.29 26.625,-34.29 14.707,0 26.632,15.35 26.632,34.29" /><path
         id="path450"
         style="fill:#fbc409;fill-opacity:1;fill-rule:nonzero;stroke:none"
         d="m 782.73,3610.8 c -18.945,0 -169.925,26.62 -169.925,26.62 0,0 150.98,26.63 169.925,26.63 18.942,0 34.297,-11.92 34.297,-26.63 0,-14.7 -15.355,-26.62 -34.297,-26.62" /><path
         id="path452"
         style="fill:#fbc409;fill-opacity:1;fill-rule:nonzero;stroke:none"
         d="m 379.973,3610.8 c 18.937,0 169.922,26.62 169.922,26.62 0,0 -150.985,26.63 -169.922,26.63 -18.95,0 -34.297,-11.92 -34.297,-26.63 0,-14.7 15.347,-26.62 34.297,-26.62" /><path
         id="path454"
         style="fill:#fbc409;fill-opacity:1;fill-rule:nonzero;stroke:none"
         d="m 777.711,3689.42 c -17.516,-7.2 -167.273,-40.03 -167.273,-40.03 0,0 129.496,82.08 147.007,89.29 17.516,7.2 36.254,2.02 41.852,-11.58 5.598,-13.6 -4.067,-30.46 -21.586,-37.68" /><path
         id="path456"
         style="fill:#fbc409;fill-opacity:1;fill-rule:nonzero;stroke:none"
         d="m 405.25,3536.17 c 17.52,7.21 147.012,89.28 147.012,89.28 0,0 -149.762,-32.82 -167.278,-40.03 -17.511,-7.21 -27.179,-24.08 -21.582,-37.68 5.598,-13.59 24.332,-18.78 41.848,-11.57" /><path
         id="path458"
         style="fill:#fbc409;fill-opacity:1;fill-rule:nonzero;stroke:none"
         d="m 633.352,3441.06 c -7.207,17.52 -40.032,167.28 -40.032,167.28 0,0 82.075,-129.5 89.282,-147.01 7.207,-17.52 2.027,-36.26 -11.579,-41.85 -13.597,-5.6 -30.464,4.06 -37.671,21.58" /><path
         id="path460"
         style="fill:#fbc409;fill-opacity:1;fill-rule:nonzero;stroke:none"
         d="m 480.094,3813.52 c 7.207,-17.51 89.285,-147.01 89.285,-147.01 0,0 -32.824,149.76 -40.031,167.28 -7.207,17.51 -24.078,27.18 -37.676,21.58 -13.606,-5.59 -18.785,-24.33 -11.578,-41.85" /><path
         id="path462"
         style="fill:#fbc409;fill-opacity:1;fill-rule:nonzero;stroke:none"
         d="m 459.465,3799.93 c 13.25,-13.53 99.875,-140.03 99.875,-140.03 0,0 -124.672,89.23 -137.922,102.76 -13.258,13.53 -15.484,32.84 -4.977,43.14 10.508,10.28 29.77,7.66 43.024,-5.87" /><path
         id="path464"
         style="fill:#fbc409;fill-opacity:1;fill-rule:nonzero;stroke:none"
         d="m 741.277,3512.19 c -13.25,13.53 -137.918,102.76 -137.918,102.76 0,0 86.621,-126.5 99.871,-140.03 13.258,-13.53 32.516,-16.16 43.024,-5.87 10.508,10.29 8.281,29.6 -4.977,43.14" /><path
         id="path466"
         style="fill:#fbc409;fill-opacity:1;fill-rule:nonzero;stroke:none"
         d="m 743.852,3759.31 c -13.536,-13.26 -140.028,-99.88 -140.028,-99.88 0,0 89.227,124.67 102.762,137.93 13.531,13.25 32.844,15.48 43.137,4.97 10.289,-10.5 7.66,-29.77 -5.871,-43.02" /><path
         id="path468"
         style="fill:#fbc409;fill-opacity:1;fill-rule:nonzero;stroke:none"
         d="m 456.113,3477.49 c 13.532,13.25 102.766,137.93 102.766,137.93 0,0 -126.5,-86.63 -140.031,-99.88 -13.532,-13.25 -16.16,-32.52 -5.871,-43.03 10.289,-10.5 29.605,-8.27 43.136,4.98" /><path
         id="path470"
         style="fill:#fbc409;fill-opacity:1;fill-rule:nonzero;stroke:none"
         d="m 685.25,3811.97 c -7.473,-17.4 -91.496,-145.64 -91.496,-145.64 0,0 35.086,149.25 42.551,166.65 7.468,17.41 24.488,26.81 38.004,21.01 13.507,-5.8 18.41,-24.61 10.941,-42.02" /><path
         id="path472"
         style="fill:#fbc409;fill-opacity:1;fill-rule:nonzero;stroke:none"
         d="m 526.391,3441.87 c 7.472,17.4 42.55,166.65 42.55,166.65 0,0 -84.019,-128.24 -91.492,-145.65 -7.469,-17.41 -2.57,-36.22 10.946,-42.02 13.515,-5.8 30.527,3.61 37.996,21.02" /><path
         id="path474"
         style="fill:#fbc409;fill-opacity:1;fill-rule:nonzero;stroke:none"
         d="m 755.898,3533.53 c -17.402,7.47 -145.644,91.48 -145.644,91.48 0,0 149.25,-35.07 166.648,-42.54 17.411,-7.47 26.821,-24.49 21.02,-38 -5.805,-13.52 -24.617,-18.42 -42.024,-10.94" /><path
         id="path476"
         style="fill:#fbc409;fill-opacity:1;fill-rule:nonzero;stroke:none"
         d="m 385.793,3692.38 c 17.406,-7.47 166.648,-42.55 166.648,-42.55 0,0 -128.238,84.02 -145.644,91.49 -17.406,7.47 -36.215,2.57 -42.024,-10.94 -5.796,-13.51 3.61,-30.53 21.02,-38" /><path
         id="path478"
         style="fill:#c75b1d;fill-opacity:1;fill-rule:nonzero;stroke:none"
         d="m 581.348,3661.67 c -13.461,0 -24.414,-10.95 -24.414,-24.41 0,-13.47 10.953,-24.42 24.414,-24.42 13.465,0 24.418,10.95 24.418,24.42 0,13.46 -10.953,24.41 -24.418,24.41 z m 0,-52.2 c -15.317,0 -27.785,12.47 -27.785,27.79 0,15.31 12.468,27.78 27.785,27.78 15.324,0 27.785,-12.47 27.785,-27.78 0,-15.32 -12.461,-27.79 -27.785,-27.79" /><path
         id="path480"
         style="fill:#c75b1d;fill-opacity:1;fill-rule:nonzero;stroke:none"
         d="m 596.207,3637.26 c 0,-8.21 -6.652,-14.86 -14.859,-14.86 -8.203,0 -14.86,6.65 -14.86,14.86 0,8.2 6.657,14.85 14.86,14.85 8.207,0 14.859,-6.65 14.859,-14.85" /></g></g></svg>