<?xml version="1.0" encoding="UTF-8" standalone="no"?>
<!-- Created with Inkscape (http://www.inkscape.org/) -->

<svg
   version="1.1"
   id="svg2"
   width="667.01331"
   height="666.96002"
   viewBox="0 0 667.01331 666.96002"
   sodipodi:docname="7909954.eps"
   xmlns:inkscape="http://www.inkscape.org/namespaces/inkscape"
   xmlns:sodipodi="http://sodipodi.sourceforge.net/DTD/sodipodi-0.dtd"
   xmlns="http://www.w3.org/2000/svg"
   xmlns:svg="http://www.w3.org/2000/svg">
  <defs
     id="defs6">
    <clipPath
       clipPathUnits="userSpaceOnUse"
       id="clipPath146">
      <path
         d="m 946.629,1.03125 h 3086.49 V 3401.2813 H 946.629 Z"
         id="path144" />
    </clipPath>
  </defs>
  <sodipodi:namedview
     id="namedview4"
     pagecolor="#ffffff"
     bordercolor="#000000"
     borderopacity="0.25"
     inkscape:showpageshadow="2"
     inkscape:pageopacity="0.0"
     inkscape:pagecheckerboard="0"
     inkscape:deskcolor="#d1d1d1" />
  <g
     id="g8"
     inkscape:groupmode="layer"
     inkscape:label="ink_ext_XXXXXX"
     transform="matrix(1.3333333,0,0,-1.3333333,0,666.96)">
    <g
       id="g10"
       transform="scale(0.1)">
      <path
         d="M 2.55469,1.03125 H 5002.5547 V 5001.0212 H 2.55469 Z"
         style="fill:#ffffff;fill-opacity:1;fill-rule:nonzero;stroke:none"
         id="path12" />
      <path
         d="M 2.55469,1.03125 H 5002.5547 V 5001.0212 H 2.55469 Z"
         style="fill:#f4d3ec;fill-opacity:1;fill-rule:nonzero;stroke:none"
         id="path14" />
      <path
         d="m 3554.23,5001.03 c 0,0 -90.97,-387.11 519.28,-404.14 610.26,-17.04 929.05,-459.87 929.05,-1106.44 0,1510.58 0,1510.58 0,1510.58 H 3554.23"
         style="fill:#e8b6df;fill-opacity:1;fill-rule:nonzero;stroke:none"
         id="path16" />
      <path
         d="m 3475.48,5002.06 c -0.06,-0.26 -5.16,-22.61 -5.16,-57.24 -0.02,-58.02 14.39,-150.83 91.43,-230.86 77.04,-80.03 216.15,-146.64 463.93,-153.73 319.81,-9.25 544.42,-114.61 696.41,-314.96 151.98,-200.4 231.23,-496.69 257.6,-887.74 l 9.25,0.62 c -26.47,391.92 -105.77,689.95 -259.47,892.73 -153.69,202.82 -381.91,309.49 -703.52,318.62 -246.34,7.08 -382.66,73.13 -457.52,150.89 -74.86,77.75 -88.83,167.84 -88.84,224.43 0,16.86 1.24,30.72 2.48,40.32 0.62,4.81 1.24,8.56 1.7,11.08 0.23,1.26 0.42,2.22 0.55,2.86 l 0.2,0.91 -9.04,2.07 -0.52,-2.26 0.52,2.26"
         style="fill:#e8b6df;fill-opacity:1;fill-rule:nonzero;stroke:none"
         id="path18" />
      <path
         d="m 1588.27,5001.03 c 0,0 91.04,-333.17 -665.813,-401.82 C 165.605,4530.56 213.781,4236.2 412.629,4010.51 611.477,3784.83 2.55469,3329.59 2.55469,3329.59 V 5001.03 H 1588.27"
         style="fill:#e8b6df;fill-opacity:1;fill-rule:nonzero;stroke:none"
         id="path20" />
      <path
         d="m 1728.08,4999.84 0.13,-0.49 c 0.64,-2.55 3.44,-14.72 3.44,-33.4 -0.07,-44.41 -15.54,-125.41 -113.79,-203.28 -98.3,-77.83 -279.98,-152.31 -612.24,-181.46 -261.581,-22.98 -435.393,-69.77 -544.307,-131.05 -54.45,-30.65 -92.696,-64.98 -117.34,-101.85 -24.649,-36.86 -35.594,-76.26 -35.582,-116.53 0.089,-93.51 58.3,-191.39 138.254,-279.28 29.718,-32.68 42.363,-69.63 42.394,-109.7 0.047,-61.31 -30.16,-129.97 -75.953,-198.18 C 344.445,3542.28 241.117,3441.05 154.988,3365.53 111.922,3327.77 73.1563,3296.42 45.168,3274.52 31.1719,3263.56 19.8711,3254.98 12.0742,3249.13 4.27734,3243.28 0.0117188,3240.2 0,3240.19 l 5.10938,-7.07 c 0.10156,0.08 122.94162,88.94 245.91762,209.36 61.493,60.21 123.024,128.31 169.297,197.28 46.242,68.98 77.391,138.84 77.438,203.04 0.031,41.91 -13.496,81.39 -44.668,115.57 -79.321,87.05 -136.074,183.65 -135.985,273.41 0.012,38.7 10.414,76.2 34.114,111.68 35.535,53.2 101.316,101.95 207.355,141.63 106.012,39.69 252.141,70.27 447.802,87.44 333.23,29.26 516.55,103.92 616.89,183.31 100.38,79.36 117.18,163.69 117.1,210.11 0,22.35 -3.81,35.96 -3.9,36.26 l -8.39,-2.37"
         style="fill:#e8b6df;fill-opacity:1;fill-rule:nonzero;stroke:none"
         id="path22" />
      <path
         d="M 2.55469,856.281 C 2.55469,856.281 578,853 640.398,515.91 702.793,178.809 1278.51,152.371 2039.09,240.5 2799.67,328.621 4290.75,563.48 4417.18,1.03125 c -4414.62531,0 -4414.62531,0 -4414.62531,0 V 856.281"
         style="fill:#e8b6df;fill-opacity:1;fill-rule:nonzero;stroke:none"
         id="path24" />
      <path
         d="M 2.52344,928.809 C 2.53125,928.809 4.74219,928.801 9,928.68 40.9297,927.832 186,921.211 329.977,872 401.965,847.41 473.637,812.191 530.801,761.969 587.973,711.73 630.691,646.68 645.352,561.73 656.5,496.969 683.719,442.34 725.078,397.129 787.137,329.301 880.656,282.672 999.363,252.891 c 118.737,-29.762 262.797,-42.68 426.427,-42.692 191.49,0 409.77,17.723 645.48,47.051 384.91,47.898 953.7,135.461 1443.1,135.449 246.42,0.02 472.69,-22.23 644.84,-82.629 86.08,-30.179 158.59,-69.871 213.44,-120.871 C 4427.5,138.18 4464.79,75.9414 4480.7,0 l 9.79,2.05078 c -16.3,77.96872 -54.84,142.25822 -111.03,194.48022 -84.31,78.34 -208.04,129.731 -356.88,161.707 -148.85,31.961 -322.94,44.461 -508.21,44.461 -490.52,-0.008 -1059.62,-87.668 -1444.34,-135.527 -235.44,-29.301 -453.36,-46.973 -644.24,-46.973 -217.47,-0.019 -399.82,22.992 -532.712,77.5 -66.453,27.242 -120.508,62.313 -160.617,106.18 -40.109,43.883 -66.383,96.543 -77.254,159.551 -16.039,93.218 -65.289,163.539 -129.703,216.129 -96.649,78.91 -227.285,118.523 -333.785,138.64 C 85.2148,938.301 2.78516,938.809 2.58594,938.809 l -0.0625,-10"
         style="fill:#e8b6df;fill-opacity:1;fill-rule:nonzero;stroke:none"
         id="path26" />
      <path
         d="m 4405.65,2047.53 c 0,0 16.71,341.85 231.11,406.01 0,-314.56 -231.11,-406.01 -231.11,-406.01"
         style="fill:#b96cbd;fill-opacity:1;fill-rule:nonzero;stroke:none"
         id="path28" />
      <path
         d="m 4320.17,1909.88 c 0,0 239.16,154.85 386.71,41.12 -212.59,-152.87 -386.71,-41.12 -386.71,-41.12"
         style="fill:#b96cbd;fill-opacity:1;fill-rule:nonzero;stroke:none"
         id="path30" />
      <path
         d="m 4326.04,2355.74 c 0,0 83.05,-272.54 -66.89,-383.09 -88.46,246.44 66.89,383.09 66.89,383.09"
         style="fill:#b96cbd;fill-opacity:1;fill-rule:nonzero;stroke:none"
         id="path32" />
      <path
         d="m 4140.2,2157.82 c 0,0 54.09,-279.72 -106.59,-373.99 -62.2,254.34 106.59,373.99 106.59,373.99"
         style="fill:#b96cbd;fill-opacity:1;fill-rule:nonzero;stroke:none"
         id="path34" />
      <path
         d="m 4148.96,1696.46 c 0,0 217.01,161.72 364.57,48 -212.6,-152.87 -364.57,-48 -364.57,-48"
         style="fill:#b96cbd;fill-opacity:1;fill-rule:nonzero;stroke:none"
         id="path36" />
      <path
         d="m 3784.83,1487.3 c 0.34,0.18 142.5,75.42 308.72,213.74 166.18,138.35 356.6,339.77 452.81,592.98 1.62,4.26 -0.52,9.03 -4.78,10.65 -4.26,1.62 -9.03,-0.53 -10.65,-4.79 -94.57,-249.14 -282.98,-448.9 -447.94,-586.15 -82.46,-68.63 -159.02,-121.64 -214.91,-157.47 -27.95,-17.91 -50.73,-31.53 -66.51,-40.66 -7.89,-4.56 -14.02,-8 -18.17,-10.3 -2.08,-1.14 -3.66,-2 -4.72,-2.57 -1.06,-0.58 -1.57,-0.84 -1.57,-0.85 -4.02,-2.13 -5.56,-7.12 -3.43,-11.15 2.13,-4.03 7.13,-5.57 11.15,-3.43"
         style="fill:#643564;fill-opacity:1;fill-rule:nonzero;stroke:none"
         id="path38" />
      <path
         d="m 4286.97,2151.58 c 0,0 -0.11,-0.97 -0.34,-2.88 -1.74,-14.34 -10.3,-80.3 -28.53,-154.29 -18.12,-73.96 -46.4,-156.09 -85.58,-201.67 -2.96,-3.47 -2.55,-8.68 0.91,-11.64 3.46,-2.96 8.67,-2.55 11.64,0.91 22.73,26.62 41.15,62.77 56.36,102.12 45.49,117.95 61.87,265.27 61.94,265.62 0.51,4.53 -2.75,8.61 -7.28,9.11 -4.53,0.51 -8.61,-2.75 -9.12,-7.28"
         style="fill:#643564;fill-opacity:1;fill-rule:nonzero;stroke:none"
         id="path40" />
      <path
         d="m 4281.52,1881.02 c 0,0.01 2.14,0.71 6.2,1.99 28.38,8.94 149.5,44.77 246.97,44.7 16.32,0 31.94,-0.99 46.29,-3.24 4.5,-0.7 8.72,2.38 9.43,6.88 0.7,4.51 -2.38,8.73 -6.88,9.43 -15.41,2.41 -31.85,3.44 -48.84,3.44 -57.87,-0.02 -122.24,-11.93 -172.35,-23.78 -50.09,-11.86 -85.85,-23.7 -86.01,-23.75 -4.33,-1.43 -6.67,-6.1 -5.24,-10.43 1.43,-4.32 6.1,-6.67 10.43,-5.24"
         style="fill:#643564;fill-opacity:1;fill-rule:nonzero;stroke:none"
         id="path42" />
      <path
         d="m 3911.46,1565.26 c 0.53,0.66 140.63,156.49 181.08,402.42 0.74,4.49 -2.3,8.74 -6.8,9.48 -4.5,0.74 -8.74,-2.31 -9.48,-6.81 -19.78,-120.47 -64.13,-219.14 -103.54,-287.63 -19.7,-34.24 -38.16,-60.93 -51.65,-79.02 -6.75,-9.04 -12.26,-15.94 -16.06,-20.55 -1.9,-2.31 -3.38,-4.04 -4.37,-5.19 l -1.11,-1.28 -0.35,-0.39 c -3.05,-3.39 -2.77,-8.61 0.62,-11.66 3.39,-3.04 8.61,-2.76 11.66,0.63"
         style="fill:#643564;fill-opacity:1;fill-rule:nonzero;stroke:none"
         id="path44" />
      <path
         d="m 4030.64,1651.13 c 0.01,0 2.78,1.03 7.99,2.87 18.23,6.44 65.76,22.61 122.58,37.13 56.79,14.53 122.97,27.36 177.88,27.34 11.02,0 21.57,-0.51 31.48,-1.61 4.53,-0.51 8.61,2.76 9.11,7.29 0.51,4.53 -2.76,8.61 -7.29,9.11 -10.62,1.18 -21.77,1.71 -33.3,1.71 -65.57,-0.03 -143.8,-17.17 -205.97,-34.22 -62.14,-17.06 -108.07,-34.09 -108.22,-34.15 -4.27,-1.58 -6.45,-6.33 -4.87,-10.6 1.59,-4.28 6.34,-6.45 10.61,-4.87"
         style="fill:#643564;fill-opacity:1;fill-rule:nonzero;stroke:none"
         id="path46" />
      <path
         d="m 4669.21,2097.79 c 0,-22.19 -18,-40.19 -40.2,-40.19 -22.21,0 -40.2,18 -40.2,40.19 0,22.21 17.99,40.21 40.2,40.21 22.2,0 40.2,-18 40.2,-40.21"
         style="fill:#643564;fill-opacity:1;fill-rule:nonzero;stroke:none"
         id="path48" />
      <path
         d="m 4689.88,1792.45 c 0,-16.82 -13.62,-30.44 -30.44,-30.44 -16.81,0 -30.43,13.62 -30.43,30.44 0,16.81 13.62,30.43 30.43,30.43 16.82,0 30.44,-13.62 30.44,-30.43"
         style="fill:#a54aab;fill-opacity:1;fill-rule:nonzero;stroke:none"
         id="path50" />
      <path
         d="m 3954.12,1833.04 c 0,-16.81 -13.63,-30.44 -30.44,-30.44 -16.81,0 -30.43,13.63 -30.43,30.44 0,16.8 13.62,30.43 30.43,30.43 16.81,0 30.44,-13.63 30.44,-30.43"
         style="fill:#b96cbd;fill-opacity:1;fill-rule:nonzero;stroke:none"
         id="path52" />
      <path
         d="m 3215.72,650.391 c 0,0 118.49,937.599 328.66,978.929 210.17,41.31 48.59,-251.69 48.59,-251.69 0,0 296.09,443.55 415.83,330.57 119.74,-112.97 -71.94,-272.64 -71.94,-272.64 0,0 309.86,275.18 424.44,129.23 114.6,-145.96 -295.16,-301.66 -295.16,-301.66 0,0 334.91,87.58 272.87,-93.51 -62.04,-181.081 -602.66,-184.429 -602.66,-184.429 0,0 371.18,-15.48 252.81,-189.652 -141.4,-208.047 -773.44,-145.148 -773.44,-145.148"
         style="fill:#a54aab;fill-opacity:1;fill-rule:nonzero;stroke:none"
         id="path54" />
      <path
         d="m 3218.81,648.73 c 0.01,0.012 0.95,1.77 2.84,5.168 28.27,51.012 267.02,465.372 612.14,622.452 l -2.91,6.39 C 3459.66,1113.46 3212.85,652.27 3212.62,652.051 l 6.19,-3.321"
         style="fill:#643564;fill-opacity:1;fill-rule:nonzero;stroke:none"
         id="path56" />
      <path
         d="m 3907.36,1611.84 c -0.04,-0.04 -56.51,-71.05 -121.59,-165.24 -65.08,-94.22 -138.76,-211.49 -173.28,-304.54 l 6.58,-2.44 c 34.06,91.89 107.54,209.03 172.48,302.99 32.47,46.99 62.8,88.22 85.01,117.69 11.11,14.74 20.19,26.53 26.48,34.65 6.3,8.11 9.8,12.51 9.81,12.52 l -5.49,4.37"
         style="fill:#643564;fill-opacity:1;fill-rule:nonzero;stroke:none"
         id="path58" />
      <path
         d="m 3976.11,452.25 c 107.47,-8.719 207.29,-45.031 271.62,-73.629 5.33,-2.371 11.58,-1.211 15.68,2.961 52.48,53.379 102.79,117.328 149.45,193.828 6.19,10.16 2.86,23.379 -7.23,29.68 -43.66,27.219 -92.82,61.48 -120.03,92.34 54.34,-4.731 112.15,-19.098 156.95,-32.508 10.11,-3.031 20.99,1.519 25.71,10.976 64.48,129.274 119.64,287.711 160.65,481.542 7.29,34.46 -18.54,67.09 -53.75,67.88 -190.2,4.25 -351.62,-11.67 -488.63,-42.33 -14.37,-3.22 -24.42,-16.24 -23.7,-30.95 3.6,-73.64 0.45,-186.911 -42.6,-264.142 -37.31,72.024 -49.18,155.812 -51.64,222.292 -0.75,20.49 -21.31,34.18 -40.62,27.26 -63.05,-22.58 -119.51,-48.8 -170.15,-77.78 -9.71,-5.55 -14.75,-16.69 -12.77,-27.7 12.1,-67.548 31.52,-187.81 27.34,-243.099 -3.92,-51.851 -63.06,76.059 -103.39,170.488 -6.98,16.34 -27.81,21.5 -41.44,10.071 -367.16,-307.782 -293.9,-782.86 -293.9,-782.86 0,0 464.09,-187.378594 852.75,125.2 8.06,6.48 6.78,19.109 -2.51,23.66 -60.91,29.859 -144.46,73.5 -207.79,116.82"
         style="fill:#643564;fill-opacity:1;fill-rule:nonzero;stroke:none"
         id="path60" />
      <path
         d="m 3336.22,183.34 1153.58,913.88 c 1.78,1.41 2.08,4 0.67,5.79 -1.41,1.78 -4,2.08 -5.78,0.67 L 3331.1,189.801 c -1.78,-1.41 -2.08,-4 -0.67,-5.789 1.41,-1.782 4,-2.082 5.79,-0.672"
         style="fill:#a54aab;fill-opacity:1;fill-rule:nonzero;stroke:none"
         id="path62" />
      <path
         d="m 4240.76,901.301 242.38,-16.922 c 2.27,-0.16 4.24,1.551 4.39,3.82 0.16,2.27 -1.55,4.242 -3.82,4.403 l -242.37,16.918 c -2.27,0.16 -4.24,-1.551 -4.4,-3.821 -0.16,-2.269 1.56,-4.238 3.82,-4.398"
         style="fill:#a54aab;fill-opacity:1;fill-rule:nonzero;stroke:none"
         id="path64" />
      <path
         d="m 3963.71,683.398 -72,329.342 c -0.49,2.22 -2.69,3.63 -4.91,3.14 -2.22,-0.49 -3.63,-2.68 -3.14,-4.9 l 72,-329.339 c 0.49,-2.219 2.68,-3.629 4.9,-3.141 2.23,0.48 3.63,2.68 3.15,4.898"
         style="fill:#a54aab;fill-opacity:1;fill-rule:nonzero;stroke:none"
         id="path66" />
      <path
         d="M 3874.1,611.699 4233.77,504.52 c 2.18,-0.649 4.48,0.589 5.13,2.769 0.65,2.18 -0.6,4.481 -2.78,5.133 L 3876.46,619.59 c -2.18,0.652 -4.48,-0.59 -5.13,-2.77 -0.65,-2.179 0.59,-4.468 2.77,-5.121"
         style="fill:#a54aab;fill-opacity:1;fill-rule:nonzero;stroke:none"
         id="path68" />
      <path
         d="m 3654.28,437.66 -23.76,304.57 c -0.18,2.27 -2.16,3.969 -4.43,3.79 -2.27,-0.18 -3.96,-2.161 -3.78,-4.43 l 23.76,-304.57 c 0.17,-2.258 2.15,-3.961 4.42,-3.782 2.27,0.172 3.97,2.16 3.79,4.422"
         style="fill:#a54aab;fill-opacity:1;fill-rule:nonzero;stroke:none"
         id="path70" />
      <path
         d="m 3992.41,291.602 -320.14,21.14 c -2.27,0.149 -4.23,-1.57 -4.38,-3.844 -0.15,-2.269 1.57,-4.226 3.84,-4.378 l 320.13,-21.141 c 2.27,-0.149 4.24,1.57 4.39,3.84 0.15,2.269 -1.57,4.23 -3.84,4.383"
         style="fill:#a54aab;fill-opacity:1;fill-rule:nonzero;stroke:none"
         id="path72" />
      <path
         d="m 4425.55,942.98 74.28,0.18 c 2.28,0 4.12,1.852 4.11,4.129 -0.01,2.27 -1.85,4.109 -4.13,4.102 l -74.28,-0.172 c -2.27,-0.008 -4.11,-1.86 -4.11,-4.129 0.01,-2.281 1.86,-4.121 4.13,-4.11"
         style="fill:#a54aab;fill-opacity:1;fill-rule:nonzero;stroke:none"
         id="path74" />
      <path
         d="m 4261.17,1029.43 6.01,86.34 c 0.16,2.27 -1.55,4.24 -3.82,4.39 -2.27,0.16 -4.24,-1.55 -4.4,-3.82 l -6.01,-86.34 c -0.16,-2.27 1.55,-4.23 3.82,-4.39 2.27,-0.16 4.24,1.55 4.4,3.82"
         style="fill:#a54aab;fill-opacity:1;fill-rule:nonzero;stroke:none"
         id="path76" />
      <path
         d="m 583.211,2047.53 c 0,0 -16.711,341.85 -231.113,406.01 0,-314.56 231.113,-406.01 231.113,-406.01"
         style="fill:#b96cbd;fill-opacity:1;fill-rule:nonzero;stroke:none"
         id="path78" />
      <path
         d="m 668.688,1909.88 c 0,0 -239.157,154.85 -386.704,41.12 212.586,-152.87 386.704,-41.12 386.704,-41.12"
         style="fill:#b96cbd;fill-opacity:1;fill-rule:nonzero;stroke:none"
         id="path80" />
      <path
         d="m 662.824,2355.74 c 0,0 -83.043,-272.54 66.895,-383.09 88.457,246.44 -66.895,383.09 -66.895,383.09"
         style="fill:#b96cbd;fill-opacity:1;fill-rule:nonzero;stroke:none"
         id="path82" />
      <path
         d="m 848.664,2157.82 c 0,0 -54.094,-279.72 106.586,-373.99 62.2,254.34 -106.586,373.99 -106.586,373.99"
         style="fill:#b96cbd;fill-opacity:1;fill-rule:nonzero;stroke:none"
         id="path84" />
      <path
         d="m 839.902,1696.46 c 0,0 -217.015,161.72 -364.566,48 212.59,-152.87 364.566,-48 364.566,-48"
         style="fill:#b96cbd;fill-opacity:1;fill-rule:nonzero;stroke:none"
         id="path86" />
      <path
         d="m 1211.75,1501.88 c 0,0 -0.51,0.27 -1.57,0.85 -16.37,8.84 -158.74,87.3 -319.832,224.05 -161.121,136.73 -340.797,331.74 -432.418,573.1 -1.617,4.26 -6.383,6.41 -10.645,4.79 -4.258,-1.62 -6.402,-6.39 -4.781,-10.65 96.211,-253.21 286.629,-454.63 452.816,-592.98 166.22,-138.32 308.37,-213.56 308.71,-213.74 4.03,-2.14 9.02,-0.6 11.16,3.43 2.13,4.03 0.59,9.02 -3.44,11.15"
         style="fill:#643564;fill-opacity:1;fill-rule:nonzero;stroke:none"
         id="path88" />
      <path
         d="m 685.488,2149.75 c 0.024,-0.21 7.364,-65.81 25.684,-144.41 9.164,-39.31 21.07,-81.86 36.262,-121.21 15.211,-39.35 33.625,-75.5 56.367,-102.12 2.961,-3.46 8.172,-3.87 11.633,-0.91 3.464,2.96 3.871,8.17 0.906,11.64 -20.82,24.3 -38.738,59.02 -53.512,97.34 -22.207,57.48 -37.508,123 -47.18,174.03 -4.843,25.52 -8.285,47.42 -10.515,62.93 -1.117,7.75 -1.93,13.91 -2.461,18.11 -0.535,4.21 -0.781,6.43 -0.781,6.43 -0.508,4.53 -4.59,7.79 -9.121,7.28 -4.528,-0.5 -7.79,-4.58 -7.282,-9.11"
         style="fill:#643564;fill-opacity:1;fill-rule:nonzero;stroke:none"
         id="path90" />
      <path
         d="m 712.531,1896.69 c -0.156,0.05 -35.914,11.89 -86.008,23.75 -50.113,11.85 -114.48,23.76 -172.351,23.78 -16.988,0 -33.43,-1.03 -48.836,-3.44 -4.504,-0.7 -7.586,-4.92 -6.883,-9.43 0.707,-4.5 4.926,-7.58 9.43,-6.88 14.344,2.25 29.972,3.24 46.289,3.24 55.644,0.02 119.16,-11.62 168.551,-23.33 24.707,-5.85 45.902,-11.7 60.898,-16.08 7.5,-2.19 13.449,-4.02 17.516,-5.29 4.066,-1.28 6.199,-1.98 6.207,-1.99 4.328,-1.43 8.996,0.92 10.429,5.24 1.43,4.33 -0.914,9 -5.242,10.43"
         style="fill:#643564;fill-opacity:1;fill-rule:nonzero;stroke:none"
         id="path92" />
      <path
         d="m 1089.69,1576.29 -0.35,0.39 c -7.66,8.64 -138.477,160.27 -176.738,393.67 -0.739,4.5 -4.981,7.55 -9.477,6.81 -4.5,-0.74 -7.547,-4.99 -6.809,-9.48 40.454,-245.93 180.564,-401.76 181.094,-402.42 3.05,-3.39 8.27,-3.67 11.66,-0.63 3.39,3.05 3.67,8.27 0.62,11.66"
         style="fill:#643564;fill-opacity:1;fill-rule:nonzero;stroke:none"
         id="path94" />
      <path
         d="m 963.961,1666.6 c -0.152,0.06 -46.082,17.09 -108.219,34.15 -62.172,17.05 -140.402,34.19 -205.976,34.22 -11.524,0 -22.672,-0.53 -33.297,-1.71 -4.528,-0.5 -7.793,-4.58 -7.289,-9.11 0.5,-4.53 4.582,-7.8 9.109,-7.29 9.91,1.1 20.461,1.61 31.477,1.61 62.773,0.03 140.207,-16.75 201.609,-33.63 30.719,-8.44 57.469,-16.88 76.52,-23.2 9.527,-3.17 17.125,-5.8 22.335,-7.64 5.208,-1.84 7.985,-2.87 7.993,-2.87 4.269,-1.58 9.019,0.59 10.605,4.87 1.582,4.27 -0.594,9.02 -4.867,10.6"
         style="fill:#643564;fill-opacity:1;fill-rule:nonzero;stroke:none"
         id="path96" />
      <path
         d="m 319.656,2097.79 c 0,-22.19 17.996,-40.19 40.199,-40.19 22.204,0 40.2,18 40.2,40.19 0,22.21 -17.996,40.21 -40.2,40.21 -22.203,0 -40.199,-18 -40.199,-40.21"
         style="fill:#643564;fill-opacity:1;fill-rule:nonzero;stroke:none"
         id="path98" />
      <path
         d="m 298.98,1792.45 c 0,-16.82 13.629,-30.44 30.442,-30.44 16.805,0 30.433,13.62 30.433,30.44 0,16.81 -13.628,30.43 -30.433,30.43 -16.813,0 -30.442,-13.62 -30.442,-30.43"
         style="fill:#a54aab;fill-opacity:1;fill-rule:nonzero;stroke:none"
         id="path100" />
      <path
         d="m 1034.75,1833.04 c 0,-16.81 13.62,-30.44 30.43,-30.44 16.81,0 30.44,13.63 30.44,30.44 0,16.8 -13.63,30.43 -30.44,30.43 -16.81,0 -30.43,-13.63 -30.43,-30.43"
         style="fill:#b96cbd;fill-opacity:1;fill-rule:nonzero;stroke:none"
         id="path102" />
      <path
         d="m 1773.14,650.391 c 0,0 -118.49,937.599 -328.66,978.929 -210.17,41.31 -48.58,-251.69 -48.58,-251.69 0,0 -296.09,443.55 -415.841,330.57 C 860.32,1595.23 1052,1435.56 1052,1435.56 c 0,0 -309.848,275.18 -424.437,129.23 -114.594,-145.96 295.16,-301.66 295.16,-301.66 0,0 -334.914,87.58 -272.868,-93.51 62.04,-181.081 602.655,-184.429 602.655,-184.429 0,0 -371.174,-15.48 -252.807,-189.652 C 1141.1,587.492 1773.14,650.391 1773.14,650.391"
         style="fill:#a54aab;fill-opacity:1;fill-rule:nonzero;stroke:none"
         id="path104" />
      <path
         d="m 1776.24,652.051 c -0.23,0.219 -247.04,461.409 -618.25,630.689 l -2.91,-6.39 c 184.01,-83.81 337.9,-240.71 445.63,-376.721 53.88,-67.988 96.23,-130.75 125.1,-176.488 14.44,-22.871 25.51,-41.493 32.96,-54.379 3.73,-6.453 6.55,-11.461 8.44,-14.864 1.89,-3.398 2.83,-5.156 2.84,-5.168 l 6.19,3.321"
         style="fill:#643564;fill-opacity:1;fill-rule:nonzero;stroke:none"
         id="path106" />
      <path
         d="m 1076.02,1607.47 c 0.01,-0.01 3.51,-4.41 9.81,-12.52 44.06,-56.71 224.35,-294.41 283.97,-455.33 l 6.58,2.44 c -34.53,93.05 -108.2,210.32 -173.28,304.54 -65.08,94.19 -121.55,165.2 -121.59,165.24 l -5.49,-4.37"
         style="fill:#643564;fill-opacity:1;fill-rule:nonzero;stroke:none"
         id="path108" />
      <path
         d="m 1012.76,452.25 c -107.475,-8.719 -207.295,-45.031 -271.623,-73.629 -5.34,-2.371 -11.59,-1.211 -15.68,2.961 -52.477,53.379 -102.789,117.328 -149.449,193.828 -6.195,10.16 -2.863,23.379 7.226,29.68 43.661,27.219 92.821,61.48 120.024,92.34 -54.328,-4.731 -112.145,-19.098 -156.942,-32.508 -10.117,-3.031 -20.996,1.519 -25.711,10.976 -64.484,129.274 -119.64,287.711 -160.652,481.542 -7.289,34.46 18.539,67.09 53.746,67.88 190.203,4.25 351.621,-11.67 488.633,-42.33 14.371,-3.22 24.43,-16.24 23.711,-30.95 -3.613,-73.64 -0.453,-186.911 42.59,-264.142 37.307,72.024 49.177,155.812 51.637,222.292 0.76,20.49 21.31,34.18 40.63,27.26 63.04,-22.58 119.5,-48.8 170.15,-77.78 9.7,-5.55 14.74,-16.69 12.77,-27.7 -12.1,-67.548 -31.53,-187.81 -27.35,-243.099 3.92,-51.851 63.06,76.059 103.39,170.488 6.98,16.34 27.82,21.5 41.44,10.071 367.17,-307.782 293.91,-782.86 293.91,-782.86 0,0 -464.1,-187.378594 -852.757,125.2 -8.055,6.48 -6.777,19.109 2.508,23.66 60.91,29.859 144.461,73.5 207.799,116.82"
         style="fill:#643564;fill-opacity:1;fill-rule:nonzero;stroke:none"
         id="path110" />
      <path
         d="M 1657.76,189.801 504.18,1103.68 c -1.782,1.41 -4.371,1.11 -5.785,-0.67 -1.415,-1.79 -1.114,-4.38 0.668,-5.79 L 1652.65,183.34 c 1.78,-1.41 4.37,-1.11 5.79,0.672 1.41,1.789 1.11,4.379 -0.68,5.789"
         style="fill:#a54aab;fill-opacity:1;fill-rule:nonzero;stroke:none"
         id="path112" />
      <path
         d="M 747.527,909.52 505.148,892.602 c -2.269,-0.161 -3.98,-2.133 -3.82,-4.403 0.156,-2.269 2.125,-3.98 4.395,-3.82 l 242.379,16.922 c 2.269,0.16 3.98,2.129 3.82,4.398 -0.156,2.27 -2.125,3.981 -4.395,3.821"
         style="fill:#a54aab;fill-opacity:1;fill-rule:nonzero;stroke:none"
         id="path114" />
      <path
         d="m 1033.2,681.641 72.01,329.339 c 0.48,2.22 -0.92,4.41 -3.15,4.9 -2.22,0.49 -4.42,-0.92 -4.9,-3.14 l -72.01,-329.342 c -0.48,-2.218 0.92,-4.418 3.15,-4.898 2.22,-0.488 4.41,0.922 4.9,3.141"
         style="fill:#a54aab;fill-opacity:1;fill-rule:nonzero;stroke:none"
         id="path116" />
      <path
         d="M 1112.41,619.59 752.734,512.422 c -2.179,-0.652 -3.418,-2.953 -2.769,-5.133 0.648,-2.18 2.945,-3.418 5.125,-2.769 l 359.67,107.179 c 2.18,0.653 3.42,2.942 2.77,5.121 -0.65,2.18 -2.94,3.422 -5.12,2.77"
         style="fill:#a54aab;fill-opacity:1;fill-rule:nonzero;stroke:none"
         id="path118" />
      <path
         d="m 1342.8,437.02 23.75,304.57 c 0.18,2.269 -1.51,4.25 -3.78,4.43 -2.27,0.179 -4.25,-1.52 -4.43,-3.79 l -23.76,-304.57 c -0.18,-2.262 1.52,-4.25 3.79,-4.422 2.27,-0.179 4.25,1.524 4.43,3.782"
         style="fill:#a54aab;fill-opacity:1;fill-rule:nonzero;stroke:none"
         id="path120" />
      <path
         d="m 996.996,283.379 320.144,21.141 c 2.27,0.152 3.99,2.109 3.84,4.378 -0.15,2.274 -2.11,3.993 -4.38,3.844 l -320.147,-21.14 c -2.269,-0.153 -3.988,-2.114 -3.84,-4.383 0.153,-2.27 2.114,-3.989 4.383,-3.84"
         style="fill:#a54aab;fill-opacity:1;fill-rule:nonzero;stroke:none"
         id="path122" />
      <path
         d="m 563.332,951.219 -74.281,0.172 c -2.278,0.007 -4.125,-1.832 -4.129,-4.102 -0.008,-2.277 1.832,-4.129 4.109,-4.129 l 74.282,-0.18 c 2.273,-0.011 4.125,1.829 4.128,4.11 0.004,2.269 -1.836,4.121 -4.109,4.129"
         style="fill:#a54aab;fill-opacity:1;fill-rule:nonzero;stroke:none"
         id="path124" />
      <path
         d="m 735.918,1030 -6.02,86.34 c -0.16,2.27 -2.128,3.98 -4.398,3.82 -2.27,-0.15 -3.98,-2.12 -3.82,-4.39 l 6.019,-86.34 c 0.156,-2.27 2.125,-3.98 4.395,-3.82 2.269,0.16 3.98,2.12 3.824,4.39"
         style="fill:#a54aab;fill-opacity:1;fill-rule:nonzero;stroke:none"
         id="path126" />
      <path
         d="m 4640.25,3024.35 h -160.12 v 457.89 h 160.12 v -457.89"
         style="fill:#b96cbd;fill-opacity:1;fill-rule:nonzero;stroke:none"
         id="path128" />
      <path
         d="m 4331.25,3173.23 v 160.12 h 457.89 v -160.12 h -457.89"
         style="fill:#b96cbd;fill-opacity:1;fill-rule:nonzero;stroke:none"
         id="path130" />
      <path
         d="m 1033.26,3210.81 h -84.967 v 242.99 h 84.967 v -242.99"
         style="fill:#643564;fill-opacity:1;fill-rule:nonzero;stroke:none"
         id="path132" />
      <path
         d="m 869.285,3289.82 v 84.97 h 242.985 v -84.97 H 869.285"
         style="fill:#643564;fill-opacity:1;fill-rule:nonzero;stroke:none"
         id="path134" />
      <path
         d="M 648.84,2627.43 H 517.578 v 375.35 H 648.84 v -375.35"
         style="fill:#a54aab;fill-opacity:1;fill-rule:nonzero;stroke:none"
         id="path136" />
      <path
         d="m 395.535,2749.48 v 131.25 H 770.891 V 2749.48 H 395.535"
         style="fill:#a54aab;fill-opacity:1;fill-rule:nonzero;stroke:none"
         id="path138" />
      <g
         id="g140">
        <g
           id="g142"
           clip-path="url(#clipPath146)">
          <path
             d="m 1457.78,574.23 c 0,0 486.24,113.782 987.24,-111.531 -228.36,-150.097 -821.34,-86.238 -987.24,111.531"
             style="fill:#3e1d3e;fill-opacity:1;fill-rule:nonzero;stroke:none"
             id="path148" />
          <path
             d="m 3531.08,574.23 c 0,0 -486.24,113.782 -987.24,-111.531 228.36,-150.097 821.34,-86.238 987.24,111.531"
             style="fill:#3e1d3e;fill-opacity:1;fill-rule:nonzero;stroke:none"
             id="path150" />
          <path
             d="m 2597.86,1902.12 c 0,0 168.42,-20.68 303.99,0 135.58,20.68 326.92,144.8 326.92,144.8 l 113.77,-899.82 c 0,0 113.76,-863.62 175.83,-1163.5609 62.05,-299.9371 289.6,-1060.1291 289.6,-1060.1291 H 2778.85 c 0,0 -124.11,1365.238 -149.97,1639.32 -25.85,274.09 -87.09,465.42 -110.77,519.73 183.18,183.58 79.75,819.66 79.75,819.66"
             style="fill:#f57c79;fill-opacity:1;fill-rule:nonzero;stroke:none"
             id="path152" />
          <path
             d="m 3440.8,2274.46 c 0,0 -94.21,346.48 -137.61,424.06 -43.4,77.56 -214.05,398.19 -286.45,403.36 -62.06,5.17 -72.4,5.17 -93.09,-41.37 -56.89,124.11 -98.25,155.14 -149.96,139.63 -51.72,-15.52 -51.72,-87.92 -51.72,-87.92 0,0 -155.14,41.37 -149.97,-108.6 10.34,-98.25 25.86,-160.31 25.86,-160.31 0,0 -93.09,14.03 -103.43,-104.17 -10.34,-118.2 0,-1000.98 0,-1000.98 v -601.4 c 0,0 31.03,-118.95 124.11,-124.11 93.09,-5.18 284.43,82.73 284.43,82.73 l 537.83,801.57 v 377.51"
             style="fill:#f57c79;fill-opacity:1;fill-rule:nonzero;stroke:none"
             id="path154" />
          <path
             d="m 2918.9,1419.33 c 2.87,39.57 7.86,75.6 14.51,108.63 3.66,0.96 7.26,1.92 10.89,2.89 -9.61,-34.51 -18.15,-71.64 -25.4,-111.52"
             style="fill:#c74a4c;fill-opacity:1;fill-rule:nonzero;stroke:none"
             id="path156" />
          <path
             d="m 2902.97,1095.38 c 0,0 -46.55,765.37 460.25,884.31 l 5.18,201.69 c 0,0 -93.09,382.68 124.11,372.34 l 26.66,-10.67 c 15.06,-6.03 25.41,-19.97 26.71,-36.15 3.42,-42.71 13.33,-126.11 39.71,-160.04 36.2,-46.55 118.95,-429.22 118.95,-470.6 0,-41.37 -325.8,-625.73 -362,-729.16 -113.77,-103.43 -439.57,-51.72 -439.57,-51.72"
             style="fill:#f57c79;fill-opacity:1;fill-rule:nonzero;stroke:none"
             id="path158" />
          <path
             d="m 2599.95,2100.66 c 0.01,0 6,1.67 17.17,4.68 78.18,21.04 408.98,106.79 684.71,130.36 l -1.32,15.46 c -317.36,-27.18 -704.5,-135.52 -704.74,-135.56 l 4.18,-14.94 v 0"
             style="fill:#bd464c;fill-opacity:1;fill-rule:nonzero;stroke:none"
             id="path160" />
          <path
             d="m 2902.87,1198.79 c 0.72,19.78 1.91,41.86 3.78,65.65 l 2.96,-0.24 c -2.87,-21.24 -5.14,-43.05 -6.74,-65.41"
             style="fill:#da5f5f;fill-opacity:1;fill-rule:nonzero;stroke:none"
             id="path162" />
          <path
             d="m 2921.69,1334.5 c 9.44,75.7 23.19,142.34 40.08,201.09 10.38,2.85 20.67,5.74 30.85,8.67 -29.92,-62.06 -54.6,-131.77 -70.93,-209.76"
             style="fill:#da5f5f;fill-opacity:1;fill-rule:nonzero;stroke:none"
             id="path164" />
          <path
             d="m 2554.41,1038.79 c -43.74,36.45 -59.98,97.97 -59.98,97.97 v 0 312.27 c 13.48,1.35 26.98,2.79 40.27,4.31 -3.52,-106.4 0.64,-200.52 19.36,-254.55 21.21,-61.24 16.34,-115.16 0.35,-160"
             style="fill:#da5f5f;fill-opacity:1;fill-rule:nonzero;stroke:none"
             id="path166" />
          <path
             d="m 3384.04,2516.79 c -0.73,-0.95 -44.26,-60.9 -44.25,-179.25 0,-34.01 3.59,-72.82 12.79,-116.4 l 7.59,1.6 -7.71,-0.78 c 7.23,-71.56 9.49,-123.32 9.49,-160.02 0,-30.97 -1.61,-51.21 -3.18,-63.57 -0.79,-6.19 -1.56,-10.39 -2.12,-12.99 -0.28,-1.29 -0.5,-2.18 -0.64,-2.71 l -0.15,-0.54 -0.03,-0.07 3.33,-1.04 -3.31,1.09 -0.02,-0.05 3.33,-1.04 -3.31,1.09 7.37,-2.42 -0.43,7.74 c -1.06,-0.05 -102.7,-5.95 -211.43,-99.63 -108.77,-93.68 -223.73,-274.83 -252.43,-622.72 l 15.46,-1.28 c 28.58,345.07 141.9,521.53 247.09,612.25 52.65,45.36 103.41,69.33 140.93,81.98 18.77,6.32 34.21,9.81 44.9,11.71 5.34,0.95 9.5,1.51 12.28,1.82 1.39,0.16 2.44,0.26 3.13,0.31 l 0.75,0.06 0.18,0.01 5.29,0.3 1.65,5.03 c 0.36,1.15 6.87,21.66 6.88,84.67 0,37.34 -2.3,89.6 -9.58,161.58 l -0.04,0.42 -0.09,0.41 c -8.98,42.55 -12.45,80.27 -12.45,113.19 0,57.25 10.5,99.98 20.89,128.31 5.2,14.17 10.38,24.73 14.21,31.69 1.91,3.48 3.49,6.06 4.57,7.74 l 1.22,1.84 0.29,0.42 0.05,0.07 -12.5,9.18"
             style="fill:#bd464c;fill-opacity:1;fill-rule:nonzero;stroke:none"
             id="path168" />
          <path
             d="m 2915.95,3059.53 c 0.03,-0.17 6.72,-52.87 21.79,-117.67 15.14,-64.83 38.32,-141.59 72.64,-190.9 l 6.36,4.44 -7.18,-2.94 c 62.09,-151.8 93.08,-227.54 93.08,-227.54 l 7.18,2.94 -7.55,-1.79 c 0.01,-0.04 13.61,-57.42 30.75,-123.24 8.57,-32.91 18.03,-67.92 27.13,-98.97 9.12,-31.07 17.81,-58.07 25.11,-75.42 l 14.3,6.03 c -6.82,16.16 -15.5,42.97 -24.52,73.75 -13.55,46.23 -27.98,101.62 -39.01,145.42 -5.52,21.9 -10.18,40.91 -13.47,54.44 -3.29,13.53 -5.19,21.54 -5.19,21.57 l -0.14,0.58 -0.23,0.56 c 0,0 -1.94,4.74 -5.81,14.21 -11.63,28.42 -40.7,99.49 -87.27,213.34 l -0.32,0.79 -0.49,0.71 c -32.09,45.8 -55.45,121.6 -70.26,185.54 -7.44,31.99 -12.82,61.06 -16.34,82.11 -1.76,10.52 -3.06,19.04 -3.91,24.92 -0.85,5.88 -1.25,9.07 -1.26,9.08 l -15.39,-1.96"
             style="fill:#bd464c;fill-opacity:1;fill-rule:nonzero;stroke:none"
             id="path170" />
          <path
             d="m 2714.38,3110.62 c 0.01,-0.07 23.19,-110.18 57.31,-241.66 17.05,-65.74 36.84,-136.82 57.86,-202.21 21.04,-65.41 43.24,-125.06 65.4,-168.29 l 6.9,3.54 -7.75,0.1 c -0.04,-2.47 -0.05,-4.94 -0.05,-7.41 0.07,-157.67 63.99,-302.02 64.16,-302.54 l 14.2,6.27 c -0.01,0 -0.23,0.5 -0.68,1.56 -6.8,15.85 -62.23,150.76 -62.17,294.71 0,2.4 0.02,4.8 0.05,7.21 l 0.02,1.93 -0.88,1.71 c -21.46,41.84 -43.55,101 -64.43,165.96 -31.33,97.47 -60.04,208.11 -80.9,294.33 -10.43,43.11 -18.9,80.12 -24.76,106.35 -2.93,13.11 -5.2,23.53 -6.75,30.66 -1.54,7.14 -2.35,10.97 -2.35,10.98 l -15.18,-3.2"
             style="fill:#bd464c;fill-opacity:1;fill-rule:nonzero;stroke:none"
             id="path172" />
          <path
             d="m 2729.84,2142.7 c 0,0 -0.9,2.73 -2.51,7.91 -11.31,36.21 -56.65,190.76 -56.6,324.39 0,16.05 0.65,31.79 2.08,46.96 l 0.2,2.14 -0.93,1.94 c -11.38,23.68 -21.39,55.6 -29.81,89.95 -12.66,51.54 -21.85,108.63 -27.86,152.77 -3,22.06 -5.21,40.9 -6.67,54.21 -0.73,6.65 -1.27,11.92 -1.63,15.52 -0.35,3.61 -0.52,5.52 -0.53,5.52 l -15.45,-1.4 c 0.01,-0.11 5.07,-55.9 16.04,-124.08 5.49,-34.1 12.45,-71.29 21.03,-106.24 8.59,-34.96 18.75,-67.63 30.89,-92.96 l 6.99,3.36 -7.72,0.72 c -1.48,-15.73 -2.14,-31.94 -2.14,-48.41 0.07,-156.44 59.81,-336.77 59.89,-337.17 l 14.73,4.87"
             style="fill:#bd464c;fill-opacity:1;fill-rule:nonzero;stroke:none"
             id="path174" />
          <path
             d="m 2391,1902.12 c 0,0 -168.41,-20.68 -303.99,0 -135.57,20.68 -326.92,144.8 -326.92,144.8 L 1646.32,1147.1 c 0,0 -113.77,-863.62 -175.82,-1163.5609 C 1408.44,-316.398 1180.9,-1076.59 1180.9,-1076.59 h 1029.11 c 0,0 124.11,1365.238 149.96,1639.32 25.86,274.09 87.09,465.42 110.78,519.73 -183.17,183.58 -79.75,819.66 -79.75,819.66"
             style="fill:#f57c79;fill-opacity:1;fill-rule:nonzero;stroke:none"
             id="path176" />
          <path
             d="m 1548.07,2274.46 c 0,0 94.2,346.48 137.6,424.06 43.39,77.56 214.05,398.19 286.45,403.36 62.06,5.17 72.4,5.17 93.09,-41.37 56.88,124.11 98.25,155.14 149.97,139.63 51.71,-15.52 51.71,-87.92 51.71,-87.92 0,0 155.14,41.37 149.97,-108.6 -10.34,-98.25 -25.86,-160.31 -25.86,-160.31 0,0 93.09,14.03 103.43,-104.17 10.34,-118.2 0,-1000.98 0,-1000.98 v -601.4 c 0,0 -31.03,-118.95 -124.11,-124.11 -93.09,-5.18 -284.43,82.73 -284.43,82.73 l -537.82,801.57 v 377.51"
             style="fill:#f57c79;fill-opacity:1;fill-rule:nonzero;stroke:none"
             id="path178" />
          <path
             d="m 2069.95,1419.36 c -1.12,6.2 -2.27,12.3 -3.46,18.36 0.66,-0.03 1.3,-0.06 1.97,-0.09 0.54,-5.99 1.05,-12.11 1.49,-18.27"
             style="fill:#c74a4c;fill-opacity:1;fill-rule:nonzero;stroke:none"
             id="path180" />
          <path
             d="m 2085.89,1095.38 c 0,0 46.54,765.37 -460.25,884.31 l -5.17,201.69 c 0,0 93.08,382.68 -124.12,372.34 l -26.66,-10.67 c -15.06,-6.03 -25.41,-19.97 -26.7,-36.15 -3.43,-42.71 -13.33,-126.11 -39.72,-160.04 -36.2,-46.55 -118.94,-429.22 -118.94,-470.6 0,-41.37 325.79,-625.73 361.99,-729.16 113.77,-103.43 439.57,-51.72 439.57,-51.72"
             style="fill:#f57c79;fill-opacity:1;fill-rule:nonzero;stroke:none"
             id="path182" />
          <path
             d="m 2393.09,2115.6 c -0.24,0.04 -387.38,108.38 -704.73,135.56 l -1.32,-15.46 c 157.53,-13.47 333.12,-47.23 469.21,-77.64 68.05,-15.2 126.24,-29.56 167.41,-40.11 20.58,-5.28 36.9,-9.61 48.08,-12.61 11.17,-3.01 17.16,-4.68 17.17,-4.68 l 4.18,14.93 v 0.01"
             style="fill:#bd464c;fill-opacity:1;fill-rule:nonzero;stroke:none"
             id="path184" />
          <path
             d="m 2086,1198.79 c -1.61,22.36 -3.88,44.17 -6.75,65.41 l 2.96,0.24 c 1.87,-23.79 3.06,-45.87 3.79,-65.65"
             style="fill:#da5f5f;fill-opacity:1;fill-rule:nonzero;stroke:none"
             id="path186" />
          <path
             d="m 2067.17,1334.54 c -7.68,36.67 -17.2,71.49 -28.25,104.55 3.87,-0.21 7.73,-0.41 11.59,-0.6 6.48,-32.6 12.08,-67.23 16.66,-103.95"
             style="fill:#da5f5f;fill-opacity:1;fill-rule:nonzero;stroke:none"
             id="path188" />
          <path
             d="m 2434.45,1038.79 c -15.99,44.84 -20.86,98.76 0.35,160 18.25,52.67 22.66,143.44 19.61,246.53 13.48,1.16 26.73,2.39 40.02,3.71 v -312.27 0 c 0,0 -16.24,-61.52 -59.98,-97.97"
             style="fill:#c5484a;fill-opacity:1;fill-rule:nonzero;stroke:none"
             id="path190" />
          <path
             d="m 1592.32,2507.61 0.05,-0.07 c 1.8,-2.57 41.18,-59.11 41.19,-170.01 0,-32.91 -3.47,-70.63 -12.46,-113.18 l -0.08,-0.41 -0.04,-0.42 c -7.29,-72.01 -9.59,-124.28 -9.59,-161.62 0.01,-62.98 6.51,-83.48 6.88,-84.63 l 1.65,-5.03 5.28,-0.3 0.19,-0.01 c 4.98,-0.35 103.13,-8.27 206.93,-100.2 103.77,-91.95 214.02,-268.25 242.15,-607.93 l 15.46,1.28 c -28.69,347.88 -143.66,529.04 -252.43,622.72 -108.73,93.68 -210.38,99.58 -211.43,99.63 l -0.43,-7.74 7.37,2.42 -3.32,-1.09 3.33,1.04 -0.01,0.05 -3.32,-1.09 3.33,1.04 c -0.05,0.13 -6.12,19.87 -6.11,79.84 0,36.7 2.26,88.48 9.5,160.06 l -7.72,0.78 7.59,-1.6 c 9.2,43.58 12.79,82.39 12.79,116.39 0.02,118.36 -43.52,178.31 -44.25,179.26 l -12.5,-9.18 v 0"
             style="fill:#bd464c;fill-opacity:1;fill-rule:nonzero;stroke:none"
             id="path192" />
          <path
             d="m 2057.51,3061.49 c 0,-0.01 -0.4,-3.2 -1.26,-9.08 -2.98,-20.57 -11.37,-73.52 -26.21,-131.49 -14.78,-57.94 -36.23,-121.01 -64.28,-161.08 l -0.49,-0.71 -0.33,-0.79 c -62.1,-151.8 -93.08,-227.55 -93.08,-227.55 l -0.23,-0.56 -0.14,-0.58 c -0.01,-0.04 -3.39,-14.31 -8.92,-36.83 -8.3,-33.79 -21.4,-86.05 -35.07,-136.08 -13.63,-49.98 -27.94,-97.97 -38.2,-122.27 l 14.3,-6.03 c 7.3,17.35 16,44.35 25.11,75.42 27.29,93.11 57.86,222.14 57.87,222.21 l -7.55,1.79 7.18,-2.94 c 0,0 30.99,75.74 93.09,227.54 l -7.18,2.94 6.36,-4.44 c 34.32,49.31 57.5,126.07 72.64,190.9 15.06,64.8 21.76,117.5 21.78,117.67 l -15.39,1.96"
             style="fill:#bd464c;fill-opacity:1;fill-rule:nonzero;stroke:none"
             id="path194" />
          <path
             d="m 2259.3,3113.82 c 0,-0.02 -1.44,-6.84 -4.14,-19.18 -9.44,-43.21 -34.27,-153.64 -66.24,-271.76 -31.93,-118.06 -71.18,-244.05 -108.81,-317.34 l -0.88,-1.71 0.03,-1.93 c 0.03,-2.4 0.04,-4.8 0.04,-7.2 0.01,-76.75 -15.7,-150.99 -31.45,-205.93 -7.88,-27.47 -15.75,-50.12 -21.64,-65.87 -2.95,-7.87 -5.4,-14.02 -7.11,-18.19 -0.86,-2.08 -1.52,-3.67 -1.98,-4.73 -0.45,-1.06 -0.67,-1.56 -0.67,-1.56 l 14.19,-6.27 c 0.17,0.52 64.1,144.88 64.18,302.55 0,2.47 -0.02,4.93 -0.05,7.4 l -7.76,-0.1 6.91,-3.54 c 22.15,43.23 44.36,102.88 65.39,168.29 63.04,196.12 115.14,443.74 115.17,443.87 l -15.18,3.2"
             style="fill:#bd464c;fill-opacity:1;fill-rule:nonzero;stroke:none"
             id="path196" />
          <path
             d="m 2383.28,2844.01 c 0,-0.01 -0.31,-3.42 -0.95,-9.66 -2.24,-21.86 -8.51,-77.98 -19.31,-139.2 -10.77,-61.16 -26.27,-127.61 -46.24,-169.11 l -0.93,-1.94 0.2,-2.14 c 1.43,-15.18 2.08,-30.92 2.08,-46.97 0.01,-76.32 -14.74,-159.58 -29.55,-223.59 -7.4,-32.01 -14.8,-59.23 -20.35,-78.42 -2.77,-9.6 -5.08,-17.19 -6.7,-22.37 -1.61,-5.18 -2.51,-7.91 -2.51,-7.91 l 14.73,-4.87 c 0.08,0.4 59.82,180.72 59.9,337.16 0,16.47 -0.67,32.69 -2.15,48.42 l -7.72,-0.72 6.99,-3.36 c 12.14,25.33 22.3,58 30.89,92.96 25.71,104.78 37.04,230.12 37.07,230.32 l -15.45,1.4"
             style="fill:#bd464c;fill-opacity:1;fill-rule:nonzero;stroke:none"
             id="path198" />
          <path
             d="m 2967.36,821.801 83.11,-360.77 15.12,3.489 -83.11,360.769 -15.12,-3.488"
             style="fill:#bd464c;fill-opacity:1;fill-rule:nonzero;stroke:none"
             id="path200" />
          <path
             d="m 1999.08,825.289 -83.11,-360.769 15.12,-3.489 83.11,360.77 -15.12,3.488"
             style="fill:#bd464c;fill-opacity:1;fill-rule:nonzero;stroke:none"
             id="path202" />
          <path
             d="m 2391,-34.0781 c 0,0 68.83,-155.2029 -62.31,-1042.5119 -1238.07,0 -1238.07,0 -1238.07,0 0,0 110.76,970.91 272.36,1214.77 C 2140.95,55 2391,-34.0781 2391,-34.0781"
             style="fill:#a54aab;fill-opacity:1;fill-rule:nonzero;stroke:none"
             id="path204" />
          <path
             d="m 1457.78,574.23 c 0,0 299.28,-160.371 987.24,-111.531 C 2494.18,365.16 2391,-34.0781 2391,-34.0781 c 0,0 -602.16,-107.9419 -1028.02,172.2581 -13.31,320.14 94.8,436.05 94.8,436.05"
             style="fill:#a54aab;fill-opacity:1;fill-rule:nonzero;stroke:none"
             id="path206" />
          <path
             d="m 2597.86,-34.0781 c 0,0 -68.82,-155.2029 62.31,-1042.5119 1238.08,0 1238.08,0 1238.08,0 0,0 -110.77,970.91 -272.37,1214.77 C 2847.91,55 2597.86,-34.0781 2597.86,-34.0781"
             style="fill:#a54aab;fill-opacity:1;fill-rule:nonzero;stroke:none"
             id="path208" />
          <path
             d="m 3531.08,574.23 c 0,0 -299.28,-160.371 -987.24,-111.531 -49.16,-97.539 54.02,-496.7771 54.02,-496.7771 0,0 602.16,-107.9419 1028.02,172.2581 13.31,320.14 -94.8,436.05 -94.8,436.05"
             style="fill:#a54aab;fill-opacity:1;fill-rule:nonzero;stroke:none"
             id="path210" />
          <path
             d="m 3689.4,1.03125 h -284 C 3537.52,73.7813 3625.88,138.18 3625.88,138.18 v 0 0 c 22.18,-33.469 43.41,-80.6683 63.52,-137.14875"
             style="fill:#be65b9;fill-opacity:1;fill-rule:nonzero;stroke:none"
             id="path212" />
          <path
             d="m 3405.4,1.03125 h -89.61 C 3422.17,30.4414 3528.61,74.1914 3625.88,138.18 v 0 c 0,0 -88.36,-64.3987 -220.48,-137.14875"
             style="fill:#b550af;fill-opacity:1;fill-rule:nonzero;stroke:none"
             id="path214" />
          <path
             d="m 3427.93,534.441 c 0,0.028 0.01,-0.019 0,0.008 68.1,21.403 101.45,38.883 103.09,39.75 -1.63,-0.867 -34.98,-18.347 -103.09,-39.758"
             style="fill:#592a5a;fill-opacity:1;fill-rule:nonzero;stroke:none"
             id="path216" />
          <path
             d="m 3259.87,493.031 v 0 c 62.8,11.93 114.18,25.098 154.67,37.301 0.57,0.168 1.13,0.328 1.67,0.488 -40.73,-12.332 -92.68,-25.699 -156.34,-37.8 m 167.15,41.128 c 0.38,0.133 0.64,0.211 0.78,0.262 0.05,0.012 0.09,0.02 0.13,0.039 0.01,-0.027 0,0.02 0,-0.008 -0.29,-0.089 -0.61,-0.191 -0.91,-0.293"
             style="fill:#f8a19f;fill-opacity:1;fill-rule:nonzero;stroke:none"
             id="path218" />
          <path
             d="m 3531.02,574.199 c 0.01,0 0.02,0.012 0.02,0.012 0,0 -0.01,-0.012 -0.02,-0.012 m 0.04,0.02 v 0 0 m 0.01,0 v 0 0 m 0,0.011 v 0 0 m 0.01,0 v 0 0"
             style="fill:#592a5a;fill-opacity:1;fill-rule:nonzero;stroke:none"
             id="path220" />
          <path
             d="m 3315.79,1.03125 h -0.01 C 3422.15,30.4414 3528.61,74.1914 3625.88,138.18 3528.61,74.1914 3422.17,30.4414 3315.79,1.03125 m -7.9,102.51975 c -0.44,14.179 -1.18,28.898 -2.16,44.019 80.22,17.262 153.44,37.071 186.78,56.871 -50.04,-38.25 -113.61,-71.992 -184.62,-100.89 m 317.99,34.629 c 0.01,0.32 0.02,0.64 0.03,0.949 -0.01,-0.309 -0.02,-0.629 -0.03,-0.949 m 0.04,1.129 c 0.01,0.261 0.02,0.523 0.03,0.781 -0.01,-0.27 -0.02,-0.5 -0.03,-0.781 m 0.04,0.933 c 0.01,0.27 0.02,0.539 0.03,0.809 -0.01,-0.27 -0.02,-0.539 -0.03,-0.809 m 0.03,0.879 c 0.02,0.289 0.03,0.59 0.04,0.879 -0.01,-0.301 -0.02,-0.578 -0.04,-0.879 m 0.04,1.02 c 0.01,0.269 0.02,0.539 0.04,0.808 -0.02,-0.269 -0.03,-0.539 -0.04,-0.808 m 0.04,0.941 c 0.01,0.258 0.02,0.547 0.03,0.816 -0.01,-0.277 -0.02,-0.546 -0.03,-0.816 m 0.04,0.957 c 0.01,0.262 0.02,0.543 0.03,0.813 -0.01,-0.27 -0.02,-0.543 -0.03,-0.813 m 0.03,0.91 c 0.01,0.281 0.02,0.563 0.03,0.84 -0.01,-0.269 -0.02,-0.57 -0.03,-0.84 m 0.04,1 c 0.01,0.27 0.01,0.531 0.02,0.801 -0.01,-0.27 -0.01,-0.531 -0.02,-0.801 m 0.03,0.903 c 0.01,0.277 0.02,0.558 0.03,0.839 -0.01,-0.269 -0.02,-0.57 -0.03,-0.839 m 0.03,0.968 c 0.01,0.27 0.02,0.52 0.03,0.801 -0.01,-0.269 -0.02,-0.531 -0.03,-0.801 m 0.03,0.961 c 0.01,0.27 0.02,0.52 0.03,0.789 -0.01,-0.269 -0.02,-0.519 -0.03,-0.789 m 0.04,0.93 c 0,0.269 0.01,0.531 0.02,0.801 -0.01,-0.27 -0.02,-0.532 -0.02,-0.801 m 0.03,0.937 c 0,0.274 0.01,0.543 0.02,0.821 -0.01,-0.289 -0.01,-0.528 -0.02,-0.821 m 0.03,0.903 c 0,0.289 0.01,0.578 0.02,0.859 -0.01,-0.289 -0.02,-0.57 -0.02,-0.859 m 0.02,0.929 c 0.01,0.29 0.02,0.579 0.03,0.872 -0.01,-0.293 -0.02,-0.582 -0.03,-0.872 m 0.03,0.95 c 0.01,0.281 0.02,0.582 0.03,0.859 -0.01,-0.277 -0.02,-0.57 -0.03,-0.859 m 0.03,0.922 c 0.01,0.289 0.02,0.589 0.03,0.878 -0.01,-0.281 -0.02,-0.601 -0.03,-0.878 m 0.03,0.937 c 0.01,0.301 0.01,0.59 0.02,0.891 -0.01,-0.301 -0.01,-0.59 -0.02,-0.891 m 0.02,0.91 c 0.01,0.301 0.02,0.61 0.03,0.91 -0.01,-0.3 -0.02,-0.597 -0.03,-0.91 m 0.03,0.942 c 4.2,153.32 -19.82,257.668 -44.8,323.691 -49.41,-28.141 -143.54,-70.332 -302.78,-102.934 -6.42,41.973 -13.08,81.383 -19.08,115.133 63.66,12.09 115.61,25.457 156.34,37.789 5.61,1.672 9.23,2.821 10.81,3.328 0.3,0.102 0.62,0.204 0.91,0.293 68.11,21.411 101.46,38.891 103.09,39.758 v 0 c 0.01,0 0.02,0.012 0.02,0.012 0.01,0 0.01,0 0.02,0.008 v 0 h 0.01 v 0 c 0,0 0,0 0,0.011 v 0 c 0.01,0 0.01,0 0.01,0 v 0 0 c 0,0 96.01,-102.941 95.93,-382.73 0,-11.16 -0.16,-22.629 -0.48,-34.359 m -330.17,92.05 c -1.53,13.348 -3.17,26.77 -4.89,40.129 47.58,5.309 93.66,11.739 136.47,19.5 -45.81,-22.672 -89.92,-42.468 -131.58,-59.629"
             style="fill:#be65b9;fill-opacity:1;fill-rule:nonzero;stroke:none"
             id="path222" />
          <path
             d="m 2633.21,499.488 c -18.03,179.282 -29.48,256.41 -35.35,286.961 0,0 0,-0.008 0.02,-0.019 12.22,-66.071 23.22,-141.121 31,-223.7 1.6,-16.921 3.57,-37.992 5.86,-62.671 -0.51,-0.188 -1.01,-0.379 -1.53,-0.571"
             style="fill:#dba2cb;fill-opacity:1;fill-rule:nonzero;stroke:none"
             id="path224" />
          <path
             d="m 3419.58,591.93 c -0.01,0 -0.02,0 -0.04,0 -2.31,15.902 -4.6,31.761 -6.86,47.492 v 0 c 2.78,-19.09 5.05,-34.711 6.9,-47.492"
             style="fill:#54284f;fill-opacity:1;fill-rule:nonzero;stroke:none"
             id="path226" />
          <path
             d="m 2638.73,457.141 c -0.44,0.019 -0.9,0.05 -1.33,0.07 -1.44,14.68 -2.83,28.777 -4.19,42.277 0.52,0.192 1.02,0.383 1.53,0.571 1.24,-13.289 2.57,-27.637 3.99,-42.918 m 789.2,77.308 c -2.82,19.192 -5.62,38.41 -8.39,57.481 0.02,0 0.03,0 0.04,0 8.36,-57.469 8.36,-57.481 8.36,-57.481 h -0.01"
             style="fill:#34152f;fill-opacity:1;fill-rule:nonzero;stroke:none"
             id="path228" />
          <path
             d="m 2796.46,453.449 c -49.85,0 -102.39,1.153 -157.73,3.692 -1.42,15.281 -2.75,29.629 -3.99,42.918 -2.29,24.679 -4.26,45.75 -5.86,62.671 -7.78,82.579 -18.78,157.629 -31,223.7 2.1,-1.489 146.88,-103.559 410.64,-143.282 l 40.91,-177.566 c -53.44,-5.102 -111.95,-9.07 -175.19,-11.172 -25.16,-0.629 -51.07,-0.961 -77.78,-0.961 m 268.54,13.66 -40.01,173.661 c 59.46,-8.2 124.76,-13.188 195.58,-13.188 60.1,0 124.18,3.59 192.11,11.84 2.26,-15.731 4.55,-31.59 6.86,-47.492 2.77,-19.071 5.57,-38.289 8.39,-57.481 -0.01,0 -0.05,-0.019 -0.13,-0.039 -4.28,-1.351 -8.7,-2.711 -13.26,-4.078 -38.9,-11.473 -161.19,-44.133 -349.54,-63.223"
             style="fill:#d56366;fill-opacity:1;fill-rule:nonzero;stroke:none"
             id="path230" />
          <path
             d="m 3049.43,465.582 -40.91,177.566 c 5.46,-0.828 10.9,-1.609 16.47,-2.378 L 3065,467.109 c -5.14,-0.519 -10.34,-1.027 -15.57,-1.527"
             style="fill:#a3373f;fill-opacity:1;fill-rule:nonzero;stroke:none"
             id="path232" />
          <path
             d="m 2774.43,452.762 c -43.79,0 -89.45,0.937 -136.89,3.019 -0.05,0.481 -0.1,0.949 -0.14,1.43 0.43,-0.02 0.89,-0.051 1.33,-0.07 55.34,-2.539 107.88,-3.692 157.73,-3.692 26.71,0 52.62,0.332 77.78,0.961 -32.07,-1.058 -65.36,-1.648 -99.81,-1.648"
             style="fill:#943c98;fill-opacity:1;fill-rule:nonzero;stroke:none"
             id="path234" />
          <path
             d="m 3414.54,530.332 c 4.56,1.367 8.98,2.727 13.26,4.078 -0.14,-0.051 -0.4,-0.129 -0.78,-0.262 -3.52,-1.097 -7.11,-2.207 -10.81,-3.328 -0.54,-0.16 -1.1,-0.32 -1.67,-0.488"
             style="fill:#da7f84;fill-opacity:1;fill-rule:nonzero;stroke:none"
             id="path236" />
          <path
             d="m 3416.21,530.82 c 3.7,1.121 7.29,2.231 10.81,3.328 -1.58,-0.507 -5.2,-1.656 -10.81,-3.328"
             style="fill:#b24eae;fill-opacity:1;fill-rule:nonzero;stroke:none"
             id="path238" />
          <path
             d="m 2355.66,499.488 c -0.52,0.192 -1.03,0.383 -1.55,0.571 2.3,24.679 4.27,45.75 5.86,62.671 7.79,82.579 18.79,157.629 31.01,223.7 0.01,0.011 0.02,0.019 0.02,0.019 -5.86,-30.551 -17.32,-107.679 -35.34,-286.961"
             style="fill:#dba2cb;fill-opacity:1;fill-rule:nonzero;stroke:none"
             id="path240" />
          <path
             d="m 1569.28,591.93 c 1.79,12.3 3.96,27.23 6.6,45.371 -2.17,-15.051 -4.35,-30.16 -6.56,-45.371 -0.02,0 -0.02,0 -0.04,0"
             style="fill:#54284f;fill-opacity:1;fill-rule:nonzero;stroke:none"
             id="path242" />
          <path
             d="m 2350.13,457.141 c 1.41,15.281 2.75,29.64 3.98,42.918 0.52,-0.188 1.03,-0.379 1.55,-0.571 -1.36,-13.508 -2.76,-27.597 -4.19,-42.277 -0.44,-0.02 -0.9,-0.051 -1.34,-0.07 m -788.98,78.839 c 0.52,3.602 2.28,15.649 8.13,55.95 0.02,0 0.02,0 0.04,0 -2.7,-18.571 -5.43,-37.258 -8.17,-55.95"
             style="fill:#34152f;fill-opacity:1;fill-rule:nonzero;stroke:none"
             id="path244" />
          <path
             d="m 2192.41,453.449 c -26.72,0 -52.61,0.332 -77.78,0.961 -66.06,2.192 -126.98,6.43 -182.33,11.86 l 40.49,175.761 c 268.62,38.891 416.12,142.93 418.19,144.399 -12.22,-66.071 -23.22,-141.121 -31.01,-223.7 -1.59,-16.921 -3.56,-37.992 -5.86,-62.671 -1.23,-13.278 -2.57,-27.637 -3.98,-42.918 -55.35,-2.539 -107.87,-3.692 -157.72,-3.692 m -275.67,14.391 c -184.44,19.199 -304.17,51.211 -342.49,62.512 -4.51,1.359 -8.9,2.707 -13.15,4.046 -0.11,0.032 -0.17,0.051 -0.17,0.051 0,0 0,0 0.22,1.531 2.74,18.692 5.47,37.379 8.17,55.95 2.21,15.211 4.39,30.32 6.56,45.371 0.1,0.699 0.2,1.41 0.3,2.121 67.94,-8.25 132.02,-11.84 192.11,-11.84 67.85,0 130.62,4.578 188.05,12.168 l -39.6,-171.91"
             style="fill:#d56366;fill-opacity:1;fill-rule:nonzero;stroke:none"
             id="path246" />
          <path
             d="m 1932.3,466.27 c -5.24,0.511 -10.43,1.039 -15.56,1.57 l 39.6,171.91 c 5.54,0.742 11.01,1.492 16.45,2.281 L 1932.3,466.27"
             style="fill:#a3373f;fill-opacity:1;fill-rule:nonzero;stroke:none"
             id="path248" />
          <path
             d="m 2214.44,452.762 c -34.45,0 -67.73,0.578 -99.81,1.648 25.17,-0.629 51.06,-0.961 77.78,-0.961 49.85,0 102.37,1.153 157.72,3.692 0.44,0.019 0.9,0.05 1.34,0.07 -0.05,-0.481 -0.09,-0.949 -0.14,-1.43 -47.44,-2.082 -93.11,-3.019 -136.89,-3.019"
             style="fill:#943c98;fill-opacity:1;fill-rule:nonzero;stroke:none"
             id="path250" />
          <path
             d="m 3625.91,139.129 c 0.01,0.062 0.01,0.133 0.01,0.18 0,-0.059 0,-0.118 -0.01,-0.18 m 0.04,0.961 c 0,0.039 0.01,0.109 0.01,0.152 0,-0.051 0,-0.101 -0.01,-0.152 m 0.04,0.961 c 0,0.019 0,0.051 0,0.07 0,-0.019 0,-0.051 0,-0.07 m 0.04,0.949 c 0,0.051 0,0.082 0,0.141 0,-0.051 0,-0.09 0,-0.141 m 0.04,0.949 c 0,0.043 0,0.09 0,0.133 0,-0.051 0,-0.082 0,-0.133 m 0.03,0.949 c 0,0.032 0,0.102 0.01,0.141 -0.01,-0.047 -0.01,-0.09 -0.01,-0.141 m 0.04,0.954 c 0,0.039 0,0.07 0,0.097 0,-0.039 0,-0.058 0,-0.097 m 0.03,0.937 c 0,0.063 0,0.102 0.01,0.16 -0.01,-0.051 -0.01,-0.109 -0.01,-0.16 m 0.03,0.961 c 0.01,0.031 0.01,0.059 0.01,0.102 0,-0.043 0,-0.071 -0.01,-0.102 m 0.04,0.941 c 0,0.039 0,0.09 0,0.129 0,-0.039 0,-0.09 0,-0.129 m 0.03,0.93 c 0,0.059 0,0.098 0,0.16 0,-0.051 0,-0.109 0,-0.16 m 0.03,0.949 c 0,0.039 0,0.102 0.01,0.141 -0.01,-0.039 -0.01,-0.102 -0.01,-0.141 m 0.03,0.942 c 0,0.027 0,0.097 0.01,0.136 -0.01,-0.046 -0.01,-0.089 -0.01,-0.136 m 0.03,0.957 c 0,0.023 0,0.062 0.01,0.082 -0.01,-0.031 -0.01,-0.051 -0.01,-0.082 m 0.03,0.941 c 0,0.02 0,0.051 0,0.07 0,-0.031 0,-0.039 0,-0.07 m 0.03,0.942 c 0,0.027 0,0.039 0,0.078 0,-0.032 0,-0.051 0,-0.078 m 0.03,0.937 c 0,0.02 0,0.043 0,0.063 0,-0.02 0,-0.043 0,-0.063 m 0.03,0.941 c 0,0.02 0,0.04 0,0.059 0,-0.019 0,-0.039 0,-0.059 m 0.02,0.95 v 0.019 -0.019 m 0.03,0.929 c 0,0.02 0,0.012 0,0.032 0,-0.02 0,-0.012 0,-0.032"
             style="fill:#7a407b;fill-opacity:1;fill-rule:nonzero;stroke:none"
             id="path252" />
          <path
             d="m 3303.74,1.03125 h -383.67 c 131.27,19.85935 269.83,54.50785 387.82,102.51975 1.23,-39.5588 0.17,-74.8322 -4.15,-102.51975 M 3023.27,98.1719 c -15.75,0 -29.5,11.5471 -31.87,27.6091 -2.56,17.34 9.14,33.469 26.4,36.551 63.12,11.258 161.21,38.559 278.56,86.859 3.98,-34.691 7.25,-69.07 9.37,-101.621 -105.26,-22.648 -222.56,-40.91 -277.71,-49.0505 -1.6,-0.2382 -3.18,-0.3476 -4.75,-0.3476 M 2767.41,264.68 c -35.94,0 -65.13,0.3 -85.13,0.59 -16.97,0.261 -30.83,13.519 -31.91,30.46 -1.2,18.731 13.69,34.579 32.4,34.579 0.13,0 0.26,0 0.38,0 15.96,-0.18 31.59,-0.258 47.05,-0.258 236.51,0 415.47,20.57 548.75,47.847 4.39,-28.668 8.65,-58.507 12.52,-88.578 -187.09,-20.898 -397.45,-24.64 -524.06,-24.64"
             style="fill:#b25ab4;fill-opacity:1;fill-rule:nonzero;stroke:none"
             id="path254" />
          <path
             d="m 3315.78,1.03125 h -12.04 c 4.32,27.68755 5.38,62.96095 4.15,102.51975 71.01,28.898 134.58,62.64 184.62,100.89 -33.34,-19.8 -106.56,-39.609 -186.78,-56.871 -2.12,32.551 -5.39,66.93 -9.37,101.621 41.66,17.161 85.77,36.957 131.58,59.629 -42.81,-7.761 -88.89,-14.191 -136.47,-19.5 -3.87,30.071 -8.13,59.91 -12.52,88.578 159.24,32.602 253.37,74.793 302.78,102.934 24.98,-66.023 49,-170.371 44.8,-323.691 0,-0.02 0,-0.012 0,-0.032 -0.01,-0.3 -0.02,-0.609 -0.03,-0.91 v -0.019 c -0.01,-0.301 -0.01,-0.59 -0.02,-0.891 0,-0.019 0,-0.039 0,-0.059 -0.01,-0.289 -0.02,-0.589 -0.03,-0.878 0,-0.02 0,-0.043 0,-0.063 -0.01,-0.277 -0.02,-0.578 -0.03,-0.859 0,-0.039 0,-0.051 0,-0.078 -0.01,-0.293 -0.02,-0.582 -0.03,-0.872 0,-0.019 0,-0.05 0,-0.07 -0.01,-0.281 -0.02,-0.57 -0.02,-0.859 -0.01,-0.02 -0.01,-0.059 -0.01,-0.082 -0.01,-0.278 -0.02,-0.547 -0.02,-0.821 -0.01,-0.039 -0.01,-0.109 -0.01,-0.136 -0.01,-0.27 -0.02,-0.532 -0.02,-0.801 -0.01,-0.039 -0.01,-0.102 -0.01,-0.141 -0.01,-0.269 -0.02,-0.519 -0.03,-0.789 0,-0.062 0,-0.101 0,-0.16 -0.01,-0.281 -0.02,-0.531 -0.03,-0.801 0,-0.039 0,-0.09 0,-0.129 -0.01,-0.281 -0.02,-0.562 -0.03,-0.839 0,-0.043 0,-0.071 -0.01,-0.102 -0.01,-0.27 -0.01,-0.531 -0.02,-0.801 -0.01,-0.058 -0.01,-0.097 -0.01,-0.16 -0.01,-0.277 -0.02,-0.559 -0.03,-0.84 0,-0.027 0,-0.058 0,-0.097 -0.01,-0.27 -0.02,-0.551 -0.03,-0.813 -0.01,-0.039 -0.01,-0.109 -0.01,-0.141 -0.01,-0.269 -0.02,-0.558 -0.03,-0.816 0,-0.043 0,-0.09 0,-0.133 -0.02,-0.269 -0.03,-0.539 -0.04,-0.808 0,-0.059 0,-0.09 0,-0.141 -0.01,-0.289 -0.02,-0.59 -0.04,-0.879 0,-0.019 0,-0.051 0,-0.07 -0.01,-0.27 -0.02,-0.539 -0.03,-0.809 0,-0.043 -0.01,-0.113 -0.01,-0.152 -0.01,-0.258 -0.02,-0.52 -0.03,-0.781 0,-0.047 0,-0.118 -0.01,-0.18 -0.01,-0.309 -0.02,-0.629 -0.03,-0.949 v 0 0 C 3528.61,74.1914 3422.15,30.4414 3315.78,1.03125"
             style="fill:#cd7ac3;fill-opacity:1;fill-rule:nonzero;stroke:none"
             id="path256" />
          <path
             d="M 2068.79,1.03125 H 1685.12 C 1680.8,28.7188 1679.74,64 1680.97,103.559 1798.96,55.5391 1937.52,20.8906 2068.79,1.03125 M 1965.6,98.1719 c -1.57,0 -3.16,0.1094 -4.76,0.3476 -55.14,8.1405 -172.45,26.4025 -277.71,49.0505 2.12,32.551 5.39,66.93 9.37,101.629 117.35,-48.308 215.44,-75.609 278.56,-86.867 17.26,-3.082 28.97,-19.211 26.41,-36.551 -2.37,-16.062 -16.12,-27.6091 -31.87,-27.6091 M 2221.46,264.68 c -126.62,0 -336.98,3.742 -524.07,24.64 3.87,30.071 8.14,59.91 12.52,88.578 133.28,-27.277 312.24,-47.847 548.75,-47.847 15.46,0 31.09,0.078 47.05,0.258 0.12,0 0.25,0 0.38,0 18.71,0 33.6,-15.848 32.4,-34.579 -1.08,-16.941 -14.94,-30.199 -31.91,-30.46 -19.99,-0.29 -49.19,-0.59 -85.12,-0.59"
             style="fill:#93449c;fill-opacity:1;fill-rule:nonzero;stroke:none"
             id="path258" />
          <path
             d="m 1560.93,534.441 c -68.52,21.539 -101.86,39.098 -103.11,39.77 1.25,-0.672 34.59,-18.231 103.11,-39.762 -0.01,-0.027 0,0.02 0,-0.008 m -103.12,39.77 -0.01,0.008 0.01,-0.008 m -0.01,0.008 c 0,0 0,0 -0.01,0 0.01,0 0.01,0 0.01,0 m -0.01,0 v 0 0 m 0,0.011 v 0 0"
             style="fill:#34152f;fill-opacity:1;fill-rule:nonzero;stroke:none"
             id="path260" />
          <path
             d="m 1728.99,493.02 c -63.78,12.121 -115.82,25.519 -156.59,37.878 0.59,-0.179 1.21,-0.359 1.85,-0.546 40.5,-12.204 91.9,-25.383 154.75,-37.321 v 0 m -167,41.078 c -0.36,0.11 -0.72,0.223 -1.07,0.332 0,0.028 -0.01,-0.019 0,0.008 0.06,-0.019 0.11,-0.027 0.17,-0.051 0.17,-0.058 0.47,-0.156 0.9,-0.289"
             style="fill:#d26864;fill-opacity:1;fill-rule:nonzero;stroke:none"
             id="path262" />
          <path
             d="m 1583.46,1.03125 h -284 C 1319.57,57.5117 1340.8,104.711 1362.98,138.18 v 0 0 0 0 c 0,0 88.36,-64.3987 220.48,-137.14875"
             style="fill:#933e96;fill-opacity:1;fill-rule:nonzero;stroke:none"
             id="path264" />
          <path
             d="m 1673.07,1.03125 h -89.61 C 1451.34,73.7813 1362.98,138.18 1362.98,138.18 v 0 C 1460.25,74.1914 1566.69,30.4414 1673.07,1.03125"
             style="fill:#b150ac;fill-opacity:1;fill-rule:nonzero;stroke:none"
             id="path266" />
          <path
             d="m 1673.08,1.03125 h -0.01 C 1566.69,30.4414 1460.25,74.1914 1362.98,138.18 1460.25,74.1914 1566.71,30.4414 1673.08,1.03125 M 1362.98,138.18 c -0.76,18.449 -1.13,36.218 -1.13,53.32 -0.08,279.789 95.93,382.73 95.93,382.73 0,0 0,0 0.01,0 v 0 c 0,-0.011 0,-0.011 0,-0.011 v 0 0 c 0.01,0 0.01,0 0.01,0 v 0 l 0.01,-0.008 c 0,0 0,0 0.01,0 1.25,-0.672 34.59,-18.231 103.11,-39.77 0.35,-0.109 0.71,-0.222 1.07,-0.332 1.62,-0.527 5.11,-1.64 10.4,-3.211 40.77,-12.359 92.81,-25.757 156.59,-37.878 -6,-33.739 -12.66,-73.149 -19.08,-115.122 -159.24,32.602 -253.37,74.793 -302.77,102.934 -26.01,-68.711 -50.96,-178.922 -44.16,-342.652"
             style="fill:#933e96;fill-opacity:1;fill-rule:nonzero;stroke:none"
             id="path268" />
          <path
             d="m 1574.25,530.352 c -0.64,0.187 -1.26,0.367 -1.85,0.546 -3.55,1.082 -7.02,2.153 -10.4,3.211 -0.43,0.133 -0.73,0.231 -0.9,0.289 4.25,-1.339 8.64,-2.687 13.15,-4.046"
             style="fill:#b55154;fill-opacity:1;fill-rule:nonzero;stroke:none"
             id="path270" />
          <path
             d="m 1572.4,530.898 c -5.29,1.571 -8.78,2.684 -10.4,3.211 3.38,-1.058 6.85,-2.129 10.4,-3.211"
             style="fill:#803279;fill-opacity:1;fill-rule:nonzero;stroke:none"
             id="path272" />
          <path
             d="m 1680.97,103.559 c -71.01,28.89 -134.57,62.632 -184.61,100.882 33.34,-19.8 106.55,-39.609 186.77,-56.871 -0.98,-15.121 -1.72,-29.84 -2.16,-44.011 m 11.53,145.64 c -41.66,17.153 -85.76,36.949 -131.57,59.621 42.81,-7.761 88.88,-14.191 136.46,-19.5 -1.71,-13.359 -3.35,-26.769 -4.89,-40.121"
             style="fill:#933e96;fill-opacity:1;fill-rule:nonzero;stroke:none"
             id="path274" />
          <path
             d="m 1685.12,1.03125 h -12.04 C 1566.71,30.4414 1460.25,74.1914 1362.98,138.18 v 0 0 c -6.8,163.73 18.15,273.941 44.16,342.652 49.4,-28.141 143.53,-70.332 302.77,-102.934 -4.38,-28.668 -8.65,-58.507 -12.52,-88.578 -47.58,5.309 -93.65,11.739 -136.46,19.5 45.81,-22.672 89.91,-42.468 131.57,-59.621 -3.98,-34.699 -7.25,-69.078 -9.37,-101.629 -80.22,17.262 -153.43,37.071 -186.77,56.871 50.04,-38.25 113.6,-71.992 184.61,-100.882 C 1679.74,64 1680.8,28.7188 1685.12,1.03125"
             style="fill:#7d397e;fill-opacity:1;fill-rule:nonzero;stroke:none"
             id="path276" />
          <path
             d="m 3018.19,2747.78 c 0.98,0.19 44.44,8.59 90.08,53.19 l -10.84,11.1 c -21.39,-20.91 -42.13,-33.2 -57.45,-40.26 -7.66,-3.53 -13.95,-5.76 -18.27,-7.08 -2.16,-0.66 -3.82,-1.1 -4.92,-1.37 l -1.2,-0.28 -0.26,-0.05 -0.03,-0.01 2.89,-15.24"
             style="fill:#bd464c;fill-opacity:1;fill-rule:nonzero;stroke:none"
             id="path278" />
          <path
             d="m 3110.61,2520.14 c 0.18,0.02 20.92,2.14 47.73,7.8 26.84,5.7 59.67,14.77 84.63,29.43 l -7.88,13.37 c -22.2,-13.13 -53.97,-22.16 -79.95,-27.62 -13,-2.74 -24.58,-4.64 -32.87,-5.84 -4.15,-0.6 -7.49,-1.03 -9.77,-1.31 -2.28,-0.28 -3.47,-0.4 -3.47,-0.4 l 1.58,-15.43"
             style="fill:#bd464c;fill-opacity:1;fill-rule:nonzero;stroke:none"
             id="path280" />
          <path
             d="m 1973.12,2763.09 -0.55,0.08 c -3.04,0.45 -18.31,2.99 -37.3,10.28 -19,7.28 -41.62,19.31 -59.7,38.4 l -11.26,-10.67 c 21.66,-22.82 48.28,-36.06 69.44,-43.71 21.17,-7.65 36.98,-9.71 37.38,-9.76 l 1.99,15.38"
             style="fill:#bd464c;fill-opacity:1;fill-rule:nonzero;stroke:none"
             id="path282" />
          <path
             d="m 1878.09,2535.56 -0.11,-0.02 c -0.74,-0.08 -4.83,-0.49 -11.44,-0.49 -20.98,0 -67.01,4.15 -112.3,35.39 l -8.81,-12.77 c 48.91,-33.68 98.19,-38.12 121.11,-38.13 8.28,0 13.17,0.58 13.44,0.62 l -1.89,15.4"
             style="fill:#bd464c;fill-opacity:1;fill-rule:nonzero;stroke:none"
             id="path284" />
          <path
             d="m 3335.86,1151.04 -0.12,-0.19 c -1.4,-2.33 -15.12,-24.65 -39.27,-50.12 -24.13,-25.49 -58.66,-54.02 -101.4,-69.28 l 5.22,-14.6 c 47.49,17 84.55,48.57 109.85,75.77 25.3,27.23 38.88,50.21 39.08,50.54 l -13.36,7.88"
             style="fill:#bd464c;fill-opacity:1;fill-rule:nonzero;stroke:none"
             id="path286" />
          <path
             d="m 1639.99,1142.61 c 0.22,-0.29 18.53,-26.15 48.5,-53.02 29.97,-26.8 71.66,-55.02 119.5,-58.54 l 1.11,15.48 c -42.2,2.92 -81.63,28.86 -110.26,54.61 -14.31,12.83 -25.92,25.52 -33.92,34.96 -3.99,4.72 -7.09,8.63 -9.17,11.34 -1.04,1.35 -1.83,2.41 -2.35,3.11 l -0.75,1.03 -12.66,-8.97"
             style="fill:#bd464c;fill-opacity:1;fill-rule:nonzero;stroke:none"
             id="path288" />
          <path
             d="m 1285.8,1868.92 c 0,0 0,0 0,0.01 0,-0.01 0,-0.01 0,-0.01 m -0.14,0.48 v 0.01 -0.01 m -0.04,0.12 v 0.01 -0.01 m -0.03,0.12 c 0,0.01 0,0 0,0.01 0,-0.01 0,0 0,-0.01 m -0.07,0.24 c 0,0 0,0 0,0.01 0,-0.01 0,-0.01 0,-0.01 m -0.03,0.11 c 0,0 0,0.01 0,0.02 0,-0.01 0,-0.02 0,-0.02 m -0.03,0.11 c 0,0.01 0,0.01 -0.01,0.02 0.01,-0.01 0.01,-0.01 0.01,-0.02 m -0.06,0.23 c -0.01,0.01 -0.01,0.02 -0.01,0.02 0,0 0,-0.01 0.01,-0.02 m -0.04,0.12 v 0.01 -0.01 m -0.03,0.11 c 0,0 0,0.01 0,0.02 0,-0.01 0,-0.02 0,-0.02 m -0.03,0.12 v 0 0 m -0.03,0.1 c 0,0.01 0,0.02 0,0.02 v -0.02 m -0.02,0.11 c -0.01,0.01 -0.01,0.01 -0.01,0.02 0,-0.01 0,-0.01 0.01,-0.02 m -0.03,0.1 c 0,0.01 -0.01,0.02 -0.01,0.03 0,-0.01 0.01,-0.02 0.01,-0.03 m -0.04,0.13 c 0,0 0,0 0,0.01 0,-0.01 0,0 0,-0.01 m -0.02,0.09 c 0,0.01 0,0.02 -0.01,0.03 0.01,-0.01 0.01,-0.02 0.01,-0.03 m -0.03,0.11 c 0,0.01 0,0.02 0,0.02 0,0 0,-0.01 0,-0.02 m -0.02,0.11 c -0.01,0.01 -0.01,0.02 -0.01,0.02 0,-0.01 0,-0.01 0.01,-0.02 m -0.03,0.12 c 0,0 -0.01,0 -0.01,0.01 l 0.01,-0.01 m -0.02,0.07 c -0.01,0.02 -0.01,0.03 -0.01,0.05 0,-0.02 0,-0.03 0.01,-0.05 m -0.02,0.09 c -0.01,0.02 -0.01,0.04 -0.02,0.06 0.01,-0.02 0.01,-0.04 0.02,-0.06 m -0.03,0.11 c -0.01,0.02 -0.01,0.04 -0.01,0.05 0,-0.01 0,-0.03 0.01,-0.05 m -0.15,0.65 c -0.01,0.01 -0.01,0.02 -0.01,0.04 0,-0.02 0,-0.03 0.01,-0.04 m -0.03,0.1 c 0,0.01 0,0.01 0,0.01 v -0.01 m -0.02,0.1 c 0,0.01 0,0.02 0,0.03 0,-0.01 0,-0.02 0,-0.03 m -0.02,0.1 c 0,0.01 0,0.02 -0.01,0.03 0.01,-0.01 0.01,-0.03 0.01,-0.03 m -0.02,0.09 c 0,0.01 -0.01,0.03 -0.01,0.04 0,-0.01 0.01,-0.03 0.01,-0.04 m -0.02,0.09 c 0,0.02 -0.01,0.03 -0.01,0.05 0,-0.02 0.01,-0.03 0.01,-0.05 m -0.02,0.1 c 0,0.01 0,0.03 -0.01,0.04 0.01,-0.01 0.01,-0.03 0.01,-0.04 m -0.02,0.09 c 0,0.01 0,0.03 -0.01,0.04 0.01,-0.01 0.01,-0.03 0.01,-0.04 m -0.02,0.09 c 0,0.02 0,0.03 0,0.04 0,-0.01 0,-0.03 0,-0.04 m -0.02,0.1 c 0,0.01 0,0.02 0,0.03 0,-0.01 0,-0.02 0,-0.03 m -0.01,0.09 c 0,0.01 -0.01,0.02 -0.01,0.02 0,0 0.01,-0.01 0.01,-0.02 m -0.02,0.09 c 0,0.01 0,0.02 -0.01,0.03 0.01,-0.01 0.01,-0.02 0.01,-0.03 m -0.02,0.09 c 0,0.01 0,0.02 0,0.03 0,-0.01 0,-0.02 0,-0.03 m -0.01,0.09 c -0.01,0.01 -0.01,0.02 -0.01,0.03 0,-0.01 0,-0.02 0.01,-0.03 m -0.02,0.09 v 0.02 -0.02 m -0.02,0.08 c 0,0.01 0,0.02 0,0.03 0,-0.01 0,-0.02 0,-0.03 m -0.01,0.08 c 0,0.02 0,0.03 -0.01,0.04 0.01,-0.01 0.01,-0.03 0.01,-0.04 m -0.01,0.09 c -0.01,0.01 -0.01,0.03 -0.01,0.04 0,-0.01 0,-0.03 0.01,-0.04 m -0.02,0.08 c 0,0.02 0,0.03 0,0.04 0,-0.01 0,-0.03 0,-0.04 m -0.01,0.09 c 0,0.01 -0.01,0.02 -0.01,0.04 0,-0.02 0.01,-0.03 0.01,-0.04 m -0.01,0.08 c -0.01,0.01 -0.01,0.03 -0.01,0.04 0,-0.02 0,-0.02 0.01,-0.04 m -0.02,0.09 c 0,0.01 0,0.02 0,0.03 0,-0.01 0,-0.02 0,-0.03 m -0.01,0.08 c 0,0.01 0,0.02 0,0.03 0,-0.01 0,-0.02 0,-0.03 m -0.01,0.08 c 0,0.01 0,0.02 -0.01,0.03 0.01,-0.01 0.01,-0.02 0.01,-0.03 m -0.01,0.08 c 0,0.01 -0.01,0.02 -0.01,0.03 0,-0.01 0.01,-0.02 0.01,-0.03 m -0.01,0.08 c -0.01,0.01 -0.01,0.02 -0.01,0.03 0,-0.01 0,-0.02 0.01,-0.03 m -0.01,0.08 c -0.01,0.01 -0.01,0.02 -0.01,0.03 0,-0.01 0,-0.02 0.01,-0.03 m -0.01,0.08 c -0.01,0.01 -0.01,0.02 -0.01,0.03 0,-0.01 0,-0.02 0.01,-0.03 m -0.01,0.07 c 0,0.01 -0.01,0.02 -0.01,0.03 0,-0.01 0.01,-0.02 0.01,-0.03 m -0.01,0.08 c 0,0.01 0,0.02 -0.01,0.03 0.01,-0.01 0.01,-0.02 0.01,-0.03 m -0.01,0.07 c 0,0.01 0,0.02 0,0.03 0,-0.01 0,-0.02 0,-0.03 m -0.01,0.08 c 0,0.01 0,0.02 0,0.03 0,-0.01 0,-0.02 0,-0.03 m -0.01,0.07 c 0,0.01 0,0.02 0,0.03 0,-0.01 0,-0.02 0,-0.03 m 0,0.07 c 0,0.01 -0.01,0.03 -0.01,0.04 0,-0.02 0.01,-0.03 0.01,-0.04 m -0.01,0.07 c 0,0.02 0,0.03 0,0.04 0,-0.01 0,-0.02 0,-0.04 m -0.01,0.08 c 0,0.01 0,0.02 0,0.03 0,-0.01 0,-0.02 0,-0.03 m 0,0.06 c 0,0.02 0,0.03 0,0.04 0,-0.01 0,-0.03 0,-0.04 m -0.01,0.07 c 0,0.01 0,0.03 0,0.04 0,-0.01 0,-0.03 0,-0.04 m 0,0.07 c 0,0.02 0,0.03 0,0.04 0,-0.01 0,-0.03 0,-0.04 m -0.01,0.07 c 0,0.01 0,0.02 0,0.04 0,-0.02 0,-0.03 0,-0.04 m 0,0.07 c 0,0.01 0,0.02 0,0.03 0,-0.01 0,-0.02 0,-0.03 m 0,0.07 c 0,0.01 0,0.02 0,0.03 0,-0.01 0,-0.02 0,-0.03 m -0.01,0.06 c 0,0.01 0,0.02 0,0.04 0,-0.02 0,-0.03 0,-0.04 m 0,0.06 c 0,0.01 0,0.03 0,0.04 0,-0.01 0,-0.03 0,-0.04 m 0,0.06 c 0,0.02 0,0.03 0,0.04 0,-0.01 0,-0.02 0,-0.04 m 0,0.07 c 0,0.01 0,0.02 0,0.04 0,-0.02 0,-0.03 0,-0.04 m 0,0.07 c 0,0.01 0,0.02 0,0.03 0,-0.01 0,-0.02 0,-0.03 m 0,0.18 c 0,0.01 0,0.02 0,0.02 0,0 0,-0.01 0,-0.02 m 2420.21,0.02 c 0,0 0,0 0,0.01 v -0.01 m -2420.21,0.1 c 0,0 0,0 0,0.01 v -0.01 m 2420.21,0.01 c 0,0.01 0,0.02 0,0.02 0,-0.01 0,-0.01 0,-0.02 m 0,0.06 c 0,0.01 0,0.02 0,0.02 0,0 0,-0.01 0,-0.02 m -2420.21,0.04 c 0,0 0,0 0,0.01 v -0.01 m 2420.21,0.01 c 0,0.01 0,0.03 0,0.04 0,-0.01 0,-0.03 0,-0.04 m 0,0.07 c 0,0.01 0,0.02 0,0.03 0,-0.01 0,-0.02 0,-0.03 m 0,0.07 c -0.01,0 -0.01,0.01 -0.01,0.02 0,-0.01 0.01,-0.02 0.01,-0.02 m -2420.21,0.06 c 0,0.01 0,0.01 0,0.01 0,0 0,0 0,-0.01 m 2420.2,0.01 v 0.01 c 0,0 0,0 0,-0.01 m 0,0.05 c 0,0.01 0,0.02 0,0.03 0,-0.01 0,-0.02 0,-0.03 m 0,0.07 c 0,0.01 0,0.02 0,0.02 0,-0.01 0,-0.01 0,-0.02 m 0,0.07 v 0.01 -0.01 m 0,0.14 v 0 0 m -2420.19,0.13 v 0 0"
             style="fill:#e8a6c8;fill-opacity:1;fill-rule:nonzero;stroke:none"
             id="path290" />
          <path
             d="m 2534.7,1453.34 c 2.54,76.64 9.06,159.65 17.01,238.62 7.07,0.13 14.11,0.29 21.15,0.46 4.49,-1.68 9.02,-3.34 13.56,-4.98 l 1.94,5.4 c 148.87,4.42 290.35,18.75 423.86,42.08 -31.94,-53.19 -61.18,-119.38 -78.81,-206.96 -120.47,-31.72 -253.64,-58.09 -398.71,-74.62"
             style="fill:#e26665;fill-opacity:1;fill-rule:nonzero;stroke:none"
             id="path292" />
          <path
             d="m 2933.41,1527.96 c 17.63,87.58 46.87,153.77 78.81,206.96 5.71,1 11.38,2.01 17.06,3.04 -32.43,-55.76 -61.81,-123.9 -84.98,-207.11 -3.63,-0.97 -7.23,-1.93 -10.89,-2.89"
             style="fill:#b63d40;fill-opacity:1;fill-rule:nonzero;stroke:none"
             id="path294" />
          <path
             d="m 2992.62,1544.26 c 41.56,86.18 93.27,157.64 146.84,216.14 109.39,24.79 212.82,55.91 309.96,92.8 4.16,-0.28 8.3,-0.54 12.47,-0.79 l 0.35,5.71 c 80.57,31.2 156.72,66.39 228.27,105.26 8.41,-42.63 13.75,-74.85 14.02,-86.25 v 0 c 0,-0.04 0,-0.08 0,-0.13 v -0.01 c 0,-0.02 0,-0.03 0,-0.05 0,0 0,-0.01 0,-0.02 0,-0.01 0,-0.03 0,-0.04 0,-0.01 0,-0.02 0,-0.03 0,-0.01 0,-0.03 0,-0.04 v -0.01 c 0,-0.02 0,-0.03 0,-0.05 0,-0.01 0,-0.02 0.01,-0.02 0,-0.02 0,-0.03 0,-0.04 0,-0.01 0,-0.02 0,-0.03 0,-0.01 0,-0.02 0,-0.03 0,-0.01 0,-0.03 0,-0.04 0,-0.01 0,-0.02 0,-0.03 0,0 0,-0.01 0,-0.02 0,-0.01 0,-0.02 0,-0.04 0,0 0,-0.01 0,-0.02 0,-0.03 0,-0.07 0,-0.1 0,-0.01 0,-0.01 0,-0.01 0,-0.04 0,-0.08 0,-0.11 v 0 c 0,0 -256.6,-201.21 -711.92,-332"
             style="fill:#e26665;fill-opacity:1;fill-rule:nonzero;stroke:none"
             id="path296" />
          <path
             d="m 2961.77,1535.59 c 24.09,83.8 54.53,151.48 87.79,206.13 30.41,5.76 60.35,11.99 89.9,18.68 -53.57,-58.5 -105.28,-129.96 -146.84,-216.14 -10.18,-2.93 -20.47,-5.82 -30.85,-8.67"
             style="fill:#c84f50;fill-opacity:1;fill-rule:nonzero;stroke:none"
             id="path298" />
          <path
             d="m 2494.43,1449.03 v 242.35 c 19.2,0.03 38.31,0.23 57.28,0.58 -7.95,-78.97 -14.47,-161.98 -17.01,-238.62 -13.29,-1.52 -26.79,-2.96 -40.27,-4.31"
             style="fill:#c84f50;fill-opacity:1;fill-rule:nonzero;stroke:none"
             id="path300" />
          <path
             d="m 2944.3,1530.85 c 23.17,83.21 52.55,151.35 84.98,207.11 6.76,1.22 13.57,2.49 20.28,3.76 -33.26,-54.65 -63.7,-122.33 -87.79,-206.13 -5.79,-1.59 -11.62,-3.17 -17.47,-4.74"
             style="fill:#ad3a3f;fill-opacity:1;fill-rule:nonzero;stroke:none"
             id="path302" />
          <path
             d="m 2203.07,1434.62 c -44.04,0 -88.93,0.97 -134.61,3.01 -11.66,127.47 -45.86,217.34 -85.24,286.08 126.34,-16.34 261.7,-26.77 405,-30.88 0.58,-0.02 1.22,-0.03 1.8,-0.05 15.84,-0.45 31.47,-0.78 47.16,-1.02 8.21,-81.67 14.9,-167.65 17.23,-246.44 -80.42,-6.89 -164.31,-10.7 -251.34,-10.7"
             style="fill:#e26665;fill-opacity:1;fill-rule:nonzero;stroke:none"
             id="path304" />
          <path
             d="m 2068.46,1437.63 c -0.67,0.03 -1.31,0.06 -1.97,0.09 -23.58,120.41 -59.14,214.59 -100.07,288.2 5.56,-0.75 11.2,-1.49 16.8,-2.21 39.38,-68.74 73.58,-158.61 85.24,-286.08"
             style="fill:#b63d40;fill-opacity:1;fill-rule:nonzero;stroke:none"
             id="path306" />
          <path
             d="m 2038.92,1439.09 c -181.86,9.88 -376.3,36.7 -582.04,86.08 -81.05,154.76 -159.45,304.91 -171.08,343.75 0,0 0,0 0,0.01 -0.05,0.16 -0.09,0.32 -0.14,0.47 v 0.01 c -0.01,0.04 -0.02,0.07 -0.04,0.11 v 0.01 c -0.01,0.04 -0.02,0.07 -0.03,0.11 0,0.01 0,0 0,0.01 -0.02,0.07 -0.05,0.15 -0.07,0.23 0,0 0,0 0,0.01 -0.01,0.03 -0.02,0.07 -0.03,0.1 0,0 0,0.01 0,0.02 -0.01,0.03 -0.02,0.06 -0.03,0.09 0,0.01 0,0.01 -0.01,0.02 -0.02,0.07 -0.03,0.14 -0.05,0.21 -0.01,0.01 -0.01,0.02 -0.01,0.02 -0.01,0.03 -0.02,0.06 -0.03,0.1 v 0.01 c -0.01,0.03 -0.02,0.07 -0.03,0.1 0,0 0,0.01 0,0.02 -0.01,0.03 -0.02,0.07 -0.03,0.1 v 0 c -0.01,0.04 -0.02,0.07 -0.03,0.1 v 0.02 c -0.01,0.03 -0.02,0.06 -0.02,0.09 -0.01,0.01 -0.01,0.01 -0.01,0.02 -0.01,0.03 -0.01,0.06 -0.02,0.08 0,0.01 -0.01,0.02 -0.01,0.03 -0.01,0.03 -0.02,0.07 -0.03,0.1 0,0.01 0,0 0,0.01 0,0.03 -0.01,0.05 -0.02,0.08 0,0.01 0,0.02 -0.01,0.03 0,0.03 -0.01,0.06 -0.02,0.08 0,0.01 0,0.02 0,0.02 -0.01,0.03 -0.02,0.06 -0.02,0.09 -0.01,0.01 -0.01,0.01 -0.01,0.02 -0.01,0.04 -0.02,0.07 -0.02,0.1 l -0.01,0.01 c 0,0.02 -0.01,0.04 -0.01,0.06 -0.01,0.02 -0.01,0.03 -0.01,0.05 -0.01,0.01 -0.01,0.02 -0.01,0.04 -0.01,0.02 -0.01,0.04 -0.02,0.06 0,0.02 -0.01,0.03 -0.01,0.05 -0.01,0.02 -0.01,0.04 -0.01,0.05 -0.05,0.21 -0.1,0.41 -0.14,0.6 -0.01,0.01 -0.01,0.02 -0.01,0.04 -0.01,0.02 -0.01,0.04 -0.02,0.06 v 0.01 c 0,0.03 -0.01,0.06 -0.02,0.09 0,0.01 0,0.02 0,0.03 -0.01,0.02 -0.01,0.04 -0.02,0.07 0,0 0,0.02 -0.01,0.03 0,0.02 0,0.04 -0.01,0.06 0,0.01 -0.01,0.03 -0.01,0.04 0,0.02 -0.01,0.04 -0.01,0.05 0,0.02 -0.01,0.03 -0.01,0.05 0,0.01 -0.01,0.03 -0.01,0.05 0,0.01 0,0.03 -0.01,0.04 0,0.02 0,0.03 -0.01,0.05 0,0.01 0,0.03 -0.01,0.04 0,0.02 0,0.04 -0.01,0.05 0,0.01 0,0.03 0,0.04 -0.01,0.02 -0.01,0.04 -0.02,0.06 0,0.01 0,0.02 0,0.03 -0.01,0.02 -0.01,0.04 -0.01,0.06 0,0.01 -0.01,0.02 -0.01,0.02 0,0.03 -0.01,0.05 -0.01,0.07 0,0.01 0,0.02 -0.01,0.03 0,0.02 0,0.04 -0.01,0.06 0,0.01 0,0.02 0,0.03 -0.01,0.02 -0.01,0.04 -0.01,0.06 -0.01,0.01 -0.01,0.02 -0.01,0.03 0,0.02 -0.01,0.04 -0.01,0.06 v 0.02 c -0.01,0.02 -0.01,0.04 -0.02,0.06 0,0.01 0,0.02 0,0.03 0,0.02 -0.01,0.04 -0.01,0.05 0,0.01 0,0.03 -0.01,0.04 0,0.02 0,0.04 0,0.05 -0.01,0.01 -0.01,0.03 -0.01,0.04 0,0.02 -0.01,0.03 -0.01,0.04 0,0.01 0,0.03 0,0.04 -0.01,0.02 -0.01,0.03 -0.01,0.05 0,0.01 -0.01,0.02 -0.01,0.04 0,0.01 0,0.03 0,0.04 -0.01,0.02 -0.01,0.02 -0.01,0.04 0,0.01 -0.01,0.03 -0.01,0.05 0,0.01 0,0.02 0,0.03 0,0.02 -0.01,0.03 -0.01,0.05 0,0.01 0,0.02 0,0.03 -0.01,0.02 -0.01,0.03 -0.01,0.05 0,0.01 0,0.02 -0.01,0.03 0,0.02 0,0.03 0,0.05 0,0.01 -0.01,0.02 -0.01,0.03 0,0.02 0,0.03 0,0.05 -0.01,0.01 -0.01,0.02 -0.01,0.03 0,0.02 0,0.03 0,0.05 -0.01,0.01 -0.01,0.02 -0.01,0.03 0,0.01 0,0.03 0,0.05 -0.01,0.01 -0.01,0.02 -0.01,0.03 0,0.01 0,0.03 0,0.04 0,0.01 -0.01,0.02 -0.01,0.03 0,0.02 0,0.03 0,0.05 0,0.01 0,0.02 -0.01,0.03 0,0.01 0,0.03 0,0.04 0,0.01 0,0.02 0,0.03 -0.01,0.02 -0.01,0.03 -0.01,0.05 0,0.01 0,0.02 0,0.03 0,0.01 0,0.02 -0.01,0.04 0,0.01 0,0.02 0,0.03 0,0.02 0,0.03 0,0.04 0,0.01 -0.01,0.02 -0.01,0.04 0,0.01 0,0.02 0,0.03 0,0.02 0,0.03 0,0.04 0,0.01 0,0.02 -0.01,0.04 0,0.01 0,0.02 0,0.03 0,0.01 0,0.02 0,0.03 0,0.01 0,0.03 0,0.04 0,0.01 -0.01,0.02 -0.01,0.03 0,0.01 0,0.03 0,0.04 0,0.01 0,0.02 0,0.03 0,0.01 0,0.03 0,0.04 0,0.01 0,0.02 -0.01,0.03 0,0.01 0,0.02 0,0.04 0,0.01 0,0.02 0,0.03 0,0.01 0,0.02 0,0.03 0,0.01 0,0.03 0,0.04 0,0.01 0,0.02 0,0.03 0,0.01 0,0.02 -0.01,0.03 0,0.01 0,0.02 0,0.04 0,0 0,0.01 0,0.02 0,0.01 0,0.03 0,0.04 0,0.01 0,0.01 0,0.02 0,0.02 0,0.03 0,0.04 0,0.01 0,0.02 0,0.03 0,0.01 0,0.02 0,0.04 0,0.01 0,0.02 0,0.03 0,0.01 0,0.02 0,0.03 0,0.02 0,0.04 0,0.06 v 0 c 0,0.03 0,0.06 0,0.09 0,0.01 0,0.02 0,0.02 0,0.03 0,0.06 0,0.1 v 0.01 c 0,0.03 0,0.06 0,0.1 v 0.01 c 0,0.07 0,0.13 0,0.2 0,0.01 0,0.01 0,0.01 0,0.15 0.01,0.3 0.01,0.46 v 0 c 0.18,6.51 1.95,19.6 4.98,37.42 94.22,-47.23 204.13,-87.66 327.86,-120.62 4.14,-2.98 8.31,-5.93 12.54,-8.87 l 3.28,4.71 c 73.3,-18.97 151.36,-35.36 233.81,-49.05 67.54,-78.07 130.6,-177.44 172.11,-301.76"
             style="fill:#e26665;fill-opacity:1;fill-rule:nonzero;stroke:none"
             id="path308" />
          <path
             d="m 2050.51,1438.49 c -3.86,0.19 -7.72,0.39 -11.59,0.6 -41.51,124.32 -104.57,223.69 -172.11,301.76 26.29,-4.36 53.12,-8.47 80.29,-12.28 42.05,-72.71 78.98,-167.2 103.41,-290.08"
             style="fill:#c84f50;fill-opacity:1;fill-rule:nonzero;stroke:none"
             id="path310" />
          <path
             d="m 2454.41,1445.32 c -2.33,78.79 -9.02,164.77 -17.23,246.44 17.27,-0.25 34.5,-0.38 51.59,-0.38 h 0.01 v 0 0 h 0.06 c 1.9,0 3.69,0 5.59,0 v -242.35 c -13.29,-1.32 -26.54,-2.55 -40.02,-3.71"
             style="fill:#b43b3f;fill-opacity:1;fill-rule:nonzero;stroke:none"
             id="path312" />
          <path
             d="m 2066.49,1437.72 c -5.32,0.24 -10.65,0.5 -15.98,0.77 -24.43,122.88 -61.36,217.37 -103.41,290.08 6.44,-0.9 12.83,-1.78 19.32,-2.65 40.93,-73.61 76.49,-167.79 100.07,-288.2"
             style="fill:#ad3a3f;fill-opacity:1;fill-rule:nonzero;stroke:none"
             id="path314" />
        </g>
      </g>
      <path
         d="m 2190.73,2994 c 0,0 619.06,-59.26 850.73,-17.49 303.83,-273.44 364.59,-846.92 364.59,-846.92 L 2319.86,2182.75 2190.73,2994"
         style="fill:#a54aab;fill-opacity:1;fill-rule:nonzero;stroke:none"
         id="path316" />
      <path
         d="m 3014.87,2842.67 c 0,0 -280.18,-189.45 -337.57,-324.04 193.25,-81.41 642.03,-311.43 888.58,-215.41 -171.22,202.36 -551.01,539.45 -551.01,539.45"
         style="fill:#da6466;fill-opacity:1;fill-rule:nonzero;stroke:none"
         id="path318" />
      <path
         d="m 3214.26,2889.16 c 0,0 -385.48,-197.72 -510.82,-463.46 -155.71,68.48 -155.71,68.48 -155.71,68.48 0,0 387.38,432.96 592.47,478.54 205.09,45.57 74.06,-83.56 74.06,-83.56"
         style="fill:#643564;fill-opacity:1;fill-rule:nonzero;stroke:none"
         id="path320" />
      <path
         d="m 4157.01,3136.74 c 0,0 316.25,-429.87 -25.56,-824.85 -341.81,-394.99 -949.47,-641.84 -1743.23,-619.06 -793.75,22.79 -1344.44,239.27 -1462.173,581.08 -117.734,341.81 34.18,827.93 360.793,874.77 326.62,46.84 459.54,-62.03 683.62,-130.39 0,0 687.42,-643.98 1344.45,-715.07 486.12,-14.12 974,469.63 842.1,833.52"
         style="fill:#a54aab;fill-opacity:1;fill-rule:nonzero;stroke:none"
         id="path322" />
      <path
         d="m 3747.02,3348.13 c 0,0 376.83,31.76 464.19,-354.13 87.34,-385.88 -193.69,-853.02 -858.32,-739.08 -664.63,113.94 -1348.25,573.48 -1382.43,763.37 110.14,41.78 220.27,-24.29 220.27,-24.29 0,0 262.06,-473.23 1135.57,-636.54 369.11,-28.66 792.07,663.48 420.72,990.67"
         style="fill:#643564;fill-opacity:1;fill-rule:nonzero;stroke:none"
         id="path324" />
      <path
         d="m 2872.3,2962.5 v 0 c 20.9,0.54 41.07,1.34 60.3,2.44 v -0.01 c -19.22,-1.1 -39.41,-1.9 -60.3,-2.44 m 75.96,3.41 c 0,0.01 0,0.01 0,0.01 10.32,0.7 20.34,1.49 30.01,2.38 v -0.01 c -9.67,-0.89 -19.68,-1.68 -30.01,-2.38"
         style="fill:#a74c58;fill-opacity:1;fill-rule:nonzero;stroke:none"
         id="path326" />
      <path
         d="m 2932.6,2964.93 v 0.01 c 5.29,0.3 10.51,0.62 15.66,0.97 0,0 0,0 0,-0.01 -5.15,-0.35 -10.35,-0.67 -15.66,-0.97"
         style="fill:#802734;fill-opacity:1;fill-rule:nonzero;stroke:none"
         id="path328" />
      <path
         d="m 2872.34,2809.43 c -5.49,61.96 -3.22,116.47 -0.04,153.07 20.89,0.53 41.08,1.33 60.3,2.43 5.31,0.3 10.51,0.62 15.66,0.97 10.33,0.7 20.34,1.49 30.01,2.38 -1.87,-23.73 -2.97,-50.48 -2.7,-79.29 -33.96,-23.73 -68.81,-50.88 -103.23,-79.56"
         style="fill:#763281;fill-opacity:1;fill-rule:nonzero;stroke:none"
         id="path330" />
      <path
         d="m 3264.42,2369.75 c -67.98,14.31 -131.99,30.49 -192.33,48.17 -94.31,65.64 -146.2,158.89 -173.86,252.03 30.08,26.91 60.83,51.85 90.77,74.54 26.88,-146.39 100.43,-301.89 275.42,-374.74"
         style="fill:#943d49;fill-opacity:1;fill-rule:nonzero;stroke:none"
         id="path332" />
      <path
         d="m 2898.23,2669.95 c -14.18,47.77 -21.99,95.49 -25.89,139.48 34.42,28.68 69.27,55.83 103.23,79.56 0.43,-44.56 4.16,-94.01 13.43,-144.5 -29.94,-22.69 -60.69,-47.63 -90.77,-74.54"
         style="fill:#421e40;fill-opacity:1;fill-rule:nonzero;stroke:none"
         id="path334" />
      <path
         d="m 3408.99,2327.33 c -149.19,0 -257.92,35.61 -336.9,90.59 60.34,-17.68 124.35,-33.86 192.33,-48.17 54.29,-22.6 118.31,-37.23 193.78,-41.18 -16.88,-0.83 -33.26,-1.24 -49.21,-1.24"
         style="fill:#421e40;fill-opacity:1;fill-rule:nonzero;stroke:none"
         id="path336" />
      <path
         d="m 3604.81,2333.41 c 0,0 344.34,-35.45 460.81,268.38 116.47,303.83 0,658.3 -268.39,734.25 -268.38,75.96 -379.78,-65.83 -501.32,-131.66 -121.53,-65.83 -296.23,-10.12 -316.48,-222.8 -20.25,-212.68 17.72,-714 625.38,-648.17"
         style="fill:#f57c79;fill-opacity:1;fill-rule:nonzero;stroke:none"
         id="path338" />
      <path
         d="m 3387.07,2920.81 c 0.33,-20.26 5.33,-38.41 12.73,-54.97 7.43,-16.59 18.11,-31.29 30.3,-44.88 5.77,-7.09 12.81,-13.17 19.41,-19.74 6.81,-6.38 14.32,-12.14 21.38,-18.57 7.72,-5.58 15.04,-11.98 22.82,-17.92 7.86,-5.85 15.84,-11.66 23.48,-18.62 -9.99,1.78 -19.65,4.69 -29.43,7.57 -9.44,3.58 -18.73,7.78 -27.95,12.21 -8.78,5.21 -17.67,10.45 -25.88,16.77 -8.02,6.6 -16.11,13.18 -22.91,21.33 -14,15.6 -25.32,34.59 -30.21,55.5 -4.68,20.7 -3.97,43.32 6.26,61.32"
         style="fill:#6c1417;fill-opacity:1;fill-rule:nonzero;stroke:none"
         id="path340" />
      <path
         d="m 3326.3,3077.79 c -12.52,1.3 -23.78,7.62 -33.08,15.82 -9.22,8.33 -16.83,18.89 -21.31,30.71 -4.38,11.78 -6.85,24.43 -5.61,36.76 0.08,6.17 1.9,12.19 3.37,18.03 2.06,5.79 4.57,11.38 7.91,16.57 2.28,-6.04 3.14,-11.65 4.62,-17.13 1.77,-5.43 2.34,-10.75 4.12,-15.8 2.37,-10.28 5.99,-19.68 9.34,-29.02 3.5,-9.35 8,-18.22 12.99,-27.36 5.06,-9.2 10.77,-18.3 17.65,-28.58"
         style="fill:#6c1417;fill-opacity:1;fill-rule:nonzero;stroke:none"
         id="path342" />
      <path
         d="m 3214.26,3023.98 c 0,0 -70.26,-9.49 -5.7,-64.56 -51.27,18.99 -68.36,87.35 5.7,64.56"
         style="fill:#6c1417;fill-opacity:1;fill-rule:nonzero;stroke:none"
         id="path344" />
      <path
         d="m 3597.85,2948.03 c 0,0 11.39,-123.43 -13.29,-188 -24.69,-64.56 70.25,11.4 74.05,87.36 3.8,75.95 -62.38,125.24 -60.76,100.64"
         style="fill:#da6466;fill-opacity:1;fill-rule:nonzero;stroke:none"
         id="path346" />
      <path
         d="m 3438.34,3195.68 c 13.86,-26.83 19.01,41.84 -19.6,87.98 -13.01,-8.22 -25.61,-16.61 -37.92,-24.96 20.61,-17.99 47.51,-43.65 57.52,-63.02"
         style="fill:#da6466;fill-opacity:1;fill-rule:nonzero;stroke:none"
         id="path348" />
      <path
         d="m 3383.93,2571.46 c -28.89,0 -60.94,29.82 -76.24,73.55 -17.65,50.49 -6.29,100.39 25.39,111.47 4.24,1.49 8.63,2.2 13.1,2.2 28.89,0 60.93,-29.82 76.23,-73.55 17.65,-50.49 6.29,-100.4 -25.38,-111.48 -4.24,-1.48 -8.63,-2.19 -13.1,-2.19"
         style="fill:#f35c60;fill-opacity:1;fill-rule:nonzero;stroke:none"
         id="path350" />
      <path
         d="m 3179.7,3167.82 c 14.96,3.51 29.81,7.11 45.34,10.96 -0.02,-0.25 -0.03,-0.5 -0.05,-0.75 -15,-3.85 -30.2,-7.07 -45.29,-10.21"
         style="fill:#f794ba;fill-opacity:1;fill-rule:nonzero;stroke:none"
         id="path352" />
      <path
         d="m 3178.29,3118.57 c -18.58,0 -36.23,13.68 -52.53,37.19 18.98,4.04 36.54,7.98 53.94,12.06 15.09,3.14 30.29,6.36 45.29,10.21 -1.77,-28.01 -13.61,-50.2 -33.45,-57.14 -4.46,-1.56 -8.88,-2.32 -13.25,-2.32"
         style="fill:#f35c60;fill-opacity:1;fill-rule:nonzero;stroke:none"
         id="path354" />
      <path
         d="m 3774.45,2330.88 c 0,-77.61 -62.91,-140.53 -140.53,-140.53 -77.6,0 -140.51,62.92 -140.51,140.53 0,77.61 62.91,140.52 140.51,140.52 77.62,0 140.53,-62.91 140.53,-140.52"
         style="fill:#f57c79;fill-opacity:1;fill-rule:nonzero;stroke:none"
         id="path356" />
      <path
         d="m 3565.38,2416.08 c -17.44,0 -34.07,-3.32 -49.48,-9.13 -14.17,-21.94 -22.49,-48.01 -22.49,-76.07 0,-77.61 62.91,-140.53 140.51,-140.53 17.45,0 34.07,3.33 49.49,9.14 14.17,21.94 22.49,48.01 22.49,76.08 0,77.6 -62.91,140.51 -140.52,140.51"
         style="fill:#da6466;fill-opacity:1;fill-rule:nonzero;stroke:none"
         id="path358" />
      <path
         d="m 1983.29,2988.19 c -0.11,0.01 -13.01,0.79 -35.93,0.79 -83.82,-0.02 -301.65,-10.31 -517.41,-106.87 -215.73,-96.45 -429.52,-279.96 -502.915,-624.86 l 11.246,-2.39 c 72.749,341.03 282.949,521.1 496.369,616.76 213.37,95.54 429.83,105.88 512.71,105.86 11.33,0 20.17,-0.19 26.16,-0.39 5.98,-0.19 9.07,-0.37 9.08,-0.37 l 0.69,11.47"
         style="fill:#3e1d3e;fill-opacity:1;fill-rule:nonzero;stroke:none"
         id="path360" />
      <path
         d="m 1224.62,2755.85 c -0.05,-0.27 -10.63,-56.96 -10.63,-145.94 0,-101.37 13.72,-244.67 72.56,-394.15 58.82,-149.46 162.88,-305.09 343.17,-430.57 l 6.57,9.44 c -178.29,124.12 -280.87,277.63 -339.04,425.35 -58.15,147.69 -71.77,289.59 -71.76,389.93 0,44.03 2.62,80.06 5.23,105.04 1.31,12.49 2.62,22.22 3.59,28.81 0.49,3.29 0.89,5.81 1.18,7.48 0.28,1.68 0.43,2.49 0.43,2.49 l -11.3,2.12 v 0"
         style="fill:#3e1d3e;fill-opacity:1;fill-rule:nonzero;stroke:none"
         id="path362" />
      <path
         d="m 1737.78,2966.44 c 0.03,-0.38 13.48,-248.15 126.15,-531.94 112.63,-283.71 324.85,-603.88 722.49,-747.06 l 3.89,10.82 c -393.47,141.67 -603.67,458.46 -715.69,740.48 -55.98,140.98 -87.34,273.15 -104.68,370.04 -8.67,48.44 -13.85,88.06 -16.85,115.54 -1.5,13.75 -2.46,24.45 -3.04,31.72 -0.58,7.26 -0.79,11.01 -0.79,11.02 l -11.48,-0.62"
         style="fill:#3e1d3e;fill-opacity:1;fill-rule:nonzero;stroke:none"
         id="path364" />
      <path
         d="m 1820.85,2974.76 c 0.19,-0.38 120.65,-263.07 385.95,-534.74 265.26,-271.64 675.68,-552.33 1255.09,-587.61 l 0.7,11.47 c -575.92,35.1 -983.57,313.9 -1247.56,584.18 -131.97,135.12 -227.96,268.08 -290.91,367.23 -31.49,49.57 -54.71,90.68 -70.05,119.38 -7.67,14.35 -13.38,25.59 -17.15,33.24 -1.89,3.82 -3.3,6.74 -4.23,8.7 -0.94,1.96 -1.38,2.94 -1.38,2.94 l -10.46,-4.79"
         style="fill:#3e1d3e;fill-opacity:1;fill-rule:nonzero;stroke:none"
         id="path366" />
      <path
         d="m 1606.93,3146.25 c -0.22,-0.15 -47.2,-29.97 -96.95,-80.06 -49.69,-50.1 -102.44,-120.5 -113.15,-202.5 l 11.41,-1.48 c 10.04,77.9 61.04,146.73 109.9,195.87 24.4,24.58 48.2,44.24 65.86,57.72 8.84,6.75 16.14,11.95 21.22,15.46 2.54,1.75 4.52,3.08 5.86,3.97 1.35,0.89 2.02,1.31 2.02,1.31 l -6.17,9.71"
         style="fill:#3e1d3e;fill-opacity:1;fill-rule:nonzero;stroke:none"
         id="path368" />
      <path
         d="m 3777.64,2330.88 c -0.01,0.3 0,31.15 -17.94,64.64 -17.89,33.51 -54.16,69.48 -125.35,79.04 l -0.85,-6.33 c 69.33,-9.43 103.33,-43.72 120.57,-75.72 8.59,-16.02 12.9,-31.49 15.05,-42.94 1.07,-5.72 1.61,-10.43 1.87,-13.69 0.14,-1.63 0.2,-2.9 0.23,-3.75 l 0.04,-1.25 h 6.38"
         style="fill:#ae4449;fill-opacity:1;fill-rule:nonzero;stroke:none"
         id="path370" />
      <path
         d="m 3990.6,3031.23 c -20.94,0 -57,23.59 -87.02,61.12 -53.17,66.46 -166.75,153.81 -267.58,157.61 -99.43,3.75 -78.48,60.8 -27.02,60.8 0.71,0 1.43,-0.01 2.16,-0.03 0,0 5.06,0.38 14.1,0.38 56.55,0 269.03,-15.04 377.08,-233.32 11.58,-32.52 4.43,-46.56 -11.72,-46.56"
         style="fill:#f79897;fill-opacity:1;fill-rule:nonzero;stroke:none"
         id="path372" />
      <path
         d="m 4019.41,2888.28 c -26.22,0 -47.47,21.26 -47.47,47.48 0,26.21 21.25,47.47 47.47,47.47 26.22,0 47.47,-21.26 47.47,-47.47 0,-26.22 -21.25,-47.48 -47.47,-47.48"
         style="fill:#f79897;fill-opacity:1;fill-rule:nonzero;stroke:none"
         id="path374" />
      <path
         d="m 2551.71,1691.96 v 0 c 7.07,0.13 14.11,0.29 21.15,0.46 v 0 c -7.04,-0.17 -14.08,-0.33 -21.15,-0.46"
         style="fill:#a8464f;fill-opacity:1;fill-rule:nonzero;stroke:none"
         id="path376" />
      <path
         d="m 2494.43,1691.38 v 0 c 19.2,0.04 38.31,0.23 57.28,0.58 v 0 c -18.97,-0.35 -38.08,-0.55 -57.28,-0.58"
         style="fill:#94353d;fill-opacity:1;fill-rule:nonzero;stroke:none"
         id="path378" />
      <path
         d="m 2488.84,1691.38 c 1.9,0 3.69,0 5.59,0 v 0 c -1.9,0 -3.69,0 -5.59,0"
         style="fill:#84262f;fill-opacity:1;fill-rule:nonzero;stroke:none"
         id="path380" />
      <path
         d="m 1866.81,1740.85 c -82.45,13.69 -160.51,30.08 -233.81,49.05 v 0 c 73.33,-18.98 151.32,-35.36 233.81,-49.05 v 0"
         style="fill:#a8464f;fill-opacity:1;fill-rule:nonzero;stroke:none"
         id="path382" />
      <path
         d="m 1966.42,1725.92 c -6.49,0.87 -12.88,1.75 -19.32,2.65 v 0 c 6.44,-0.9 12.83,-1.78 19.32,-2.65 v 0"
         style="fill:#80242f;fill-opacity:1;fill-rule:nonzero;stroke:none"
         id="path384" />
      <path
         d="m 2488.78,1691.38 h -0.01 c -32.56,0 -65.53,0.46 -98.75,1.4 -0.58,0.02 -1.22,0.03 -1.8,0.05 -143.3,4.11 -278.66,14.54 -405,30.88 -5.6,0.72 -11.24,1.46 -16.8,2.21 -6.49,0.87 -12.88,1.75 -19.32,2.65 -27.17,3.81 -54,7.92 -80.29,12.28 -82.49,13.69 -160.48,30.07 -233.81,49.05 l 3.29,4.73 c -66.2,46.08 -121.96,96.22 -168.88,148.61 82.75,-24.42 159.89,-36.41 220.54,-36.41 106.1,0.01 161.82,36.68 109.07,107.55 -102.92,138.31 -77.15,223.5 1.11,223.5 44.95,0 107.21,-28.12 172.33,-90.4 25.65,-24.53 57.58,-49.45 94.5,-74 120.2,-157.28 284.25,-297.38 507.9,-381.06 -7.04,-0.17 -14.08,-0.33 -21.15,-0.46 -18.97,-0.35 -38.08,-0.54 -57.28,-0.58 v 0 c -1.9,0 -3.69,0 -5.59,0 h -0.06"
         style="fill:#80378c;fill-opacity:1;fill-rule:nonzero;stroke:none"
         id="path386" />
      <path
         d="m 2588.36,1692.84 v 0.01 c 148.87,4.41 290.36,18.74 423.87,42.08 l -0.01,-0.01 c -133.51,-23.33 -274.99,-37.66 -423.86,-42.08"
         style="fill:#a8464f;fill-opacity:1;fill-rule:nonzero;stroke:none"
         id="path388" />
      <path
         d="m 3012.22,1734.92 0.01,0.01 c 5.71,1 11.38,2.01 17.06,3.04 -0.01,-0.01 0,0 -0.01,-0.01 -5.68,-1.03 -11.35,-2.04 -17.06,-3.04"
         style="fill:#86282f;fill-opacity:1;fill-rule:nonzero;stroke:none"
         id="path390" />
      <path
         d="m 3139.46,1760.4 c 0.02,0.02 0,0 0.01,0.02 109.34,24.78 212.81,55.91 309.92,92.79 l 0.03,-0.01 c -97.14,-36.89 -200.57,-68.01 -309.96,-92.8"
         style="fill:#a8464f;fill-opacity:1;fill-rule:nonzero;stroke:none"
         id="path392" />
      <path
         d="m 3049.56,1741.72 c 0.01,0.01 0,0 0.01,0.01 30.41,5.76 60.35,11.99 89.9,18.69 -0.01,-0.02 0.01,0 -0.01,-0.02 -29.55,-6.69 -59.49,-12.92 -89.9,-18.68"
         style="fill:#94353d;fill-opacity:1;fill-rule:nonzero;stroke:none"
         id="path394" />
      <path
         d="m 3029.28,1737.96 c 0.01,0.01 0,0 0.01,0.01 6.76,1.22 13.56,2.49 20.28,3.76 -0.01,-0.01 0,0 -0.01,-0.01 -6.71,-1.27 -13.52,-2.54 -20.28,-3.76"
         style="fill:#80242f;fill-opacity:1;fill-rule:nonzero;stroke:none"
         id="path396" />
      <path
         d="m 2588.36,1692.85 1.95,5.41 c -215.75,77.69 -376.42,208.04 -495.99,356.43 191.43,-118.11 492.39,-222.36 751.14,-222.36 44.88,0 88.51,3.14 130.06,9.89 81.08,13.16 121.64,36.24 132.88,65.2 106.38,-27.22 219.98,-46.08 340.99,-54.21 -97.11,-36.88 -200.58,-68.01 -309.92,-92.79 -29.55,-6.7 -59.49,-12.93 -89.9,-18.69 -6.72,-1.27 -13.52,-2.54 -20.28,-3.76 -5.68,-1.03 -11.35,-2.04 -17.06,-3.04 -133.51,-23.34 -275,-37.67 -423.87,-42.08"
         style="fill:#80378c;fill-opacity:1;fill-rule:nonzero;stroke:none"
         id="path398" />
      <path
         d="m 1289.31,1914.68 c -180.22,90.34 -303.228,205.61 -356.685,341.38 h 0.004 c 53.457,-135.77 176.461,-251.04 356.681,-341.38 v 0"
         style="fill:#ba8cbb;fill-opacity:1;fill-rule:nonzero;stroke:none"
         id="path400" />
      <path
         d="m 1289.32,1914.68 h -0.01 v 0 h 0.01 v 0"
         style="fill:#b5565f;fill-opacity:1;fill-rule:nonzero;stroke:none"
         id="path402" />
      <path
         d="m 1617.18,1794.06 c -123.73,32.96 -233.64,73.39 -327.86,120.62 v 0 c 94.22,-47.23 204.13,-87.66 327.86,-120.62 v 0"
         style="fill:#a8464f;fill-opacity:1;fill-rule:nonzero;stroke:none"
         id="path404" />
      <path
         d="m 1617.18,1794.06 c -123.73,32.96 -233.64,73.39 -327.86,120.62 h -0.01 c -180.22,90.34 -303.224,205.61 -356.681,341.38 l 5.652,-1.2 c 3.219,15.09 6.715,29.89 10.461,44.36 115.628,-177.49 317.648,-292.48 497.748,-349.58 47.1,-54.77 103.43,-107.3 170.69,-155.58"
         style="fill:#80378c;fill-opacity:1;fill-rule:nonzero;stroke:none"
         id="path406" />
      <path
         d="m 928.902,2265.86 c -0.98,2.67 -1.933,5.36 -2.859,8.05 -1.438,4.16 -2.832,8.36 -4.184,12.57 1.356,-4.22 2.75,-8.4 4.188,-12.57 0.926,-2.69 1.879,-5.37 2.855,-8.05 v 0"
         style="fill:#ba8cbb;fill-opacity:1;fill-rule:nonzero;stroke:none"
         id="path408" />
      <path
         d="m 928.902,2265.86 c -0.976,2.68 -1.929,5.36 -2.855,8.05 -1.438,4.17 -2.832,8.35 -4.188,12.57 -11.82,36.78 -20.515,75.13 -26.379,114.31 12.555,-30.95 27.633,-60.37 44.856,-88.31 -4.098,-15.19 -7.918,-30.74 -11.434,-46.62"
         style="fill:#80378c;fill-opacity:1;fill-rule:nonzero;stroke:none"
         id="path410" />
      <path
         d="m 938.281,2254.86 -5.652,1.2 h -0.004 c -1.281,3.25 -2.52,6.52 -3.723,9.8 v 0 c 3.516,15.88 7.336,31.43 11.434,46.62 2.746,-4.45 5.555,-8.88 8.406,-13.26 -3.746,-14.47 -7.242,-29.27 -10.461,-44.36"
         style="fill:#2b122a;fill-opacity:1;fill-rule:nonzero;stroke:none"
         id="path412" />
      <path
         d="m 1633,1789.9 c -5.33,1.38 -10.54,2.75 -15.82,4.16 v 0 c -67.26,48.28 -123.59,100.81 -170.69,155.58 7.02,-2.23 13.97,-4.35 20.92,-6.4 46.92,-52.39 102.68,-102.53 168.88,-148.61 l -3.29,-4.73"
         style="fill:#2b122a;fill-opacity:1;fill-rule:nonzero;stroke:none"
         id="path414" />
      <path
         d="m 2572.86,1692.42 v 0 c -223.65,83.68 -387.7,223.78 -507.9,381.06 9.45,-6.29 19.27,-12.57 29.36,-18.79 119.57,-148.39 280.24,-278.74 495.99,-356.43 l -1.95,-5.41 v -0.01 c -5.15,-0.15 -10.33,-0.29 -15.5,-0.42"
         style="fill:#2b122a;fill-opacity:1;fill-rule:nonzero;stroke:none"
         id="path416" />
      <path
         d="m 3690.52,1963.38 -0.01,0.02 c 175.28,95.21 322.87,212.47 439.59,346.92 -116.72,-134.45 -264.31,-251.73 -439.58,-346.94"
         style="fill:#ba8cbb;fill-opacity:1;fill-rule:nonzero;stroke:none"
         id="path418" />
      <path
         d="m 3690.51,1963.38 c 0,0 0,0.01 -0.01,0.01 l 0.01,0.01 0.01,-0.02 h -0.01"
         style="fill:#b5565f;fill-opacity:1;fill-rule:nonzero;stroke:none"
         id="path420" />
      <path
         d="m 3462.24,1858.12 v 0.02 c 80.57,31.19 156.72,66.38 228.26,105.25 0.01,0 0.01,-0.01 0.01,-0.01 -71.55,-38.87 -147.7,-74.06 -228.27,-105.26"
         style="fill:#a8464f;fill-opacity:1;fill-rule:nonzero;stroke:none"
         id="path422" />
      <path
         d="m 3462.24,1858.14 0.35,5.74 c -124.92,7.62 -241.98,26.71 -351.32,54.68 12.66,94.33 -243.8,240.65 -433.97,318.92 -62.91,25.89 -85.97,36.5 -76.96,36.5 28.1,0 368.09,-103.26 783.9,-168.44 49.66,-7.79 97.14,-11.33 142.59,-11.32 448.64,0.04 690.79,345.34 699.61,358.14 -23.6,-46.8 -54.67,-93.87 -94.99,-140.47 v 0 0 c -0.46,-0.53 -0.89,-1.04 -1.35,-1.57 -116.72,-134.45 -264.31,-251.71 -439.59,-346.92 l -0.01,-0.01 c -71.54,-38.87 -147.69,-74.06 -228.26,-105.25"
         style="fill:#80378c;fill-opacity:1;fill-rule:nonzero;stroke:none"
         id="path424" />
      <path
         d="m 3449.42,1853.2 -0.03,0.01 c -121.01,8.13 -234.61,26.99 -340.99,54.21 1.41,3.63 2.36,7.34 2.87,11.14 109.34,-27.97 226.4,-47.06 351.32,-54.68 l -0.35,-5.74 v -0.02 c -4.28,-1.66 -8.51,-3.28 -12.82,-4.92"
         style="fill:#2b122a;fill-opacity:1;fill-rule:nonzero;stroke:none"
         id="path426" />
      <path
         d="m 2585.14,2971.51 c -0.17,-0.12 -36.2,-24.55 -76.89,-63.52 -40.65,-39.01 -86.11,-92.45 -104.75,-151.47 l 10.97,-3.46 c 17.51,55.81 61.74,108.36 101.74,146.62 19.98,19.15 38.87,34.76 52.74,45.57 6.94,5.4 12.62,9.6 16.56,12.44 1.97,1.43 3.5,2.51 4.53,3.23 1.04,0.72 1.55,1.07 1.55,1.07 l -6.45,9.52"
         style="fill:#3e1d3e;fill-opacity:1;fill-rule:nonzero;stroke:none"
         id="path428" />
      <path
         d="m 1618.38,2028.39 c -51.04,0 -170.67,82.57 -215.84,227.66 -57.03,183.15 28.44,336.52 59.98,336.52 7.94,0 12.45,-9.72 10.42,-31.14 0,0 15.9,-283.72 137.08,-445.77 44.48,-59.49 37.96,-87.27 8.36,-87.27"
         style="fill:#80378c;fill-opacity:1;fill-rule:nonzero;stroke:none"
         id="path430" />
      <path
         d="m 3267.43,2788.52 c 0,-14.68 -11.9,-26.59 -26.58,-26.59 -14.68,0 -26.59,11.91 -26.59,26.59 0,14.68 11.91,26.58 26.59,26.58 14.68,0 26.58,-11.9 26.58,-26.58"
         style="fill:#da6466;fill-opacity:1;fill-rule:nonzero;stroke:none"
         id="path432" />
      <path
         d="m 3139.23,3096.98 c 0,-14.68 -11.91,-26.58 -26.59,-26.58 -14.68,0 -26.59,11.9 -26.59,26.58 0,14.68 11.91,26.59 26.59,26.59 14.68,0 26.59,-11.91 26.59,-26.59"
         style="fill:#da6466;fill-opacity:1;fill-rule:nonzero;stroke:none"
         id="path434" />
      <path
         d="m 3108.67,3095.27 c -0.3,-0.53 -21.09,-35.81 -21.12,-88.84 -0.01,-30.59 7,-67.07 28.87,-105.7 21.85,-38.65 58.49,-79.39 117.43,-118.88 2.63,-1.77 6.21,-1.07 7.97,1.57 1.77,2.64 1.07,6.21 -1.57,7.98 -57.74,38.7 -92.98,78.14 -113.83,114.99 -20.83,36.86 -27.36,71.18 -27.37,100.04 0,24.98 4.93,45.85 9.86,60.43 2.46,7.28 4.91,12.99 6.73,16.85 0.91,1.93 1.67,3.39 2.18,4.35 l 0.58,1.07 0.17,0.3 c 1.61,2.73 0.71,6.26 -2.03,7.87 -2.73,1.61 -6.26,0.71 -7.87,-2.03"
         style="fill:#6c1417;fill-opacity:1;fill-rule:nonzero;stroke:none"
         id="path436" />
      <path
         d="m 2981.47,2968.13 c 0,0 0.06,1.25 0.25,3.6 1.29,16.45 9.23,85.62 44.22,126.78 l -4.87,4.13 c -41.91,-49.73 -45.88,-133.92 -45.98,-134.19 l 6.38,-0.32"
         style="fill:#ae4449;fill-opacity:1;fill-rule:nonzero;stroke:none"
         id="path438" />
      <g
         id="g440"
         transform="scale(10)">
        <text
           xml:space="preserve"
           transform="matrix(1,0,0,-1,104.298,398.597)"
           style="font-variant:normal;font-weight:bold;font-size:56px;font-family:OleoScript;-inkscape-font-specification:OleoScript-Bold;writing-mode:lr-tb;fill:#643564;fill-opacity:1;fill-rule:nonzero;stroke:none"
           id="text444"><tspan
             x="0 35.335999 59.528393 81.480392 112.50381 123.7038 152.20772 169.00652 197.45381 227.9178 246.84581 271.26083"
             y="0"
             sodipodi:role="line"
             id="tspan442">Born Fighter</tspan></text>
        <text
           xml:space="preserve"
           transform="matrix(1,0,0,-1,145.4371,366.7341)"
           style="font-variant:normal;font-weight:300;font-size:19px;font-family:Montserrat;-inkscape-font-specification:Montserrat-Light;writing-mode:lr-tb;fill:#643564;fill-opacity:1;fill-rule:nonzero;stroke:none"
           id="text448"><tspan
             x="0 19.816896 31.596895 38.911839 43.870838 56.695839 61.578156 74.669945 81.889656 93.232658 113.44865 124.52566 132.08766 144.79866 152.11505 157.07405 164.44513 174.47713 179.36014 195.05353 205.94124"
             y="0"
             sodipodi:role="line"
             id="tspan446">World Prematurity Day</tspan></text>
      </g>
      <path
         d="m 3694.14,3708.85 h 317.801 v 10 H 3694.14 Z"
         style="fill:#643564;fill-opacity:1;fill-rule:nonzero;stroke:none"
         id="path450" />
      <path
         d="m 1045.34,3708.85 h 317.801 v 10 H 1045.34 Z"
         style="fill:#643564;fill-opacity:1;fill-rule:nonzero;stroke:none"
         id="path452" />
    </g>
  </g>
</svg>
