<?xml version="1.0" encoding="UTF-8" standalone="no"?>
<svg
   xmlns:dc="http://purl.org/dc/elements/1.1/"
   xmlns:cc="http://creativecommons.org/ns#"
   xmlns:rdf="http://www.w3.org/1999/02/22-rdf-syntax-ns#"
   xmlns:svg="http://www.w3.org/2000/svg"
   xmlns="http://www.w3.org/2000/svg"
   viewBox="0 0 666.66669 666.66669"
   height="666.66669"
   width="666.66669"
   xml:space="preserve"
   id="svg2"
   version="1.1"><metadata
     id="metadata8"><rdf:RDF><cc:Work
         rdf:about=""><dc:format>image/svg+xml</dc:format><dc:type
           rdf:resource="http://purl.org/dc/dcmitype/StillImage" /></cc:Work></rdf:RDF></metadata><defs
     id="defs6" /><g
     transform="matrix(1.3333333,0,0,-1.3333333,0,666.66667)"
     id="g10"><g
       transform="scale(0.1)"
       id="g12"><path
         id="path14"
         style="fill:#ffffff;fill-opacity:1;fill-rule:nonzero;stroke:none"
         d="M 0,0 H 5000 V 5000 H 0 Z" /><path
         id="path16"
         style="fill:#e3e2f1;fill-opacity:1;fill-rule:nonzero;stroke:none"
         d="m 413.547,579.301 17.891,-52.969 54.507,0.059 -38.679,-29.289 10.625,-56.864 -44.344,32.262 -44.488,-31.391 10.769,55.993 -38.281,29.457 h 54.449 l 17.551,52.742" /><path
         id="path18"
         style="fill:#e3e2f1;fill-opacity:1;fill-rule:nonzero;stroke:none"
         d="m 3283.88,4704.52 17.89,-52.97 54.5,0.06 -38.68,-29.28 10.63,-56.85 -44.34,32.25 -44.5,-31.39 10.78,55.99 -38.28,29.47 h 54.44 l 17.56,52.72" /><path
         id="path20"
         style="fill:#e3e2f1;fill-opacity:1;fill-rule:nonzero;stroke:none"
         d="m 4767.06,3452.26 8.95,-26.48 27.25,0.03 -19.34,-14.64 5.32,-28.43 -22.18,16.13 -22.25,-15.7 5.4,28 -19.15,14.73 h 27.22 l 8.78,26.36" /><path
         id="path22"
         style="fill:#e3e2f1;fill-opacity:1;fill-rule:nonzero;stroke:none"
         d="m 1306.05,4070.34 10.58,-31.32 32.22,0.04 -22.87,-17.31 6.28,-33.61 -26.21,19.07 -26.3,-18.56 6.37,33.1 -22.63,17.41 h 32.18 l 10.38,31.18" /><path
         id="path24"
         style="fill:#e3e2f1;fill-opacity:1;fill-rule:nonzero;stroke:none"
         d="m 218.477,1953.36 27.914,-82.66 85.054,0.1 -60.355,-45.69 16.574,-88.7 -69.187,50.32 -69.418,-48.99 16.804,87.37 -59.726,45.98 h 84.953 l 27.387,82.27" /><path
         id="path26"
         style="fill:#e3e2f1;fill-opacity:1;fill-rule:nonzero;stroke:none"
         d="m 1978.49,1500.69 8.07,-23.91 24.61,0.03 -17.46,-13.23 4.8,-25.67 -20.02,14.57 -20.09,-14.18 4.86,25.28 -17.28,13.3 h 24.58 l 7.93,23.81" /><path
         id="path28"
         style="fill:#e3e2f1;fill-opacity:1;fill-rule:nonzero;stroke:none"
         d="m 4401.08,3919.2 8.35,-24.71 25.43,0.03 -18.04,-13.66 4.95,-26.52 -20.69,15.04 -20.75,-14.64 5.03,26.12 -17.86,13.74 h 25.4 l 8.18,24.6" /><path
         id="path30"
         style="fill:#e3e2f1;fill-opacity:1;fill-rule:nonzero;stroke:none"
         d="m 218.48,2790.39 27.805,-82.32 84.727,0.08 -60.121,-45.51 16.507,-88.36 -68.918,50.12 -69.148,-48.78 16.742,87.02 -59.504,45.8 h 84.625 l 27.285,81.95" /><path
         id="path32"
         style="fill:#e3e2f1;fill-opacity:1;fill-rule:nonzero;stroke:none"
         d="m 4550.36,1390.9 17.89,-52.97 54.51,0.06 -38.68,-29.29 10.63,-56.84 -44.35,32.25 -44.49,-31.4 10.77,55.99 -38.28,29.47 h 54.45 l 17.55,52.73" /><path
         id="path34"
         style="fill:#e3e2f1;fill-opacity:1;fill-rule:nonzero;stroke:none"
         d="m 4042.71,3366.66 11.1,-32.88 33.84,0.03 -24.02,-18.18 6.6,-35.29 -27.52,20.03 -27.62,-19.49 6.68,34.75 -23.76,18.3 h 33.8 l 10.9,32.73" /><path
         id="path36"
         style="fill:#e3e2f1;fill-opacity:1;fill-rule:nonzero;stroke:none"
         d="m 461.773,3438.72 30.829,-91.3 93.953,0.11 -66.672,-50.47 18.308,-97.98 -76.418,55.59 -76.675,-54.09 18.562,96.48 -65.972,50.78 h 93.835 l 30.25,90.88" /><path
         id="path38"
         style="fill:#e3e2f1;fill-opacity:1;fill-rule:nonzero;stroke:none"
         d="m 4087.5,2609.27 13.41,-39.69 40.85,0.04 -29,-21.95 7.97,-42.6 -33.23,24.17 -33.34,-23.52 8.07,41.95 -28.69,22.09 h 40.81 l 13.15,39.51" /><path
         id="path40"
         style="fill:#e3e2f1;fill-opacity:1;fill-rule:nonzero;stroke:none"
         d="m 1487.51,504.91 26.8,-79.34 81.66,0.078 -57.95,-43.859 15.92,-85.168 -66.43,48.309 -66.65,-47.02 16.14,83.879 -57.34,44.141 h 81.56 l 26.29,78.98" /><path
         id="path42"
         style="fill:#e3e2f1;fill-opacity:1;fill-rule:nonzero;stroke:none"
         d="m 4550.26,4669.63 26.8,-79.35 81.66,0.09 -57.95,-43.87 15.92,-85.16 -66.43,48.31 -66.65,-47.02 16.14,83.87 -57.35,44.14 h 81.56 l 26.3,78.99" /><path
         id="path44"
         style="fill:#e3e2f1;fill-opacity:1;fill-rule:nonzero;stroke:none"
         d="m 3876.48,4352.99 13.4,-39.67 40.83,0.04 -28.97,-21.94 7.96,-42.58 -33.22,24.16 -33.33,-23.51 8.07,41.93 -28.67,22.07 h 40.78 l 13.15,39.5" /><path
         id="path46"
         style="fill:#e3e2f1;fill-opacity:1;fill-rule:nonzero;stroke:none"
         d="m 3812.52,1606.42 15.84,-46.91 48.27,0.05 -34.26,-25.93 9.42,-50.34 -39.27,28.56 -39.4,-27.8 9.54,49.58 -33.9,26.1 h 48.21 l 15.55,46.69" /><path
         id="path48"
         style="fill:#e3e2f1;fill-opacity:1;fill-rule:nonzero;stroke:none"
         d="m 4400.71,2083.64 41.81,-123.81 127.42,0.14 -90.42,-68.45 24.84,-132.88 -103.65,75.39 -103.99,-73.38 25.17,130.87 -89.47,68.88 h 127.26 l 41.03,123.24" /><path
         id="path50"
         style="fill:#e3e2f1;fill-opacity:1;fill-rule:nonzero;stroke:none"
         d="m 544.746,1547.71 12.102,-35.83 36.863,0.04 -26.16,-19.8 7.183,-38.45 -29.988,21.81 -30.09,-21.23 7.285,37.87 -25.886,19.93 h 36.82 l 11.871,35.66" /><path
         id="path52"
         style="fill:#e3e2f1;fill-opacity:1;fill-rule:nonzero;stroke:none"
         d="m 841.484,3480.35 7.227,-21.4 22.027,0.02 -15.633,-11.83 4.293,-22.97 -17.914,13.03 -17.976,-12.68 4.351,22.62 -15.464,11.91 h 21.996 l 7.093,21.3" /><path
         id="path54"
         style="fill:#e3e2f1;fill-opacity:1;fill-rule:nonzero;stroke:none"
         d="m 4550.1,3006.07 41.65,-123.32 126.92,0.14 -90.07,-68.18 24.74,-132.38 -103.24,75.1 -103.6,-73.08 25.09,130.36 -89.14,68.61 h 126.78 l 40.87,122.75" /><path
         id="path56"
         style="fill:#e3e2f1;fill-opacity:1;fill-rule:nonzero;stroke:none"
         d="m 1354.85,1862.79 26.81,-79.34 81.66,0.08 -57.95,-43.86 15.91,-85.18 -66.43,48.33 -66.64,-47.03 16.14,83.88 -57.35,44.14 h 81.56 l 26.29,78.98" /><path
         id="path58"
         style="fill:#e3e2f1;fill-opacity:1;fill-rule:nonzero;stroke:none"
         d="m 4885.98,2391.52 16.63,-49.25 50.7,0.04 -35.98,-27.22 9.88,-52.88 -41.23,30 -41.38,-29.19 10.02,52.07 -35.61,27.4 h 50.64 l 16.33,49.03" /><path
         id="path60"
         style="fill:#e3e2f1;fill-opacity:1;fill-rule:nonzero;stroke:none"
         d="m 998.281,2689.49 46.189,-136.76 140.74,0.16 -99.88,-75.61 27.43,-146.77 -114.479,83.27 -114.863,-81.04 27.812,144.54 -98.835,76.07 h 140.57 l 45.316,136.14" /><path
         id="path62"
         style="fill:#e3e2f1;fill-opacity:1;fill-rule:nonzero;stroke:none"
         d="m 3666.2,2086.04 9.1,-26.95 27.74,0.03 -19.68,-14.9 5.41,-28.92 -22.57,16.41 -22.63,-15.97 5.48,28.48 -19.47,14.99 h 27.7 l 8.92,26.83" /><path
         id="path64"
         style="fill:#2e3791;fill-opacity:1;fill-rule:nonzero;stroke:none"
         d="m 3284.07,3020.76 c 0,-433.03 -351.03,-784.07 -784.07,-784.07 -433.02,0 -784.06,351.04 -784.06,784.07 0,433.02 351.04,784.06 784.06,784.06 433.04,0 784.07,-351.04 784.07,-784.06" /><path
         id="path66"
         style="fill:#ed1e2a;fill-opacity:1;fill-rule:nonzero;stroke:none"
         d="m 2500,2236.69 c 433.04,0 784.07,351.04 784.07,784.07 H 1715.94 c 0,-433.03 351.04,-784.07 784.06,-784.07" /><path
         id="path68"
         style="fill:#cf1e25;fill-opacity:1;fill-rule:nonzero;stroke:none"
         d="m 2500,2236.69 c 119.65,0 232.97,26.9 334.41,74.82 -76.31,-23.82 -157.48,-36.69 -241.64,-36.69 -425.71,0 -774.44,328.59 -807.01,745.94 h -69.82 c 0,-433.03 351.04,-784.07 784.06,-784.07" /><path
         id="path70"
         style="fill:#ffffff;fill-opacity:1;fill-rule:nonzero;stroke:none"
         d="m 1951.84,3581.27 c -145.54,-142.34 -235.9,-340.86 -235.9,-560.51 0,-219.66 90.36,-418.17 235.9,-560.52 l 557.77,560.52 -557.77,560.51" /><path
         id="path72"
         style="fill:#e3e2f1;fill-opacity:1;fill-rule:nonzero;stroke:none"
         d="m 2011.94,2520.64 c -141.59,145.82 -228.91,344.62 -228.91,563.93 0,186.83 63.54,358.66 169.83,495.67 l -1.02,1.03 c -145.54,-142.34 -235.9,-340.86 -235.9,-560.51 0,-219.66 90.36,-418.17 235.9,-560.52 l 60.1,60.4" /><path
         id="path74"
         style="fill:#f5eb18;fill-opacity:1;fill-rule:nonzero;stroke:none"
         d="m 2136.87,3010.04 c 0,-2.38 -0.3,-4.77 -0.89,-7.14 l 66.94,-12.04 -16.07,-12.05 -53.1,13.82 c -2.69,-8.93 -6.11,-17.1 -10.27,-24.53 l 51.33,-28.12 v -17.85 l -56.68,38.38 c -0.9,-1.79 -2.24,-3.72 -4.02,-5.8 l 60.7,-46.86 v -28.11 h -29.01 l -46.41,60.24 c -1.79,-1.49 -3.88,-3.13 -6.25,-4.91 l 38.83,-55.33 h -17.86 l -29.46,49.98 c -7.73,-4.46 -15.91,-7.73 -24.53,-9.81 l 15.17,-55.79 -13.4,-13.84 -10.71,67.39 c -2.38,-0.61 -4.91,-1.05 -7.58,-1.34 l 8.48,-76.76 -20.09,-19.64 -20.52,19.64 8.03,76.76 c -2.38,0.29 -4.61,0.73 -6.69,1.34 l -10.72,-67.39 -12.04,11.15 15.16,57.58 c -8.32,2.37 -16.36,5.65 -24.08,9.82 l -31.25,-50.44 h -16.96 l 38.83,56.23 c -1.78,1.19 -3.43,2.53 -4.91,4.02 l -47.74,-60.25 h -29.46 v 28.12 l 60.24,48.2 c -1.19,1.48 -2.22,2.97 -3.12,4.46 l -57.12,-38.38 v 17.85 l 51.32,29.46 c -4.77,8.02 -8.19,16.35 -10.27,24.98 l -55.78,-16.06 -13.39,13.84 66.5,12.49 c -0.31,2.08 -0.61,4.31 -0.9,6.69 l -75.87,-9.37 -21.86,19.64 20.53,20.53 77.2,-8.04 c 0.29,2.38 0.59,4.61 0.9,6.7 l -69.18,11.16 13.84,12.94 58.01,-14.73 c 2.08,8.33 5.21,16.35 9.37,24.1 l -50.42,29.45 v 16.96 l 55.79,-38.38 c 1.19,1.79 2.37,3.57 3.57,5.36 l -59.36,47.29 v 29.46 h 29.01 l 47.3,-59.79 c 1.48,1.47 3.28,2.82 5.36,4.01 l -39.72,55.78 h 17.84 l 29.91,-50.42 c 7.73,4.17 15.91,7.58 24.55,10.26 l -16.07,56.24 14.27,12.04 11.62,-66.05 c 2.08,0 4.16,0.15 6.24,0.45 l -8.48,77.2 20.52,18.75 20.09,-20.08 -8.93,-75.87 c 2.38,0 4.62,-0.16 6.7,-0.45 l 11.6,66.05 13.39,-11.61 -15.17,-56.67 c 8.33,-2.38 16.36,-5.8 24.09,-10.26 l 29.46,50.42 h 17.85 l -38.37,-55.78 c 1.77,-1.19 3.55,-2.54 5.35,-4.01 l 47.3,59.79 h 28.11 v -29.46 l -59.35,-46.84 c 1.78,-1.51 3.12,-3.28 4.02,-5.36 l 55.33,37.93 v -16.51 l -49.98,-29.45 c 4.45,-8.04 7.88,-16.38 10.27,-25 l 55.33,15.18 13.84,-12.94 -66.94,-11.61 c 0.59,-2.38 0.89,-4.47 0.89,-6.25 l 76.31,8.04 20.09,-19.63 -19.19,-20.09 -77.21,8.92" /><path
         id="path76"
         style="fill:#f5eb18;fill-opacity:1;fill-rule:nonzero;stroke:none"
         d="m 2351.36,2990.84 -35.83,-12.09 21.84,30.93 -22.78,30.65 36.45,-11.37 21.84,30.92 0.66,-37.93 36.19,-11.29 -36.16,-12.27 0.57,-38.19 -22.78,30.64" /><path
         id="path78"
         style="fill:#fab50a;fill-opacity:1;fill-rule:nonzero;stroke:none"
         d="m 1942.56,2592.92 -30.6,-22.21 11.65,36.02 -30.88,22.48 h 38.19 l 11.64,36.01 11.92,-36.01 h 37.91 l -30.87,-22.48 11.92,-36.29 -30.88,22.48" /><path
         id="path80"
         style="fill:#f5eb18;fill-opacity:1;fill-rule:nonzero;stroke:none"
         d="m 1942.56,3475.86 30.6,22.21 -11.65,-36.02 30.88,-22.48 h -38.19 l -11.64,-36.02 -11.92,36.02 h -37.91 l 30.87,22.48 -11.92,36.28 30.88,-22.47" /><path
         id="path82"
         style="fill:#f5eb18;fill-opacity:1;fill-rule:nonzero;stroke:none"
         d="m 2498.76,2038.34 45.01,-133.25 137.15,0.13 -97.33,-73.66 26.74,-143.03 -111.57,81.14 -111.92,-78.97 27.1,140.86 -96.31,74.13 h 136.97 l 44.16,132.65" /><path
         id="path84"
         style="fill:#f5eb18;fill-opacity:1;fill-rule:nonzero;stroke:none"
         d="m 2498.76,4352.99 45.01,-133.26 137.15,0.15 -97.33,-73.68 26.74,-143.02 -111.57,81.15 -111.92,-78.98 27.1,140.85 -96.31,74.14 h 136.97 l 44.16,132.65" /><path
         id="path86"
         style="fill:#f5eb18;fill-opacity:1;fill-rule:nonzero;stroke:none"
         d="m 3056.29,4204.14 45.01,-133.26 137.14,0.15 -97.32,-73.67 26.73,-143.02 -111.56,81.14 -111.93,-78.98 27.1,140.86 -96.3,74.13 h 136.97 l 44.16,132.65" /><path
         id="path88"
         style="fill:#f5eb18;fill-opacity:1;fill-rule:nonzero;stroke:none"
         d="m 1914.32,4204.14 45.01,-133.26 137.14,0.15 -97.32,-73.67 26.74,-143.02 -111.57,81.14 -111.93,-78.98 27.1,140.86 -96.31,74.13 h 136.98 l 44.16,132.65" /><path
         id="path90"
         style="fill:#f5eb18;fill-opacity:1;fill-rule:nonzero;stroke:none"
         d="m 3056.29,2194.7 45.01,-133.27 137.14,0.15 -97.32,-73.68 26.73,-143.02 -111.56,81.15 -111.93,-78.98 27.1,140.85 -96.3,74.15 h 136.97 l 44.16,132.65" /><path
         id="path92"
         style="fill:#f5eb18;fill-opacity:1;fill-rule:nonzero;stroke:none"
         d="m 1914.32,2194.7 45.01,-133.27 137.14,0.15 -97.32,-73.68 26.74,-143.02 -111.57,81.15 -111.93,-78.98 27.1,140.85 -96.31,74.15 h 136.98 l 44.16,132.65" /><path
         id="path94"
         style="fill:#f5eb18;fill-opacity:1;fill-rule:nonzero;stroke:none"
         d="m 1487.3,3767.32 45.01,-133.25 137.15,0.13 -97.33,-73.66 26.73,-143.04 -111.56,81.14 -111.92,-78.96 27.1,140.86 -96.31,74.13 h 136.97 l 44.16,132.65" /><path
         id="path96"
         style="fill:#f5eb18;fill-opacity:1;fill-rule:nonzero;stroke:none"
         d="m 3497.29,3767.32 45,-133.25 137.15,0.13 -97.32,-73.66 26.73,-143.04 -111.56,81.14 -111.93,-78.96 27.1,140.86 -96.32,74.13 h 136.99 l 44.16,132.65" /><path
         id="path98"
         style="fill:#f5eb18;fill-opacity:1;fill-rule:nonzero;stroke:none"
         d="m 1487.3,2612.03 45.01,-133.26 137.15,0.15 -97.33,-73.68 26.73,-143.03 -111.56,81.16 -111.92,-78.99 27.1,140.86 -96.31,74.13 h 136.97 l 44.16,132.66" /><path
         id="path100"
         style="fill:#f5eb18;fill-opacity:1;fill-rule:nonzero;stroke:none"
         d="m 3497.29,2612.03 45,-133.26 137.15,0.15 -97.32,-73.68 26.73,-143.03 -111.56,81.16 -111.93,-78.99 27.1,140.86 -96.32,74.13 h 136.99 l 44.16,132.66" /><path
         id="path102"
         style="fill:#f5eb18;fill-opacity:1;fill-rule:nonzero;stroke:none"
         d="m 1354.65,3194.02 45.01,-133.27 137.14,0.16 -97.32,-73.68 26.73,-143.03 -111.56,81.15 -111.93,-78.97 27.1,140.85 -96.31,74.13 h 136.98 l 44.16,132.66" /><path
         id="path104"
         style="fill:#f5eb18;fill-opacity:1;fill-rule:nonzero;stroke:none"
         d="m 3644.36,3194.02 45.01,-133.27 137.13,0.16 -97.31,-73.68 26.73,-143.03 -111.56,81.15 -111.93,-78.97 27.1,140.85 -96.31,74.13 h 136.98 l 44.16,132.66" /><path
         id="path106"
         style="fill:#e3e2f1;fill-opacity:1;fill-rule:nonzero;stroke:none"
         d="m -630.945,5318.34 74.851,-2428.43 c 143.93,166.11 296.309,347.54 468.6487,485.32 151.4062,121.04 276.5043,262.98 423.6013,391.68 325.836,285.07 724.204,487.72 1147.844,578.28 209.23,44.73 423.53,62.96 632.22,110.18 488.24,110.49 861.5,499.69 1184.95,862.97 H -630.945" /><path
         id="path108"
         style="fill:#2e3791;fill-opacity:1;fill-rule:nonzero;stroke:none"
         d="m 1373.05,4394.06 c 0,0 158.67,-81.81 482.4,71.24 323.74,153.04 1014.49,677.89 1110.93,787.83 l -423.81,512.03 c 0,0 -897.55,-698.01 -1373.46,-680.04 0,0 -15.27,-554.03 203.94,-691.06" /><path
         id="path110"
         style="fill:#2e3791;fill-opacity:1;fill-rule:nonzero;stroke:none"
         d="m 1373.05,4394.06 c 0,0 158.67,-81.81 482.4,71.24 323.74,153.04 1014.49,677.89 1110.93,787.83 l -423.81,512.03 c 0,0 -897.55,-698.01 -1373.46,-680.04 0,0 -15.27,-554.03 203.94,-691.06" /><path
         id="path112"
         style="fill:#20234b;fill-opacity:1;fill-rule:nonzero;stroke:none"
         d="m 1548.96,5134.73 c -26.75,-7.77 -54.25,-14.9 -82.47,-21.19 1.33,-86.88 4.75,-291.19 8.6,-365.8 4.95,-95.84 8.27,-188.49 -50.59,-214.89 -58.87,-26.4 -67.83,-83.38 -58.01,-102.51 2.96,-5.76 27.35,-26.17 59.9,-51.82 47.37,-8.6 126.46,-12.45 237.92,16.17 -83.06,132.14 -109.65,611.59 -115.35,740.04" /><path
         id="path114"
         style="fill:#ed1e2a;fill-opacity:1;fill-rule:nonzero;stroke:none"
         d="m 2760.44,5501.94 c -462.16,-383.37 -1338.39,-830.83 -1551.27,-816.6 29.04,-122.06 78.79,-238.09 163.88,-291.28 0,0 158.67,-81.81 482.4,71.24 323.74,153.04 1014.49,677.9 1110.93,787.83 l -205.94,248.81" /><path
         id="path116"
         style="fill:#cf1e25;fill-opacity:1;fill-rule:nonzero;stroke:none"
         d="m 1578.5,4798.61 c -36.44,-10.81 -71.43,-19.54 -104.84,-26.36 2.65,-79.54 3.38,-213.87 -46.71,-236.34 -58.86,-26.4 -79.26,-76.79 -77.02,-97.79 3.69,-34.63 32.52,-44.74 76.46,-59.6 47.37,-8.6 126.46,-12.45 237.92,16.17 -38.4,61.1 -68.04,263.32 -85.81,403.92" /><path
         id="path118"
         style="fill:#cf1e25;fill-opacity:1;fill-rule:nonzero;stroke:none"
         d="m 1508.68,4623.55 c 0,0 -6.52,-49.98 -76.83,-77.6 -70.31,-27.61 -125.77,-115 -58.8,-151.89 0,0 -279.71,113.82 -296.17,349.62 -16.47,235.81 251.76,183.53 251.76,183.53 l 180.04,-303.66" /><path
         id="path120"
         style="fill:#2e3791;fill-opacity:1;fill-rule:nonzero;stroke:none"
         d="m -364.824,3257.66 c 0,0 343.0623,773.61 995.406,1140.72 652.348,367.11 827.368,284.8 878.098,225.17 l 12.76,680.39 c 0,0 -122.8,294.02 -778.553,215.64 C 87.1328,5441.2 -882.039,4171.03 -882.039,4171.03 l 517.215,-913.37" /><path
         id="path122"
         style="fill:#20234b;fill-opacity:1;fill-rule:nonzero;stroke:none"
         d="m -882.039,4171.03 517.215,-913.37 c 0,0 246.094,554.84 717.691,947.73 -90.422,374.96 -11.402,958.13 24.754,1177.25 -599.34,-346.23 -1259.66,-1211.61 -1259.66,-1211.61" /><path
         id="path124"
         style="fill:#ed1e2a;fill-opacity:1;fill-rule:nonzero;stroke:none"
         d="M 686.734,4958.98 C 107.766,4761.8 -511.164,3939.76 -645.66,3753.59 l 280.836,-495.93 c 0,0 343.0623,773.61 995.406,1140.72 652.348,367.11 827.368,284.8 878.098,225.17 l 6.37,340.2 v 0 c -25.36,29.81 -174.27,217.98 -828.316,-4.77" /><path
         id="path126"
         style="fill:#cf1e25;fill-opacity:1;fill-rule:nonzero;stroke:none"
         d="m -645.66,3753.59 280.836,-495.93 c 0,0 246.094,554.84 717.691,947.73 -38.801,160.9 -46.398,360.11 -39.566,552.47 -449.082,-319.93 -853.36,-858.09 -958.961,-1004.27" /><path
         id="path128"
         style="fill:#e8e7f3;fill-opacity:1;fill-rule:nonzero;stroke:none"
         d="m 893.027,4534.77 c -0.004,0.02 0,0.02 -0.004,0.03 82.727,38.86 154.637,68.06 217.087,89.47 0.01,-0.01 0.01,-0.01 0.01,-0.02 -62.46,-21.42 -134.35,-50.61 -217.093,-89.48" /><path
         id="path130"
         style="fill:#df3049;fill-opacity:1;fill-rule:nonzero;stroke:none"
         d="m 1110.12,4624.25 c 0,0.01 0,0.01 -0.01,0.02 51.13,17.54 95.92,29.86 135.22,38.06 0,-0.03 0,-0.03 0,-0.03 -39.29,-8.18 -84.09,-20.52 -135.21,-38.05" /><path
         id="path132"
         style="fill:#ef354f;fill-opacity:1;fill-rule:nonzero;stroke:none"
         d="m 893.023,4534.8 c -13.332,122.56 -9.367,294.91 1.161,465.2 h 367.366 c -5.5,-115.38 -11.18,-233.43 -16.22,-337.7 -39.3,-8.17 -84.09,-20.49 -135.22,-38.03 -62.45,-21.41 -134.36,-50.61 -217.087,-89.47" /><path
         id="path134"
         style="fill:#5656ac;fill-opacity:1;fill-rule:nonzero;stroke:none"
         d="m 1508.68,4623.55 6.37,340.2 v 0 c -5.53,6.51 -16.97,20.57 -38.25,36.25 h 38.94 l -7.06,-376.45" /><path
         id="path136"
         style="fill:#df3049;fill-opacity:1;fill-rule:nonzero;stroke:none"
         d="m 1503.17,4629.58 v 0 0 m -0.13,0.13 c -0.01,0.01 -0.01,0.01 -0.02,0.02 0.01,-0.01 0.01,-0.01 0.02,-0.02 m -0.14,0.15 c -0.01,0 -0.01,0.01 -0.02,0.02 0.01,-0.01 0.01,-0.02 0.02,-0.02 m -0.14,0.14 c -0.01,0.01 -0.01,0.01 -0.02,0.02 0.01,-0.01 0.01,-0.01 0.02,-0.02 m -0.13,0.13 c -0.02,0.01 -0.02,0.02 -0.04,0.04 0.01,-0.01 0.03,-0.03 0.04,-0.04 m -0.14,0.14 c -0.02,0.02 -0.03,0.03 -0.04,0.04 0.01,-0.01 0.03,-0.02 0.04,-0.04 m -0.13,0.14 c -0.02,0.01 -0.04,0.03 -0.05,0.05 0.01,-0.02 0.03,-0.04 0.05,-0.05 m -0.13,0.12 c -0.02,0.02 -0.05,0.05 -0.07,0.07 0.02,-0.02 0.05,-0.05 0.07,-0.07 m -0.1,0.1 c -21.49,21.37 -60.1,43.26 -131.26,45.05 v 0 c 71.16,-1.79 109.78,-23.68 131.26,-45.05" /><path
         id="path138"
         style="fill:#ef354f;fill-opacity:1;fill-rule:nonzero;stroke:none"
         d="m 1508.68,4623.55 v 0 0 c -1.7,1.99 -3.53,4.01 -5.51,6.03 v 0 c -0.04,0.05 -0.09,0.09 -0.13,0.13 -0.01,0.01 -0.01,0.01 -0.02,0.02 -0.04,0.04 -0.08,0.08 -0.12,0.13 -0.01,0 -0.01,0.01 -0.02,0.02 -0.04,0.03 -0.08,0.08 -0.12,0.12 -0.01,0.01 -0.01,0.01 -0.02,0.02 -0.04,0.03 -0.08,0.07 -0.11,0.11 -0.01,0.01 -0.03,0.03 -0.04,0.04 -0.03,0.03 -0.07,0.07 -0.1,0.1 -0.01,0.02 -0.03,0.03 -0.04,0.04 -0.03,0.03 -0.06,0.07 -0.09,0.1 -0.02,0.01 -0.04,0.03 -0.05,0.05 -0.03,0.02 -0.05,0.04 -0.08,0.07 -0.02,0.02 -0.05,0.05 -0.07,0.07 -0.01,0.01 -0.02,0.02 -0.03,0.03 -21.48,21.37 -60.1,43.26 -131.26,45.05 l 22.02,324.32 h 83.91 c 21.28,-15.68 32.72,-29.74 38.25,-36.25 v 0 l -6.37,-340.2" /><path
         id="path140"
         style="fill:#5656ac;fill-opacity:1;fill-rule:nonzero;stroke:none"
         d="m 1915.05,4956.96 c -8.83,14.4 -17.59,28.75 -26.29,43.04 h 106.6 c -26.91,-14.68 -53.73,-29.05 -80.31,-43.04" /><path
         id="path142"
         style="fill:#ef354f;fill-opacity:1;fill-rule:nonzero;stroke:none"
         d="m 2129.77,4623.14 c -62.65,89.78 -140.54,212.83 -214.72,333.82 26.58,13.99 53.4,28.36 80.31,43.04 h 54.08 l 212.04,-289.87 c -44.66,-30.29 -88.85,-59.51 -131.71,-86.99" /><path
         id="path144"
         style="fill:#e3e2f1;fill-opacity:1;fill-rule:nonzero;stroke:none"
         d="M 5630.95,-318.352 5556.09,2110.09 C 5412.16,1943.97 5259.78,1762.56 5087.44,1624.78 4936.05,1503.72 4810.95,1361.79 4663.84,1233.09 4338.01,948.02 3939.64,745.379 3516,654.809 3306.77,610.082 3092.46,591.859 2883.78,544.629 2395.54,434.141 2022.27,44.9414 1698.83,-318.352 h 3932.12" /><path
         id="path146"
         style="fill:#2e3791;fill-opacity:1;fill-rule:nonzero;stroke:none"
         d="m 3626.95,605.941 c 0,0 -158.67,81.797 -482.41,-71.23 C 2820.81,381.66 2130.05,-143.188 2033.62,-253.121 l 423.81,-512.039 c 0,0 897.55,698.0116 1373.46,680.0389 0,0 15.27,554.0311 -203.94,691.0621" /><path
         id="path148"
         style="fill:#2e3791;fill-opacity:1;fill-rule:nonzero;stroke:none"
         d="m 3626.95,605.941 c 0,0 -158.67,81.797 -482.41,-71.23 C 2820.81,381.66 2130.05,-143.188 2033.62,-253.121 l 423.81,-512.039 c 0,0 897.55,698.0116 1373.46,680.0389 0,0 15.27,554.0311 -203.94,691.0621" /><path
         id="path150"
         style="fill:#20234b;fill-opacity:1;fill-rule:nonzero;stroke:none"
         d="m 3451.05,-134.73 c 26.74,7.769 54.24,14.91 82.47,21.191 -1.33,86.8788 -4.76,291.191 -8.61,365.801 -4.96,95.84 -8.27,188.488 50.59,214.886 58.86,26.403 67.83,83.383 58.01,102.512 -2.95,5.762 -27.35,26.172 -59.9,51.82 -47.38,8.602 -126.45,12.461 -237.92,-16.171 83.06,-132.149 109.65,-611.59025 115.36,-740.039" /><path
         id="path152"
         style="fill:#ed1e2a;fill-opacity:1;fill-rule:nonzero;stroke:none"
         d="m 2239.57,-501.93 c 462.16,383.371 1338.38,830.832 1551.25,816.59 -29.03,122.059 -78.78,238.078 -163.87,291.281 0,0 -158.67,81.797 -482.41,-71.23 C 2820.81,381.66 2130.06,-143.188 2033.62,-253.121 l 205.95,-248.809" /><path
         id="path154"
         style="fill:#cf1e25;fill-opacity:1;fill-rule:nonzero;stroke:none"
         d="m 3421.5,201.402 c 36.44,10.797 71.44,19.528 104.84,26.336 -2.66,79.563 -3.37,213.891 46.71,236.352 58.86,26.402 79.26,76.789 77.02,97.789 -3.69,34.633 -32.52,44.742 -76.46,59.601 -47.38,8.602 -126.45,12.461 -237.92,-16.171 38.4,-61.09 68.04,-263.317 85.81,-403.907" /><path
         id="path156"
         style="fill:#cf1e25;fill-opacity:1;fill-rule:nonzero;stroke:none"
         d="m 3491.32,376.449 c 0,0 6.52,49.992 76.82,77.602 70.32,27.609 125.78,115 58.81,151.89 0,0 279.71,-113.82 296.18,-349.621 C 3939.59,20.5117 3671.36,72.7891 3671.36,72.7891 L 3491.32,376.449" /><path
         id="path158"
         style="fill:#2e3791;fill-opacity:1;fill-rule:nonzero;stroke:none"
         d="m 5364.82,1742.34 c 0,0 -343.06,-773.61 -995.41,-1140.719 C 3717.07,234.5 3542.05,316.832 3491.32,376.449 l -12.76,-680.379 c 0,0 122.8,-294.031 778.55,-215.648 655.76,78.379 1624.93,1348.558 1624.93,1348.558 l -517.22,913.36" /><path
         id="path160"
         style="fill:#20234b;fill-opacity:1;fill-rule:nonzero;stroke:none"
         d="m 5882.04,828.969 -517.22,913.371 c 0,0 -246.09,-554.83 -717.68,-947.731 90.42,-374.961 11.4,-958.129 -24.77,-1177.25 599.35,346.2308 1259.67,1211.61 1259.67,1211.61" /><path
         id="path162"
         style="fill:#ed1e2a;fill-opacity:1;fill-rule:nonzero;stroke:none"
         d="M 4313.26,41.0195 C 4892.24,238.191 5511.17,1060.24 5645.66,1246.41 l -280.84,495.93 c 0,0 -343.06,-773.61 -995.41,-1140.719 C 3717.07,234.5 3542.05,316.832 3491.32,376.449 L 3484.94,36.25 c 25.37,-29.80078 174.28,-217.98 828.32,4.7695" /><path
         id="path164"
         style="fill:#cf1e25;fill-opacity:1;fill-rule:nonzero;stroke:none"
         d="m 5645.66,1246.41 -280.84,495.93 c 0,0 -246.09,-554.83 -717.68,-947.731 38.8,-160.898 46.39,-360.109 39.56,-552.468 449.08,319.929 853.36,858.089 958.96,1004.269" /><path
         id="path166"
         style="fill:#e8e7f3;fill-opacity:1;fill-rule:nonzero;stroke:none"
         d="m 3889.89,375.73 c -0.01,0.012 -0.01,0.012 -0.01,0.02 62.46,21.43 134.35,50.609 217.09,89.469 v 0 C 4024.25,426.34 3952.34,397.148 3889.89,375.73" /><path
         id="path168"
         style="fill:#df3049;fill-opacity:1;fill-rule:nonzero;stroke:none"
         d="m 3754.68,337.699 v 0 c 39.28,8.192 84.09,20.52 135.2,38.051 0,-0.008 0,-0.008 0.01,-0.02 -51.13,-17.539 -95.91,-29.859 -135.21,-38.058" /><path
         id="path170"
         style="fill:#ef354f;fill-opacity:1;fill-rule:nonzero;stroke:none"
         d="m 4105.82,0 h -367.37 c 5.5,115.379 11.19,233.43 16.23,337.699 87.3,18.18 201.84,56.821 352.29,127.5 C 4120.31,342.672 4116.35,170.32 4105.82,0" /><path
         id="path172"
         style="fill:#5656ac;fill-opacity:1;fill-rule:nonzero;stroke:none"
         d="m 3523.21,0 h -38.95 l 0.68,36.25 c 5.54,-6.5078 16.98,-20.5703 38.27,-36.25" /><path
         id="path174"
         style="fill:#df3049;fill-opacity:1;fill-rule:nonzero;stroke:none"
         d="m 3567.95,332.121 h -0.01 c 0,0 0,0 0.01,0" /><path
         id="path176"
         style="fill:#df3049;fill-opacity:1;fill-rule:nonzero;stroke:none"
         d="m 3567.61,332.211 c -0.01,0 -0.01,0 -0.02,0 0,0 0.01,0 0.02,0" /><path
         id="path178"
         style="fill:#df3049;fill-opacity:1;fill-rule:nonzero;stroke:none"
         d="m 3567.27,332.289 c -0.01,0.012 -0.02,0.012 -0.03,0.012 0.01,0 0.02,0 0.03,-0.012" /><path
         id="path180"
         style="fill:#df3049;fill-opacity:1;fill-rule:nonzero;stroke:none"
         d="m 3566.93,332.379 c -0.01,0 -0.03,0.012 -0.03,0.012 0.01,0 0.02,-0.012 0.03,-0.012" /><path
         id="path182"
         style="fill:#df3049;fill-opacity:1;fill-rule:nonzero;stroke:none"
         d="m 3566.6,332.469 c -0.01,0 -0.04,0.011 -0.05,0.011 0.01,0 0.04,-0.011 0.05,-0.011" /><path
         id="path184"
         style="fill:#df3049;fill-opacity:1;fill-rule:nonzero;stroke:none"
         d="m 3566.26,332.559 c -0.02,0 -0.03,0 -0.05,0.011 0.02,-0.011 0.03,-0.011 0.05,-0.011" /><path
         id="path186"
         style="fill:#df3049;fill-opacity:1;fill-rule:nonzero;stroke:none"
         d="m 3565.93,332.641 c -0.01,0.011 -0.05,0.019 -0.07,0.019 0.03,-0.008 0.05,-0.008 0.07,-0.019" /><path
         id="path188"
         style="fill:#df3049;fill-opacity:1;fill-rule:nonzero;stroke:none"
         d="m 3565.6,332.73 c -0.02,0.008 -0.05,0.008 -0.07,0.02 0.02,-0.012 0.05,-0.012 0.07,-0.02" /><path
         id="path190"
         style="fill:#df3049;fill-opacity:1;fill-rule:nonzero;stroke:none"
         d="m 3565.28,332.82 c -0.03,0 -0.06,0.012 -0.1,0.02 0.04,-0.008 0.07,-0.02 0.1,-0.02" /><path
         id="path192"
         style="fill:#df3049;fill-opacity:1;fill-rule:nonzero;stroke:none"
         d="m 3564.94,332.91 c -0.03,0 -0.06,0.012 -0.09,0.02 0.03,-0.008 0.06,-0.008 0.09,-0.02" /><path
         id="path194"
         style="fill:#df3049;fill-opacity:1;fill-rule:nonzero;stroke:none"
         d="m 3564.63,332.992 c -0.04,0.008 -0.08,0.02 -0.12,0.028 0.04,-0.008 0.08,-0.02 0.12,-0.028" /><path
         id="path196"
         style="fill:#df3049;fill-opacity:1;fill-rule:nonzero;stroke:none"
         d="m 3564.31,333.082 c -0.04,0.008 -0.09,0.02 -0.13,0.027 0.05,-0.007 0.09,-0.019 0.13,-0.027" /><path
         id="path198"
         style="fill:#df3049;fill-opacity:1;fill-rule:nonzero;stroke:none"
         d="m 3564.03,333.148 c -0.59,0.172 -1.19,0.332 -1.78,0.5 0.59,-0.168 1.19,-0.328 1.78,-0.5" /><path
         id="path200"
         style="fill:#df3049;fill-opacity:1;fill-rule:nonzero;stroke:none"
         d="m 3562.24,333.648 c -0.1,0.032 -0.2,0.063 -0.3,0.09 0.1,-0.027 0.2,-0.058 0.3,-0.09" /><path
         id="path202"
         style="fill:#df3049;fill-opacity:1;fill-rule:nonzero;stroke:none"
         d="m 3561.92,333.738 c -0.1,0.032 -0.19,0.063 -0.29,0.094 0.1,-0.031 0.19,-0.062 0.29,-0.094" /><path
         id="path204"
         style="fill:#df3049;fill-opacity:1;fill-rule:nonzero;stroke:none"
         d="m 3561.6,333.84 c -0.09,0.019 -0.2,0.051 -0.29,0.082 0.09,-0.031 0.19,-0.063 0.29,-0.082" /><path
         id="path206"
         style="fill:#df3049;fill-opacity:1;fill-rule:nonzero;stroke:none"
         d="m 3561.28,333.93 c -0.1,0.031 -0.19,0.058 -0.3,0.082 0.1,-0.024 0.2,-0.051 0.3,-0.082" /><path
         id="path208"
         style="fill:#df3049;fill-opacity:1;fill-rule:nonzero;stroke:none"
         d="m 3560.97,334.02 c -34.55,10.062 -55.61,26.32 -68.71,41.332 13.11,-15.012 34.15,-31.27 68.71,-41.332" /><path
         id="path210"
         style="fill:#df3049;fill-opacity:1;fill-rule:nonzero;stroke:none"
         d="m 3492.26,375.352 c -0.04,0.046 -0.08,0.089 -0.11,0.128 0.03,-0.039 0.07,-0.082 0.11,-0.128" /><path
         id="path212"
         style="fill:#df3049;fill-opacity:1;fill-rule:nonzero;stroke:none"
         d="m 3492.14,375.492 c -0.04,0.047 -0.08,0.09 -0.11,0.129 0.03,-0.039 0.07,-0.082 0.11,-0.129" /><path
         id="path214"
         style="fill:#df3049;fill-opacity:1;fill-rule:nonzero;stroke:none"
         d="m 3492.02,375.629 c -0.04,0.043 -0.08,0.09 -0.11,0.133 0.03,-0.043 0.07,-0.09 0.11,-0.133" /><path
         id="path216"
         style="fill:#df3049;fill-opacity:1;fill-rule:nonzero;stroke:none"
         d="m 3491.9,375.77 c -0.04,0.039 -0.07,0.082 -0.11,0.128 0.04,-0.046 0.07,-0.089 0.11,-0.128" /><path
         id="path218"
         style="fill:#df3049;fill-opacity:1;fill-rule:nonzero;stroke:none"
         d="m 3491.78,375.898 c -0.04,0.051 -0.07,0.094 -0.11,0.133 0.04,-0.039 0.08,-0.082 0.11,-0.133" /><path
         id="path220"
         style="fill:#df3049;fill-opacity:1;fill-rule:nonzero;stroke:none"
         d="m 3491.65,376.059 c -0.03,0.031 -0.07,0.07 -0.1,0.113 0.04,-0.043 0.07,-0.07 0.1,-0.113" /><path
         id="path222"
         style="fill:#df3049;fill-opacity:1;fill-rule:nonzero;stroke:none"
         d="m 3491.53,376.199 c -0.03,0.031 -0.06,0.071 -0.09,0.11 0.03,-0.039 0.06,-0.079 0.09,-0.11" /><path
         id="path224"
         style="fill:#ef354f;fill-opacity:1;fill-rule:nonzero;stroke:none"
         d="m 3607.11,0 h -83.9 c -21.29,15.6797 -32.73,29.7422 -38.27,36.25 l 6.38,340.199 c 0.04,-0.047 0.08,-0.097 0.12,-0.14 0.03,-0.039 0.06,-0.079 0.09,-0.11 0.01,-0.008 0.02,-0.019 0.02,-0.027 0.03,-0.043 0.07,-0.082 0.1,-0.113 0.01,-0.008 0.01,-0.02 0.02,-0.028 0.04,-0.039 0.07,-0.082 0.11,-0.133 h 0.01 c 0.04,-0.046 0.07,-0.089 0.11,-0.128 0,0 0,-0.008 0.01,-0.008 0.03,-0.043 0.07,-0.09 0.11,-0.133 0,0 0,0 0.01,-0.008 0.03,-0.039 0.07,-0.082 0.11,-0.129 0,0 0,0 0.01,-0.012 0.03,-0.039 0.07,-0.082 0.11,-0.128 v 0 c 13.1,-15.012 34.16,-31.27 68.71,-41.332 0,0 0.01,0 0.01,-0.008 0.11,-0.024 0.2,-0.051 0.3,-0.082 0.01,0 0.02,-0.008 0.03,-0.008 0.09,-0.031 0.2,-0.063 0.29,-0.082 0.01,-0.008 0.02,-0.008 0.03,-0.008 0.1,-0.031 0.19,-0.062 0.29,-0.094 0.01,0 0.01,0 0.02,0 0.1,-0.027 0.2,-0.058 0.3,-0.09 h 0.01 c 0.59,-0.168 1.19,-0.328 1.78,-0.5 0.06,-0.007 0.1,-0.019 0.15,-0.039 0.04,-0.007 0.09,-0.019 0.13,-0.027 0.07,-0.023 0.14,-0.043 0.2,-0.062 0.04,-0.008 0.08,-0.02 0.12,-0.028 0.07,-0.023 0.15,-0.043 0.22,-0.062 0.03,-0.008 0.06,-0.02 0.09,-0.02 0.08,-0.019 0.16,-0.051 0.24,-0.07 0.04,-0.008 0.07,-0.02 0.1,-0.02 0.08,-0.031 0.16,-0.05 0.25,-0.07 0.02,-0.012 0.05,-0.012 0.07,-0.02 0.09,-0.019 0.18,-0.05 0.26,-0.07 0.02,0 0.06,-0.008 0.07,-0.019 0.1,-0.02 0.19,-0.051 0.28,-0.071 0.02,-0.011 0.03,-0.011 0.05,-0.011 0.09,-0.028 0.19,-0.047 0.29,-0.079 0.01,0 0.04,-0.011 0.05,-0.011 0.1,-0.028 0.2,-0.047 0.3,-0.078 0,0 0.02,-0.012 0.03,-0.012 0.1,-0.027 0.21,-0.047 0.31,-0.078 0.01,0 0.02,0 0.03,-0.012 0.1,-0.019 0.21,-0.047 0.32,-0.078 0.01,0 0.01,0 0.02,0 0.11,-0.031 0.22,-0.063 0.33,-0.09 h 0.01 c 17.12,-4.34 37.32,-7.199 61.18,-7.801 L 3607.11,0" /><path
         id="path226"
         style="fill:#5656ac;fill-opacity:1;fill-rule:nonzero;stroke:none"
         d="m 3111.24,0 h -106.6 c 26.92,14.6797 53.73,29.0508 80.31,43.0391 8.83,-14.3985 17.59,-28.75 26.29,-43.0391" /><path
         id="path228"
         style="fill:#ef354f;fill-opacity:1;fill-rule:nonzero;stroke:none"
         d="m 3004.64,0 h -54.09 l -212.03,289.871 c 44.66,30.289 88.85,59.52 131.7,86.988 62.66,-89.777 140.55,-212.828 214.73,-333.8199 C 3058.37,29.0508 3031.56,14.6797 3004.64,0" /><g
         transform="scale(10)"
         id="g230"><text
           id="text234"
           style="font-variant:normal;font-weight:bold;font-size:29.65010071px;font-family:Poppins;-inkscape-font-specification:Poppins-Bold;writing-mode:lr-tb;fill:#274594;fill-opacity:1;fill-rule:nonzero;stroke:none"
           transform="matrix(1,0,0,-1,159.791,129.365)"><tspan
             id="tspan232"
             y="0"
             x="0 18.501663 40.175884 48.922665 63.064079 71.81086 90.312523 108.81419 117.56096 139.85783 155.89783 174.13264">PHILIPPINES </tspan></text>
<text
           id="text238"
           style="font-variant:normal;font-weight:500;font-size:29.65010071px;font-family:Poppins;-inkscape-font-specification:Poppins-Medium;writing-mode:lr-tb;fill:#274594;fill-opacity:1;fill-rule:nonzero;stroke:none"
           transform="matrix(1,0,0,-1,107.9781,100.74)"><tspan
             id="tspan236"
             y="0"
             x="0 7.8276262 29.205349 50.227268 65.763374 83.405182 98.941299 120.31902 141.34094 156.87706 178.25478 201.17368 216.70976 224.41879 245.4413 266.10742">INDEPENDENCE DAY</tspan></text>
<text
           id="text242"
           style="font-style:italic;font-variant:normal;font-weight:500;font-size:15.94699955px;font-family:Poppins;-inkscape-font-specification:Poppins-MediumItalic;writing-mode:lr-tb;fill:#274594;fill-opacity:1;fill-rule:nonzero;stroke:none"
           transform="matrix(1,0,0,-1,191.6398,73.9834)"><tspan
             id="tspan240"
             y="0"
             x="0">6</tspan></text>
<text
           id="text246"
           style="font-style:italic;font-variant:normal;font-weight:500;font-size:9.29710007px;font-family:Poppins;-inkscape-font-specification:Poppins-MediumItalic;writing-mode:lr-tb;fill:#274594;fill-opacity:1;fill-rule:nonzero;stroke:none"
           transform="matrix(1,0,0,-1,205.0671,79.29317)"><tspan
             id="tspan244"
             y="0"
             x="0 5.3178763">th</tspan></text>
<text
           id="text250"
           style="font-style:italic;font-variant:normal;font-weight:500;font-size:15.94699955px;font-family:Poppins;-inkscape-font-specification:Poppins-MediumItalic;writing-mode:lr-tb;fill:#274594;fill-opacity:1;fill-rule:nonzero;stroke:none"
           transform="matrix(1,0,0,-1,226.25163,73.9834)"><tspan
             id="tspan248"
             y="0"
             x="0 13.363299 21.846689 29.820316 42.003902 55.541981 69.081078">of June</tspan></text>
</g></g></g></svg>